<?xml version="1.0" encoding="utf-8" standalone="no"?>
<!DOCTYPE svg PUBLIC "-//W3C//DTD SVG 1.1//EN"
  "http://www.w3.org/Graphics/SVG/1.1/DTD/svg11.dtd">
<svg xmlns:xlink="http://www.w3.org/1999/xlink" width="347.55625pt" height="136.198558pt" viewBox="0 0 347.55625 136.198558" xmlns="http://www.w3.org/2000/svg" version="1.1">
 <metadata>
  <rdf:RDF xmlns:dc="http://purl.org/dc/elements/1.1/" xmlns:cc="http://creativecommons.org/ns#" xmlns:rdf="http://www.w3.org/1999/02/22-rdf-syntax-ns#">
   <cc:Work>
    <dc:type rdf:resource="http://purl.org/dc/dcmitype/StillImage"/>
    <dc:date>2024-01-12T21:50:51.312780</dc:date>
    <dc:format>image/svg+xml</dc:format>
    <dc:creator>
     <cc:Agent>
      <dc:title>Matplotlib v3.8.2, https://matplotlib.org/</dc:title>
     </cc:Agent>
    </dc:creator>
   </cc:Work>
  </rdf:RDF>
 </metadata>
 <defs>
  <style type="text/css">*{stroke-linejoin: round; stroke-linecap: butt}</style>
 </defs>
 <g id="figure_1">
  <g id="patch_1">
   <path d="M 0 136.198558 
L 347.55625 136.198558 
L 347.55625 0 
L 0 0 
z
" style="fill: #ffffff"/>
  </g>
  <g id="axes_1">
   <g id="patch_2">
    <path d="M 48.44375 92.631371 
L 340.35625 92.631371 
L 340.35625 9.952175 
L 48.44375 9.952175 
z
" style="fill: #ffffff"/>
   </g>
   <g id="patch_3">
    <path d="M 61.7125 457.212093 
L 62.472887 457.212093 
L 63.233274 457.212093 
L 63.99366 457.212093 
L 64.754047 457.212093 
L 65.514434 457.212093 
L 66.274821 457.212093 
L 67.035208 457.212093 
L 67.795595 457.212093 
L 68.555981 457.212093 
L 69.316368 457.212093 
L 70.076755 457.212093 
L 70.837142 457.212093 
L 71.597529 457.212093 
L 72.357915 457.212093 
L 73.118302 457.212093 
L 73.878689 457.212093 
L 74.639076 457.212093 
L 75.399463 457.212093 
L 76.15985 457.212093 
L 76.920236 457.212093 
L 77.680623 457.212093 
L 78.44101 457.212093 
L 79.201397 457.212093 
L 79.961784 457.212093 
L 80.72217 457.212093 
L 81.482557 457.212093 
L 82.242944 457.212093 
L 83.003331 457.212093 
L 83.763718 457.212093 
L 84.524105 457.212093 
L 85.284491 457.212093 
L 86.044878 457.212093 
L 86.805265 457.212093 
L 87.565652 457.212093 
L 88.326039 457.212093 
L 89.086426 457.212093 
L 89.846812 457.212093 
L 90.607199 457.212093 
L 91.367586 457.212093 
L 92.127973 457.212093 
L 92.88836 457.212093 
L 93.648746 457.212093 
L 94.409133 457.212093 
L 95.16952 457.212093 
L 95.929907 457.212093 
L 96.690294 457.212093 
L 97.450681 457.212093 
L 98.211067 -286.830197 
L 98.971454 -286.830197 
L 99.731841 -286.830197 
L 100.492228 -286.830197 
L 101.252615 -286.830197 
L 102.013001 -286.830197 
L 102.773388 -286.830197 
L 103.533775 -286.830197 
L 104.294162 -286.830197 
L 105.054549 -286.830197 
L 105.814936 -286.830197 
L 106.575322 -286.830197 
L 107.335709 -286.830197 
L 108.096096 -286.830197 
L 108.856483 -286.830197 
L 109.61687 -286.830197 
L 110.377256 -286.830197 
L 111.137643 -286.830197 
L 111.89803 -286.830197 
L 112.658417 -286.830197 
L 113.418804 -286.830197 
L 114.179191 -286.830197 
L 114.939577 -286.830197 
L 115.699964 -286.830197 
L 116.460351 -286.830197 
L 117.220738 -286.830197 
L 117.981125 -286.830197 
L 118.741511 -286.830197 
L 119.501898 -286.830197 
L 120.262285 -286.830197 
L 121.022672 -286.830197 
L 121.783059 -286.830197 
L 122.543446 -286.830197 
L 123.303832 -286.830197 
L 124.064219 -286.830197 
L 124.824606 -286.830197 
L 125.584993 -286.830197 
L 126.34538 -286.830197 
L 127.105766 -286.830197 
L 127.866153 -286.830197 
L 128.62654 -286.830197 
L 129.386927 -286.830197 
L 130.147314 -286.830197 
L 130.907701 -286.830197 
L 131.668087 -286.830197 
L 132.428474 -286.830197 
L 133.188861 -286.830197 
L 133.949248 -286.830197 
L 134.709635 -286.830197 
L 135.470021 -286.830197 
L 136.230408 -286.830197 
L 136.990795 -286.830197 
L 137.751182 -286.830197 
L 138.511569 -286.830197 
L 139.271956 -286.830197 
L 140.032342 -286.830197 
L 140.792729 -286.830197 
L 141.553116 -286.830197 
L 142.313503 -286.830197 
L 143.07389 -286.830197 
L 143.834277 -286.830197 
L 144.594663 -286.830197 
L 145.35505 -286.830197 
L 146.115437 -286.830197 
L 146.875824 -286.830197 
L 147.636211 -286.830197 
L 148.396597 -286.830197 
L 149.156984 -286.830197 
L 149.917371 -286.830197 
L 150.677758 -286.830197 
L 151.438145 -286.830197 
L 152.198532 -286.830197 
L 152.958918 -286.830197 
L 153.719305 -286.830197 
L 154.479692 -286.830197 
L 155.240079 -286.830197 
L 156.000466 -286.830197 
L 156.760852 -286.830197 
L 157.521239 -286.830197 
L 158.281626 -286.830197 
L 159.042013 457.212093 
L 159.8024 457.212093 
L 160.562787 457.212093 
L 161.323173 457.212093 
L 162.08356 457.212093 
L 162.843947 457.212093 
L 163.604334 457.212093 
L 164.364721 -286.830197 
L 165.125107 -286.830197 
L 165.885494 -286.830197 
L 166.645881 -286.830197 
L 167.406268 -286.830197 
L 168.166655 -286.830197 
L 168.927042 -286.830197 
L 169.687428 -286.830197 
L 170.447815 -286.830197 
L 171.208202 -286.830197 
L 171.968589 -286.830197 
L 172.728976 -286.830197 
L 173.489362 -286.830197 
L 174.249749 -286.830197 
L 175.010136 -286.830197 
L 175.770523 -286.830197 
L 176.53091 -286.830197 
L 177.291297 -286.830197 
L 178.051683 -286.830197 
L 178.81207 -286.830197 
L 179.572457 -286.830197 
L 180.332844 -286.830197 
L 181.093231 -286.830197 
L 181.853617 -286.830197 
L 182.614004 -286.830197 
L 183.374391 -286.830197 
L 184.134778 -286.830197 
L 184.895165 -286.830197 
L 185.655552 -286.830197 
L 186.415938 -286.830197 
L 187.176325 -286.830197 
L 187.936712 -286.830197 
L 188.697099 -286.830197 
L 189.457486 -286.830197 
L 190.217872 -286.830197 
L 190.978259 -286.830197 
L 191.738646 -286.830197 
L 192.499033 -286.830197 
L 193.25942 -286.830197 
L 194.019807 -286.830197 
L 194.780193 -286.830197 
L 195.54058 -286.830197 
L 196.300967 -286.830197 
L 197.061354 -286.830197 
L 197.821741 -286.830197 
L 198.582128 -286.830197 
L 199.342514 -286.830197 
L 200.102901 -286.830197 
L 200.863288 -286.830197 
L 201.623675 -286.830197 
L 202.384062 -286.830197 
L 203.144448 -286.830197 
L 203.904835 -286.830197 
L 204.665222 -286.830197 
L 205.425609 -286.830197 
L 206.185996 -286.830197 
L 206.946383 -286.830197 
L 207.706769 -286.830197 
L 208.467156 -286.830197 
L 209.227543 -286.830197 
L 209.98793 -286.830197 
L 210.748317 -286.830197 
L 211.508703 -286.830197 
L 212.26909 -286.830197 
L 213.029477 -286.830197 
L 213.789864 -286.830197 
L 214.550251 -286.830197 
L 215.310638 -286.830197 
L 216.071024 -286.830197 
L 216.831411 -286.830197 
L 217.591798 -286.830197 
L 218.352185 -286.830197 
L 219.112572 -286.830197 
L 219.872958 -286.830197 
L 220.633345 -286.830197 
L 221.393732 -286.830197 
L 222.154119 -286.830197 
L 222.914506 -286.830197 
L 223.674893 -286.830197 
L 224.435279 -286.830197 
L 225.195666 -286.830197 
L 225.956053 457.212093 
L 226.71644 457.212093 
L 227.476827 457.212093 
L 228.237213 457.212093 
L 228.9976 457.212093 
L 229.757987 457.212093 
L 230.518374 457.212093 
L 231.278761 457.212093 
L 232.039148 457.212093 
L 232.799534 457.212093 
L 233.559921 457.212093 
L 234.320308 457.212093 
L 235.080695 457.212093 
L 235.841082 457.212093 
L 236.601468 -286.830197 
L 237.361855 -286.830197 
L 238.122242 -286.830197 
L 238.882629 -286.830197 
L 239.643016 -286.830197 
L 240.403403 -286.830197 
L 241.163789 -286.830197 
L 241.924176 -286.830197 
L 242.684563 -286.830197 
L 243.44495 -286.830197 
L 244.205337 -286.830197 
L 244.965723 -286.830197 
L 245.72611 -286.830197 
L 246.486497 -286.830197 
L 247.246884 -286.830197 
L 248.007271 -286.830197 
L 248.767658 -286.830197 
L 249.528044 -286.830197 
L 250.288431 -286.830197 
L 251.048818 -286.830197 
L 251.809205 -286.830197 
L 252.569592 -286.830197 
L 253.329979 -286.830197 
L 254.090365 -286.830197 
L 254.850752 -286.830197 
L 255.611139 -286.830197 
L 256.371526 -286.830197 
L 257.131913 -286.830197 
L 257.892299 -286.830197 
L 258.652686 -286.830197 
L 259.413073 -286.830197 
L 260.17346 -286.830197 
L 260.933847 -286.830197 
L 261.694234 -286.830197 
L 262.45462 -286.830197 
L 263.215007 -286.830197 
L 263.975394 -286.830197 
L 264.735781 -286.830197 
L 265.496168 457.212093 
L 266.256554 457.212093 
L 267.016941 457.212093 
L 267.777328 -286.830197 
L 268.537715 -286.830197 
L 269.298102 -286.830197 
L 270.058489 -286.830197 
L 270.818875 -286.830197 
L 271.579262 -286.830197 
L 272.339649 -286.830197 
L 273.100036 -286.830197 
L 273.860423 -286.830197 
L 274.620809 -286.830197 
L 275.381196 -286.830197 
L 276.141583 -286.830197 
L 276.90197 -286.830197 
L 277.662357 -286.830197 
L 278.422744 -286.830197 
L 279.18313 -286.830197 
L 279.943517 -286.830197 
L 280.703904 -286.830197 
L 281.464291 -286.830197 
L 282.224678 -286.830197 
L 282.985064 -286.830197 
L 283.745451 -286.830197 
L 284.505838 -286.830197 
L 285.266225 -286.830197 
L 286.026612 -286.830197 
L 286.786999 -286.830197 
L 287.547385 -286.830197 
L 288.307772 -286.830197 
L 289.068159 -286.830197 
L 289.828546 -286.830197 
L 290.588933 -286.830197 
L 291.349319 -286.830197 
L 292.109706 -286.830197 
L 292.870093 -286.830197 
L 293.63048 -286.830197 
L 294.390867 -286.830197 
L 295.151254 -286.830197 
L 295.91164 -286.830197 
L 296.672027 -286.830197 
L 297.432414 -286.830197 
L 298.192801 -286.830197 
L 298.953188 -286.830197 
L 299.713574 -286.830197 
L 300.473961 -286.830197 
L 301.234348 -286.830197 
L 301.994735 -286.830197 
L 302.755122 -286.830197 
L 303.515509 457.212093 
L 304.275895 457.212093 
L 305.036282 457.212093 
L 305.796669 457.212093 
L 306.557056 457.212093 
L 307.317443 457.212093 
L 308.07783 457.212093 
L 308.838216 457.212093 
L 309.598603 457.212093 
L 310.35899 457.212093 
L 311.119377 457.212093 
L 311.879764 457.212093 
L 312.64015 457.212093 
L 313.400537 457.212093 
L 314.160924 457.212093 
L 314.921311 457.212093 
L 315.681698 457.212093 
L 316.442085 457.212093 
L 317.202471 457.212093 
L 317.962858 457.212093 
L 318.723245 457.212093 
L 319.483632 457.212093 
L 320.244019 457.212093 
L 321.004405 457.212093 
L 321.764792 457.212093 
L 322.525179 457.212093 
L 323.285566 457.212093 
L 324.045953 457.212093 
L 324.80634 457.212093 
L 325.566726 457.212093 
L 326.327113 457.212093 
L 327.0875 457.212093 
z
" clip-path="url(#pf5ccb133b1)" style="fill: #d62728; opacity: 0.1"/>
   </g>
   <g id="matplotlib.axis_1">
    <g id="xtick_1">
     <g id="line2d_1">
      <defs>
       <path id="m632edf9b79" d="M 0 0 
L 0 3.5 
" style="stroke: #4c4c4c; stroke-width: 0.8"/>
      </defs>
      <g>
       <use xlink:href="#m632edf9b79" x="61.7125" y="97.631371" style="fill: #4c4c4c; stroke: #4c4c4c; stroke-width: 0.8"/>
      </g>
     </g>
     <g id="text_1">
      <text style="fill: #4c4c4c; font: 200 10px 'Helvetica', sans-serif; text-anchor: middle" x="61.7125" y="111.804808" transform="rotate(-0 61.7125 111.804808)">0.0</text>
     </g>
    </g>
    <g id="xtick_2">
     <g id="line2d_2">
      <g>
       <use xlink:href="#m632edf9b79" x="99.731841" y="97.631371" style="fill: #4c4c4c; stroke: #4c4c4c; stroke-width: 0.8"/>
      </g>
     </g>
     <g id="text_2">
      <text style="fill: #4c4c4c; font: 200 10px 'Helvetica', sans-serif; text-anchor: middle" x="99.731841" y="111.804808" transform="rotate(-0 99.731841 111.804808)">0.5</text>
     </g>
    </g>
    <g id="xtick_3">
     <g id="line2d_3">
      <g>
       <use xlink:href="#m632edf9b79" x="137.751182" y="97.631371" style="fill: #4c4c4c; stroke: #4c4c4c; stroke-width: 0.8"/>
      </g>
     </g>
     <g id="text_3">
      <text style="fill: #4c4c4c; font: 200 10px 'Helvetica', sans-serif; text-anchor: middle" x="137.751182" y="111.804808" transform="rotate(-0 137.751182 111.804808)">1.0</text>
     </g>
    </g>
    <g id="xtick_4">
     <g id="line2d_4">
      <g>
       <use xlink:href="#m632edf9b79" x="175.770523" y="97.631371" style="fill: #4c4c4c; stroke: #4c4c4c; stroke-width: 0.8"/>
      </g>
     </g>
     <g id="text_4">
      <text style="fill: #4c4c4c; font: 200 10px 'Helvetica', sans-serif; text-anchor: middle" x="175.770523" y="111.804808" transform="rotate(-0 175.770523 111.804808)">1.5</text>
     </g>
    </g>
    <g id="xtick_5">
     <g id="line2d_5">
      <g>
       <use xlink:href="#m632edf9b79" x="213.789864" y="97.631371" style="fill: #4c4c4c; stroke: #4c4c4c; stroke-width: 0.8"/>
      </g>
     </g>
     <g id="text_5">
      <text style="fill: #4c4c4c; font: 200 10px 'Helvetica', sans-serif; text-anchor: middle" x="213.789864" y="111.804808" transform="rotate(-0 213.789864 111.804808)">2.0</text>
     </g>
    </g>
    <g id="xtick_6">
     <g id="line2d_6">
      <g>
       <use xlink:href="#m632edf9b79" x="251.809205" y="97.631371" style="fill: #4c4c4c; stroke: #4c4c4c; stroke-width: 0.8"/>
      </g>
     </g>
     <g id="text_6">
      <text style="fill: #4c4c4c; font: 200 10px 'Helvetica', sans-serif; text-anchor: middle" x="251.809205" y="111.804808" transform="rotate(-0 251.809205 111.804808)">2.5</text>
     </g>
    </g>
    <g id="xtick_7">
     <g id="line2d_7">
      <g>
       <use xlink:href="#m632edf9b79" x="289.828546" y="97.631371" style="fill: #4c4c4c; stroke: #4c4c4c; stroke-width: 0.8"/>
      </g>
     </g>
     <g id="text_7">
      <text style="fill: #4c4c4c; font: 200 10px 'Helvetica', sans-serif; text-anchor: middle" x="289.828546" y="111.804808" transform="rotate(-0 289.828546 111.804808)">3.0</text>
     </g>
    </g>
    <g id="xtick_8">
     <g id="line2d_8">
      <g>
       <use xlink:href="#m632edf9b79" x="327.847887" y="97.631371" style="fill: #4c4c4c; stroke: #4c4c4c; stroke-width: 0.8"/>
      </g>
     </g>
     <g id="text_8">
      <text style="fill: #4c4c4c; font: 200 10px 'Helvetica', sans-serif; text-anchor: middle" x="327.847887" y="111.804808" transform="rotate(-0 327.847887 111.804808)">3.5</text>
     </g>
    </g>
    <g id="text_9">
     <text style="font: 12px 'Helvetica', sans-serif; text-anchor: middle" x="194.4" y="126.497308" transform="rotate(-0 194.4 126.497308)">Time</text>
    </g>
   </g>
   <g id="matplotlib.axis_2">
    <g id="ytick_1">
     <g id="line2d_9">
      <defs>
       <path id="m3d776a2de1" d="M 0 0 
L -3.5 0 
" style="stroke: #4c4c4c; stroke-width: 0.8"/>
      </defs>
      <g>
       <use xlink:href="#m3d776a2de1" x="43.44375" y="85.190948" style="fill: #4c4c4c; stroke: #4c4c4c; stroke-width: 0.8"/>
      </g>
     </g>
     <g id="text_10">
      <text style="fill: #4c4c4c; font: 200 10px 'Helvetica', sans-serif; text-anchor: end" x="36.44375" y="88.777667" transform="rotate(-0 36.44375 88.777667)">0.0</text>
     </g>
    </g>
    <g id="ytick_2">
     <g id="line2d_10">
      <g>
       <use xlink:href="#m3d776a2de1" x="43.44375" y="47.988833" style="fill: #4c4c4c; stroke: #4c4c4c; stroke-width: 0.8"/>
      </g>
     </g>
     <g id="text_11">
      <text style="fill: #4c4c4c; font: 200 10px 'Helvetica', sans-serif; text-anchor: end" x="36.44375" y="51.575552" transform="rotate(-0 36.44375 51.575552)">0.5</text>
     </g>
    </g>
    <g id="ytick_3">
     <g id="line2d_11">
      <g>
       <use xlink:href="#m3d776a2de1" x="43.44375" y="10.786719" style="fill: #4c4c4c; stroke: #4c4c4c; stroke-width: 0.8"/>
      </g>
     </g>
     <g id="text_12">
      <text style="fill: #4c4c4c; font: 200 10px 'Helvetica', sans-serif; text-anchor: end" x="36.44375" y="14.373437" transform="rotate(-0 36.44375 14.373437)">1.0</text>
     </g>
    </g>
    <g id="text_13">
     <text style="font: 12px 'Helvetica', sans-serif; text-anchor: middle" x="16.0425" y="51.291773" transform="rotate(-90 16.0425 51.291773)">Speed</text>
    </g>
   </g>
   <g id="line2d_12">
    <path d="M 61.7125 85.190948 
L 93.648746 85.1167 
L 95.929907 84.913931 
L 97.450681 84.577621 
L 98.971454 83.92022 
L 99.731841 83.406829 
L 100.492228 82.727245 
L 101.252615 81.844787 
L 102.013001 80.721035 
L 102.773388 79.31815 
L 103.533775 77.601945 
L 104.294162 75.545595 
L 105.814936 70.36692 
L 107.335709 63.870846 
L 111.89803 42.600891 
L 112.658417 40.091336 
L 113.418804 38.219805 
L 114.179191 37.075648 
L 114.939577 36.714699 
L 115.699964 37.154756 
L 116.460351 38.374131 
L 117.220738 40.313415 
L 117.981125 42.880278 
L 119.501898 49.408186 
L 123.303832 67.582393 
L 124.824606 73.374095 
L 125.584993 75.738286 
L 126.34538 77.739187 
L 127.105766 79.388067 
L 127.866153 80.704583 
L 128.62654 81.711711 
L 129.386927 82.43101 
L 130.147314 82.878554 
L 130.907701 83.061793 
L 131.668087 82.977617 
L 132.428474 82.611878 
L 133.188861 81.940601 
L 133.949248 80.933076 
L 134.709635 79.556851 
L 135.470021 77.784469 
L 136.230408 75.601447 
L 137.751182 70.060172 
L 140.032342 59.878446 
L 141.553116 53.449684 
L 142.313503 50.877063 
L 143.07389 48.95777 
L 143.834277 47.820276 
L 144.594663 47.542953 
L 145.35505 48.145188 
L 146.115437 49.585167 
L 146.875824 51.764696 
L 147.636211 54.540279 
L 149.156984 61.174985 
L 151.438145 71.227715 
L 152.958918 76.542467 
L 153.719305 78.619763 
L 154.479692 80.313112 
L 155.240079 81.65246 
L 156.000466 82.6807 
L 156.760852 83.446567 
L 157.521239 83.9989 
L 158.281626 84.3825 
L 159.8024 84.788434 
L 161.323173 84.874859 
L 162.843947 84.731866 
L 164.364721 84.3526 
L 165.885494 83.661499 
L 167.406268 82.543701 
L 168.927042 80.881316 
L 170.447815 78.600872 
L 171.968589 75.727299 
L 176.53091 65.969282 
L 177.291297 64.717291 
L 178.051683 63.723734 
L 178.81207 63.032883 
L 179.572457 62.676368 
L 180.332844 62.670773 
L 181.093231 63.016359 
L 181.853617 63.697044 
L 182.614004 64.681638 
L 184.134778 67.377319 
L 186.415938 72.37218 
L 188.697099 77.154146 
L 190.217872 79.638871 
L 190.978259 80.560383 
L 191.738646 81.204846 
L 192.499033 81.501512 
L 193.25942 81.351768 
L 194.019807 80.626236 
L 194.780193 79.170589 
L 195.54058 76.824028 
L 196.300967 73.452337 
L 197.061354 68.993257 
L 198.582128 57.213797 
L 200.102901 43.974464 
L 200.863288 38.236772 
L 201.623675 33.946401 
L 202.384062 31.622332 
L 203.144448 31.558295 
L 203.904835 33.761818 
L 204.665222 37.950928 
L 206.185996 50.07886 
L 207.706769 62.781207 
L 208.467156 67.905737 
L 209.227543 71.715792 
L 209.98793 74.028394 
L 210.748317 74.794075 
L 211.508703 74.082649 
L 212.26909 72.079956 
L 213.029477 69.091682 
L 215.310638 58.841265 
L 216.071024 56.738369 
L 216.831411 55.986382 
L 217.591798 56.725045 
L 218.352185 58.854708 
L 219.112572 62.067438 
L 222.154119 77.057518 
L 222.914506 79.697437 
L 223.674893 81.670224 
L 224.435279 83.049924 
L 225.195666 83.955492 
L 225.956053 84.514417 
L 226.71644 84.839248 
L 228.237213 85.108514 
L 230.518374 85.17309 
L 233.559921 85.05103 
L 235.080695 84.778948 
L 235.841082 84.510681 
L 236.601468 84.09642 
L 237.361855 83.474877 
L 238.122242 82.569122 
L 238.882629 81.287644 
L 239.643016 79.528284 
L 240.403403 77.185804 
L 241.163789 74.16344 
L 241.924176 70.388092 
L 242.684563 65.827907 
L 244.205337 54.535378 
L 247.246884 28.866113 
L 248.007271 23.723196 
L 248.767658 19.824536 
L 249.528044 17.454586 
L 250.288431 16.792064 
L 251.048818 17.887688 
L 251.809205 20.657757 
L 252.569592 24.894711 
L 254.090365 36.484663 
L 256.371526 56.067743 
L 257.892299 67.027812 
L 258.652686 71.391367 
L 259.413073 74.971922 
L 260.17346 77.812598 
L 260.933847 79.99299 
L 261.694234 81.611892 
L 262.45462 82.772786 
L 263.215007 83.573099 
L 263.975394 84.097382 
L 264.735781 84.413921 
L 265.496168 84.574 
L 267.016941 84.55186 
L 268.537715 84.158638 
L 270.058489 83.36988 
L 270.818875 82.793833 
L 271.579262 82.072694 
L 272.339649 81.187492 
L 273.100036 80.120556 
L 274.620809 77.388713 
L 276.141583 73.834975 
L 277.662357 69.558504 
L 281.464291 57.955954 
L 282.985064 54.344549 
L 283.745451 53.042109 
L 284.505838 52.148345 
L 285.266225 51.699698 
L 286.026612 51.714714 
L 286.786999 52.192768 
L 287.547385 53.114112 
L 288.307772 54.441226 
L 289.068159 56.121351 
L 290.588933 60.274904 
L 295.151254 73.961595 
L 296.672027 77.489629 
L 298.192801 80.195574 
L 299.713574 82.12642 
L 301.234348 83.412866 
L 302.755122 84.215212 
L 304.275895 84.684534 
L 306.557056 85.020388 
L 310.35899 85.190948 
L 327.0875 85.190948 
L 327.0875 85.190948 
" clip-path="url(#pf5ccb133b1)" style="fill: none; stroke: #000000; stroke-linecap: square"/>
   </g>
   <g id="line2d_13">
    <path d="M 97.450681 92.631371 
L 97.450681 9.952175 
" clip-path="url(#pf5ccb133b1)" style="fill: none; stroke-dasharray: 5,2.5; stroke-dashoffset: 0; stroke: #000000; stroke-width: 0.5"/>
   </g>
   <g id="line2d_14">
    <path d="M 302.755122 92.631371 
L 302.755122 9.952175 
" clip-path="url(#pf5ccb133b1)" style="fill: none; stroke-dasharray: 5,2.5; stroke-dashoffset: 0; stroke: #000000; stroke-width: 0.5"/>
   </g>
   <g id="line2d_15">
    <path d="M 61.7125 92.631371 
L 61.7125 9.952175 
" clip-path="url(#pf5ccb133b1)" style="fill: none; stroke-dasharray: 0.5,0.825; stroke-dashoffset: 0; stroke: #000000; stroke-width: 0.5"/>
   </g>
   <g id="line2d_16">
    <path d="M 327.0875 92.631371 
L 327.0875 9.952175 
" clip-path="url(#pf5ccb133b1)" style="fill: none; stroke-dasharray: 0.5,0.825; stroke-dashoffset: 0; stroke: #000000; stroke-width: 0.5"/>
   </g>
   <g id="patch_4">
    <path d="M 43.44375 92.631371 
L 43.44375 9.952175 
" style="fill: none; stroke: #7f7f7f; stroke-width: 0.8; stroke-linejoin: miter; stroke-linecap: square"/>
   </g>
   <g id="patch_5">
    <path d="M 48.44375 97.631371 
L 340.35625 97.631371 
" style="fill: none; stroke: #7f7f7f; stroke-width: 0.8; stroke-linejoin: miter; stroke-linecap: square"/>
   </g>
  </g>
 </g>
 <defs>
  <clipPath id="pf5ccb133b1">
   <rect x="48.44375" y="9.952175" width="291.9125" height="82.679195"/>
  </clipPath>
 </defs>
</svg>
