<?xml version="1.0" encoding="UTF-8" standalone="no"?>
<svg
   width="347.55625pt"
   height="136.287188pt"
   viewBox="0 0 347.55625 136.287188"
   version="1.1"
   id="svg270"
   sodipodi:docname="duration_demo.svg"
   inkscape:version="1.2 (dc2aeda, 2022-05-15)"
   xmlns:inkscape="http://www.inkscape.org/namespaces/inkscape"
   xmlns:sodipodi="http://sodipodi.sourceforge.net/DTD/sodipodi-0.dtd"
   xmlns:xlink="http://www.w3.org/1999/xlink"
   xmlns="http://www.w3.org/2000/svg"
   xmlns:svg="http://www.w3.org/2000/svg"
   xmlns:rdf="http://www.w3.org/1999/02/22-rdf-syntax-ns#"
   xmlns:cc="http://creativecommons.org/ns#"
   xmlns:dc="http://purl.org/dc/elements/1.1/">
  <sodipodi:namedview
     id="namedview272"
     pagecolor="#ffffff"
     bordercolor="#000000"
     borderopacity="0.25"
     inkscape:showpageshadow="2"
     inkscape:pageopacity="0.0"
     inkscape:pagecheckerboard="0"
     inkscape:deskcolor="#d1d1d1"
     inkscape:document-units="pt"
     showgrid="false"
     inkscape:zoom="2.5974562"
     inkscape:cx="134.55472"
     inkscape:cy="15.592178"
     inkscape:window-width="1680"
     inkscape:window-height="923"
     inkscape:window-x="0"
     inkscape:window-y="25"
     inkscape:window-maximized="1"
     inkscape:current-layer="patch_1" />
  <metadata
     id="metadata132">
    <rdf:RDF>
      <cc:Work>
        <dc:type
           rdf:resource="http://purl.org/dc/dcmitype/StillImage" />
        <dc:date>2024-01-05T12:10:24.345957</dc:date>
        <dc:format>image/svg+xml</dc:format>
        <dc:creator>
          <cc:Agent>
            <dc:title>Matplotlib v3.8.2, https://matplotlib.org/</dc:title>
          </cc:Agent>
        </dc:creator>
      </cc:Work>
    </rdf:RDF>
  </metadata>
  <defs
     id="defs136">
    <style
       type="text/css"
       id="style134">*{stroke-linejoin: round; stroke-linecap: butt}</style>
  </defs>
  <g
     id="figure_1">
    <g
       id="patch_1" />
    <g
       id="axes_1">
      <g
         id="patch_2">
        <path
           d="M 48.44375 92.72  L 340.35625 92.72  L 340.35625 7.2  L 48.44375 7.2  z "
           style="fill: #ffffff"
           id="path141" />
      </g>
      <g
         id="patch_3">
        <path
           d="M 61.7125 437.056468  L 62.64364 437.056468  L 63.574781 437.056468  L 64.505921 437.056468  L 65.437061 437.056468  L 66.368202 437.056468  L 67.299342 437.056468  L 68.230482 437.056468  L 69.161623 437.056468  L 70.092763 437.056468  L 71.023904 437.056468  L 71.955044 437.056468  L 72.886184 437.056468  L 73.817325 437.056468  L 74.748465 437.056468  L 75.679605 437.056468  L 76.610746 437.056468  L 77.541886 437.056468  L 78.473026 437.056468  L 79.404167 437.056468  L 80.335307 437.056468  L 81.266447 437.056468  L 82.197588 437.056468  L 83.128728 437.056468  L 84.059868 437.056468  L 84.991009 437.056468  L 85.922149 437.056468  L 86.853289 437.056468  L 87.78443 437.056468  L 88.71557 437.056468  L 89.646711 437.056468  L 90.577851 437.056468  L 91.508991 437.056468  L 92.440132 437.056468  L 93.371272 437.056468  L 94.302412 437.056468  L 95.233553 437.056468  L 96.164693 437.056468  L 97.095833 437.056468  L 98.026974 437.056468  L 98.958114 437.056468  L 99.889254 437.056468  L 100.820395 437.056468  L 101.751535 437.056468  L 102.682675 437.056468  L 103.613816 437.056468  L 104.544956 437.056468  L 105.476096 437.056468  L 106.407237 -265.671017  L 107.338377 -265.671017  L 108.269518 -265.671017  L 109.200658 -265.671017  L 110.131798 -265.671017  L 111.062939 -265.671017  L 111.994079 -265.671017  L 112.925219 -265.671017  L 113.85636 -265.671017  L 114.7875 -265.671017  L 115.71864 -265.671017  L 116.649781 -265.671017  L 117.580921 -265.671017  L 118.512061 -265.671017  L 119.443202 -265.671017  L 120.374342 -265.671017  L 121.305482 -265.671017  L 122.236623 -265.671017  L 123.167763 -265.671017  L 124.098904 -265.671017  L 125.030044 -265.671017  L 125.961184 -265.671017  L 126.892325 -265.671017  L 127.823465 -265.671017  L 128.754605 -265.671017  L 129.685746 -265.671017  L 130.616886 -265.671017  L 131.548026 -265.671017  L 132.479167 -265.671017  L 133.410307 -265.671017  L 134.341447 -265.671017  L 135.272588 -265.671017  L 136.203728 -265.671017  L 137.134868 -265.671017  L 138.066009 -265.671017  L 138.997149 -265.671017  L 139.928289 -265.671017  L 140.85943 -265.671017  L 141.79057 -265.671017  L 142.721711 -265.671017  L 143.652851 -265.671017  L 144.583991 -265.671017  L 145.515132 -265.671017  L 146.446272 -265.671017  L 147.377412 -265.671017  L 148.308553 -265.671017  L 149.239693 -265.671017  L 150.170833 -265.671017  L 151.101974 -265.671017  L 152.033114 -265.671017  L 152.964254 -265.671017  L 153.895395 -265.671017  L 154.826535 -265.671017  L 155.757675 437.056468  L 156.688816 437.056468  L 157.619956 437.056468  L 158.551096 437.056468  L 159.482237 437.056468  L 160.413377 437.056468  L 161.344518 437.056468  L 162.275658 437.056468  L 163.206798 437.056468  L 164.137939 437.056468  L 165.069079 437.056468  L 166.000219 437.056468  L 166.93136 437.056468  L 167.8625 437.056468  L 168.79364 437.056468  L 169.724781 437.056468  L 170.655921 437.056468  L 171.587061 -265.671017  L 172.518202 -265.671017  L 173.449342 -265.671017  L 174.380482 -265.671017  L 175.311623 -265.671017  L 176.242763 -265.671017  L 177.173904 -265.671017  L 178.105044 -265.671017  L 179.036184 -265.671017  L 179.967325 -265.671017  L 180.898465 -265.671017  L 181.829605 -265.671017  L 182.760746 -265.671017  L 183.691886 -265.671017  L 184.623026 -265.671017  L 185.554167 -265.671017  L 186.485307 -265.671017  L 187.416447 -265.671017  L 188.347588 -265.671017  L 189.278728 -265.671017  L 190.209868 -265.671017  L 191.141009 -265.671017  L 192.072149 -265.671017  L 193.003289 -265.671017  L 193.93443 -265.671017  L 194.86557 -265.671017  L 195.796711 437.056468  L 196.727851 437.056468  L 197.658991 437.056468  L 198.590132 437.056468  L 199.521272 437.056468  L 200.452412 437.056468  L 201.383553 437.056468  L 202.314693 437.056468  L 203.245833 437.056468  L 204.176974 437.056468  L 205.108114 437.056468  L 206.039254 437.056468  L 206.970395 437.056468  L 207.901535 -265.671017  L 208.832675 -265.671017  L 209.763816 -265.671017  L 210.694956 -265.671017  L 211.626096 -265.671017  L 212.557237 -265.671017  L 213.488377 -265.671017  L 214.419518 -265.671017  L 215.350658 -265.671017  L 216.281798 -265.671017  L 217.212939 -265.671017  L 218.144079 -265.671017  L 219.075219 -265.671017  L 220.00636 -265.671017  L 220.9375 -265.671017  L 221.86864 -265.671017  L 222.799781 -265.671017  L 223.730921 -265.671017  L 224.662061 -265.671017  L 225.593202 -265.671017  L 226.524342 -265.671017  L 227.455482 -265.671017  L 228.386623 -265.671017  L 229.317763 -265.671017  L 230.248904 -265.671017  L 231.180044 -265.671017  L 232.111184 -265.671017  L 233.042325 -265.671017  L 233.973465 -265.671017  L 234.904605 -265.671017  L 235.835746 -265.671017  L 236.766886 -265.671017  L 237.698026 -265.671017  L 238.629167 -265.671017  L 239.560307 -265.671017  L 240.491447 -265.671017  L 241.422588 -265.671017  L 242.353728 -265.671017  L 243.284868 -265.671017  L 244.216009 -265.671017  L 245.147149 -265.671017  L 246.078289 -265.671017  L 247.00943 -265.671017  L 247.94057 -265.671017  L 248.871711 -265.671017  L 249.802851 -265.671017  L 250.733991 -265.671017  L 251.665132 -265.671017  L 252.596272 -265.671017  L 253.527412 -265.671017  L 254.458553 -265.671017  L 255.389693 -265.671017  L 256.320833 -265.671017  L 257.251974 -265.671017  L 258.183114 -265.671017  L 259.114254 -265.671017  L 260.045395 -265.671017  L 260.976535 -265.671017  L 261.907675 -265.671017  L 262.838816 -265.671017  L 263.769956 -265.671017  L 264.701096 -265.671017  L 265.632237 -265.671017  L 266.563377 -265.671017  L 267.494518 -265.671017  L 268.425658 -265.671017  L 269.356798 -265.671017  L 270.287939 -265.671017  L 271.219079 -265.671017  L 272.150219 -265.671017  L 273.08136 -265.671017  L 274.0125 -265.671017  L 274.94364 -265.671017  L 275.874781 -265.671017  L 276.805921 -265.671017  L 277.737061 -265.671017  L 278.668202 -265.671017  L 279.599342 -265.671017  L 280.530482 -265.671017  L 281.461623 -265.671017  L 282.392763 -265.671017  L 283.323904 -265.671017  L 284.255044 -265.671017  L 285.186184 -265.671017  L 286.117325 -265.671017  L 287.048465 -265.671017  L 287.979605 -265.671017  L 288.910746 -265.671017  L 289.841886 -265.671017  L 290.773026 -265.671017  L 291.704167 -265.671017  L 292.635307 -265.671017  L 293.566447 -265.671017  L 294.497588 -265.671017  L 295.428728 -265.671017  L 296.359868 -265.671017  L 297.291009 -265.671017  L 298.222149 437.056468  L 299.153289 437.056468  L 300.08443 437.056468  L 301.01557 437.056468  L 301.946711 437.056468  L 302.877851 437.056468  L 303.808991 437.056468  L 304.740132 437.056468  L 305.671272 437.056468  L 306.602412 437.056468  L 307.533553 437.056468  L 308.464693 437.056468  L 309.395833 437.056468  L 310.326974 437.056468  L 311.258114 437.056468  L 312.189254 437.056468  L 313.120395 437.056468  L 314.051535 437.056468  L 314.982675 437.056468  L 315.913816 437.056468  L 316.844956 437.056468  L 317.776096 437.056468  L 318.707237 437.056468  L 319.638377 437.056468  L 320.569518 437.056468  L 321.500658 437.056468  L 322.431798 437.056468  L 323.362939 437.056468  L 324.294079 437.056468  L 325.225219 437.056468  L 326.15636 437.056468  L 327.0875 437.056468  z "
           clip-path="url(#pd0ccad0233)"
           style="fill: #d62728; opacity: 0.1"
           id="path144" />
      </g>
      <g
         id="matplotlib.axis_1">
        <g
           id="xtick_1">
          <g
             id="line2d_1">
            <defs
               id="defs148">
              <path
                 id="mdc7415e5d9"
                 d="M 0 0  L 0 3.5  "
                 style="stroke: #4c4c4c; stroke-width: 0.8" />
            </defs>
            <g
               id="g152">
              <use
                 xlink:href="#mdc7415e5d9"
                 x="61.7125"
                 y="97.72"
                 style="fill: #4c4c4c; stroke: #4c4c4c; stroke-width: 0.8"
                 id="use150" />
            </g>
          </g>
          <g
             id="text_1">
            <text
               style="fill: #4c4c4c; font: 200 10px 'Helvetica', sans-serif; text-anchor: middle"
               x="61.7125"
               y="111.893438"
               transform="rotate(-0 61.7125 111.893438)"
               id="text155">0.0</text>
          </g>
        </g>
        <g
           id="xtick_2">
          <g
             id="line2d_2">
            <g
               id="g161">
              <use
                 xlink:href="#mdc7415e5d9"
                 x="108.269518"
                 y="97.72"
                 style="fill: #4c4c4c; stroke: #4c4c4c; stroke-width: 0.8"
                 id="use159" />
            </g>
          </g>
          <g
             id="text_2">
            <text
               style="fill: #4c4c4c; font: 200 10px 'Helvetica', sans-serif; text-anchor: middle"
               x="108.269518"
               y="111.893438"
               transform="rotate(-0 108.269518 111.893438)"
               id="text164">0.5</text>
          </g>
        </g>
        <g
           id="xtick_3">
          <g
             id="line2d_3">
            <g
               id="g170">
              <use
                 xlink:href="#mdc7415e5d9"
                 x="154.826535"
                 y="97.72"
                 style="fill: #4c4c4c; stroke: #4c4c4c; stroke-width: 0.8"
                 id="use168" />
            </g>
          </g>
          <g
             id="text_3">
            <text
               style="fill: #4c4c4c; font: 200 10px 'Helvetica', sans-serif; text-anchor: middle"
               x="154.826535"
               y="111.893438"
               transform="rotate(-0 154.826535 111.893438)"
               id="text173">1.0</text>
          </g>
        </g>
        <g
           id="xtick_4">
          <g
             id="line2d_4">
            <g
               id="g179">
              <use
                 xlink:href="#mdc7415e5d9"
                 x="201.383553"
                 y="97.72"
                 style="fill: #4c4c4c; stroke: #4c4c4c; stroke-width: 0.8"
                 id="use177" />
            </g>
          </g>
          <g
             id="text_4">
            <text
               style="fill: #4c4c4c; font: 200 10px 'Helvetica', sans-serif; text-anchor: middle"
               x="201.383553"
               y="111.893438"
               transform="rotate(-0 201.383553 111.893438)"
               id="text182">1.5</text>
          </g>
        </g>
        <g
           id="xtick_5">
          <g
             id="line2d_5">
            <g
               id="g188">
              <use
                 xlink:href="#mdc7415e5d9"
                 x="247.94057"
                 y="97.72"
                 style="fill: #4c4c4c; stroke: #4c4c4c; stroke-width: 0.8"
                 id="use186" />
            </g>
          </g>
          <g
             id="text_5">
            <text
               style="fill: #4c4c4c; font: 200 10px 'Helvetica', sans-serif; text-anchor: middle"
               x="247.94057"
               y="111.893438"
               transform="rotate(-0 247.94057 111.893438)"
               id="text191">2.0</text>
          </g>
        </g>
        <g
           id="xtick_6">
          <g
             id="line2d_6">
            <g
               id="g197">
              <use
                 xlink:href="#mdc7415e5d9"
                 x="294.497588"
                 y="97.72"
                 style="fill: #4c4c4c; stroke: #4c4c4c; stroke-width: 0.8"
                 id="use195" />
            </g>
          </g>
          <g
             id="text_6">
            <text
               style="fill: #4c4c4c; font: 200 10px 'Helvetica', sans-serif; text-anchor: middle"
               x="294.497588"
               y="111.893438"
               transform="rotate(-0 294.497588 111.893438)"
               id="text200">2.5</text>
          </g>
        </g>
        <g
           id="text_7">
          <text
             style="font: 12px 'Helvetica', sans-serif; text-anchor: middle"
             x="194.4"
             y="126.585938"
             transform="rotate(-0 194.4 126.585938)"
             id="text204">Time</text>
        </g>
      </g>
      <g
         id="matplotlib.axis_2">
        <g
           id="ytick_1">
          <g
             id="line2d_7">
            <defs
               id="defs209">
              <path
                 id="m6d095bcc67"
                 d="M 0 0  L -3.5 0  "
                 style="stroke: #4c4c4c; stroke-width: 0.8" />
            </defs>
            <g
               id="g213">
              <use
                 xlink:href="#m6d095bcc67"
                 x="43.44375"
                 y="85.692725"
                 style="fill: #4c4c4c; stroke: #4c4c4c; stroke-width: 0.8"
                 id="use211" />
            </g>
          </g>
          <g
             id="text_8">
            <text
               style="fill: #4c4c4c; font: 200 10px 'Helvetica', sans-serif; text-anchor: end"
               x="36.44375"
               y="89.279444"
               transform="rotate(-0 36.44375 89.279444)"
               id="text216">0.0</text>
          </g>
        </g>
        <g
           id="ytick_2">
          <g
             id="line2d_8">
            <g
               id="g222">
              <use
                 xlink:href="#m6d095bcc67"
                 x="43.44375"
                 y="50.556351"
                 style="fill: #4c4c4c; stroke: #4c4c4c; stroke-width: 0.8"
                 id="use220" />
            </g>
          </g>
          <g
             id="text_9">
            <text
               style="fill: #4c4c4c; font: 200 10px 'Helvetica', sans-serif; text-anchor: end"
               x="36.44375"
               y="54.14307"
               transform="rotate(-0 36.44375 54.14307)"
               id="text225">0.5</text>
          </g>
        </g>
        <g
           id="ytick_3">
          <g
             id="line2d_9">
            <g
               id="g231">
              <use
                 xlink:href="#m6d095bcc67"
                 x="43.44375"
                 y="15.419977"
                 style="fill: #4c4c4c; stroke: #4c4c4c; stroke-width: 0.8"
                 id="use229" />
            </g>
          </g>
          <g
             id="text_10">
            <text
               style="fill: #4c4c4c; font: 200 10px 'Helvetica', sans-serif; text-anchor: end"
               x="36.44375"
               y="19.006695"
               transform="rotate(-0 36.44375 19.006695)"
               id="text234">1.0</text>
          </g>
        </g>
        <g
           id="text_11">
          <text
             style="font: 12px 'Helvetica', sans-serif; text-anchor: middle"
             x="16.0425"
             y="49.96"
             transform="rotate(-90 16.0425 49.96)"
             id="text238">Speed</text>
        </g>
      </g>
      <g
         id="line2d_10">
        <path
           d="M 61.7125 85.692725  L 100.820395 85.593584  L 103.613816 85.3754  L 105.476096 85.055491  L 107.338377 84.490843  L 109.200658 83.563642  L 110.131798 82.924851  L 111.062939 82.150371  L 112.925219 80.157189  L 114.7875 77.568241  L 116.649781 74.493165  L 120.374342 68.059195  L 121.305482 66.698253  L 122.236623 65.549059  L 123.167763 64.659608  L 124.098904 64.066526  L 125.030044 63.791214  L 125.961184 63.836508  L 126.892325 64.18408  L 127.823465 64.79279  L 129.685746 66.514479  L 131.548026 68.250161  L 132.479167 68.837016  L 133.410307 69.093091  L 134.341447 68.942505  L 135.272588 68.354401  L 136.203728 67.3564  L 138.066009 64.563232  L 138.997149 63.122884  L 139.928289 61.940601  L 140.85943 61.223522  L 141.79057 61.131847  L 142.721711 61.751912  L 143.652851 63.082149  L 144.583991 65.035075  L 146.446272 70.144185  L 148.308553 75.536749  L 149.239693 77.916229  L 150.170833 79.950243  L 151.101974 81.603735  L 152.033114 82.885373  L 152.964254 83.834418  L 153.895395 84.506786  L 154.826535 84.96306  L 156.688816 85.445213  L 158.551096 85.620179  L 163.206798 85.69057  L 168.79364 85.598001  L 170.655921 85.285957  L 171.587061 84.909822  L 172.518202 84.258319  L 173.449342 83.191004  L 174.380482 81.539282  L 175.311623 79.128549  L 176.242763 75.817324  L 177.173904 71.550041  L 179.036184 60.672353  L 180.898465 49.34594  L 181.829605 45.005695  L 182.760746 42.33679  L 183.691886 41.713892  L 184.623026 43.226718  L 185.554167 46.658844  L 186.485307 51.538485  L 189.278728 68.668432  L 190.209868 73.461133  L 191.141009 77.327055  L 192.072149 80.246128  L 193.003289 82.317012  L 193.93443 83.700897  L 194.86557 84.573574  L 195.796711 85.09342  L 196.727851 85.385904  L 198.590132 85.616879  L 201.383553 85.650173  L 204.176974 85.537565  L 206.039254 85.32546  L 207.901535 84.876608  L 208.832675 84.505129  L 209.763816 83.992112  L 210.694956 83.296302  L 211.626096 82.369661  L 212.557237 81.158293  L 213.488377 79.604343  L 214.419518 77.649017  L 215.350658 75.236833  L 216.281798 72.321054  L 217.212939 68.870074  L 218.144079 64.87434  L 220.00636 55.360572  L 222.799781 38.679204  L 224.662061 27.89233  L 225.593202 23.249327  L 226.524342 19.402228  L 227.455482 16.543681  L 228.386623 14.823547  L 229.317763 14.335702  L 230.248904 15.109399  L 231.180044 17.106315  L 232.111184 20.2237  L 233.042325 24.303271  L 234.904605 34.522448  L 238.629167 56.940452  L 240.491447 66.285251  L 241.422588 70.153654  L 242.353728 73.459477  L 243.284868 76.21989  L 244.216009 78.472748  L 245.147149 80.268948  L 246.078289 81.665423  L 247.00943 82.719241  L 247.94057 83.482993  L 248.871711 84.001491  L 249.802851 84.309691  L 250.733991 84.43167  L 251.665132 84.38051  L 252.596272 84.158941  L 253.527412 83.760635  L 254.458553 83.172091  L 255.389693 82.375019  L 256.320833 81.349121  L 257.251974 80.07513  L 258.183114 78.537865  L 259.114254 76.729042  L 260.976535 72.310693  L 262.838816 66.95461  L 265.632237 57.825443  L 268.425658 48.579035  L 270.287939 43.043823  L 271.219079 40.626392  L 272.150219 38.520956  L 273.08136 36.790921  L 274.0125 35.501363  L 274.94364 34.715324  L 275.874781 34.488534  L 276.805921 34.86321  L 277.737061 35.861838  L 278.668202 37.481999  L 279.599342 39.693179  L 280.530482 42.436262  L 282.392763 49.156021  L 287.048465 67.716873  L 288.910746 73.698229  L 289.841886 76.15224  L 290.773026 78.238715  L 291.704167 79.972621  L 292.635307 81.381676  L 293.566447 82.501895  L 294.497588 83.373477  L 295.428728 84.037341  L 296.359868 84.532489  L 298.222149 85.153097  L 300.08443 85.459412  L 302.877851 85.63489  L 309.395833 85.692725  L 327.0875 85.692725  L 327.0875 85.692725  "
           clip-path="url(#pd0ccad0233)"
           style="fill: none; stroke: #000000; stroke-linecap: square"
           id="path242" />
      </g>
      <g
         id="line2d_11">
        <path
           d="M 105.476096 92.72  L 105.476096 7.2  "
           clip-path="url(#pd0ccad0233)"
           style="fill: none; stroke-dasharray: 5,2.5; stroke-dashoffset: 0; stroke: #000000; stroke-width: 0.5"
           id="path245" />
      </g>
      <g
         id="line2d_12">
        <path
           d="M 297.291009 92.72  L 297.291009 7.2  "
           clip-path="url(#pd0ccad0233)"
           style="fill: none; stroke-dasharray: 5,2.5; stroke-dashoffset: 0; stroke: #000000; stroke-width: 0.5"
           id="path248" />
      </g>
      <g
         id="line2d_13">
        <path
           d="M 61.7125 92.72  L 61.7125 7.2  "
           clip-path="url(#pd0ccad0233)"
           style="fill: none; stroke-dasharray: 0.5,0.825; stroke-dashoffset: 0; stroke: #000000; stroke-width: 0.5"
           id="path251" />
      </g>
      <g
         id="line2d_14">
        <path
           d="M 327.0875 92.72  L 327.0875 7.2  "
           clip-path="url(#pd0ccad0233)"
           style="fill: none; stroke-dasharray: 0.5,0.825; stroke-dashoffset: 0; stroke: #000000; stroke-width: 0.5"
           id="path254" />
      </g>
      <g
         id="patch_4">
        <path
           d="M 43.44375 92.72  L 43.44375 7.2  "
           style="fill: none; stroke: #7f7f7f; stroke-width: 0.8; stroke-linejoin: miter; stroke-linecap: square"
           id="path257" />
      </g>
      <g
         id="patch_5">
        <path
           d="M 48.44375 97.72  L 340.35625 97.72  "
           style="fill: none; stroke: #7f7f7f; stroke-width: 0.8; stroke-linejoin: miter; stroke-linecap: square"
           id="path260" />
      </g>
    </g>
  </g>
  <defs
     id="defs268">
    <clipPath
       id="pd0ccad0233">
      <rect
         x="48.44375"
         y="7.2"
         width="291.9125"
         height="85.52"
         id="rect265" />
    </clipPath>
  </defs>
  <g
     stroke="currentColor"
     fill="currentColor"
     stroke-width="0"
     transform="matrix(0.01357234,0,0,-0.01357234,101.8501,-32.626816)"
     id="g531">
    <g
       data-mml-node="math"
       id="g529">
      <g
         data-mml-node="msub"
         id="g527">
        <g
           data-mml-node="mi"
           id="g503">
          <path
             id="use501"
             d="m 26,385 q -7,7 -7,10 0,4 3,16 3,12 5,14 2,5 9,5 7,0 51,1 h 53 l 19,80 q 3,11 7,29 4,18 7,26 3,8 6,20 3,12 8,17 5,5 10,12 5,7 14,9 9,2 18,2 18,-1 25,-11 7,-10 7,-19 0,-7 -9,-47 -9,-40 -20,-79 l -10,-37 q 0,-2 50,-2 h 51 q 7,-7 7,-11 0,-22 -13,-35 H 210 L 174,240 Q 135,80 135,68 q 0,-42 27,-42 35,0 68,34 33,34 53,84 2,6 5,7 3,1 15,2 h 4 q 15,0 15,-8 0,-3 -3,-12 Q 314,117 301,95 288,73 267,48 246,23 216,6 186,-11 155,-11 125,-11 98,4 71,19 59,56 57,64 57,83 v 18 l 35,140 q 35,141 36,142 0,2 -51,2 z" />
        </g>
        <g
           data-mml-node="TeXAtom"
           transform="matrix(0.707,0,0,0.707,394,-150)"
           data-mjx-texclass="ORD"
           id="g525">
          <g
             data-mml-node="mi"
             id="g507">
            <path
               id="use505"
               d="m 131,289 q 0,32 16,65 16,33 56,61 40,28 97,27 62,0 90,-27 28,-27 29,-60 0,-32 -17,-47 -17,-15 -38,-16 -13,0 -24,8 -11,8 -12,26 0,16 9,28 9,12 17,18 8,6 13,6 1,0 1,1 0,3 -7,9 -7,6 -25,11 -18,5 -39,6 -48,0 -70,-26 -22,-26 -23,-53 0,-25 19,-35 19,-10 55,-17 36,-7 52,-15 66,-29 66,-96 0,-28 -11,-56 Q 374,79 352,51 330,23 289,7 248,-9 195,-10 118,-10 86,19 54,48 53,87 q 0,39 21,56 21,17 44,17 15,0 28,-9 13,-9 14,-31 0,-26 -18,-44 -18,-18 -31,-18 -2,-1 -3,-1 -1,0 -1,-2 1,-3 8,-8 7,-5 31,-13 24,-8 55,-7 36,0 62,11 26,11 38,28 12,17 17,31 5,14 5,25 0,28 -21,42 -21,14 -48,17 -27,3 -59,15 -32,12 -47,35 -17,25 -17,58 z" />
          </g>
          <g
             data-mml-node="mi"
             transform="translate(469)"
             id="g511">
            <path
               id="use509"
               d="m 26,385 q -7,7 -7,10 0,4 3,16 3,12 5,14 2,5 9,5 7,0 51,1 h 53 l 19,80 q 3,11 7,29 4,18 7,26 3,8 6,20 3,12 8,17 5,5 10,12 5,7 14,9 9,2 18,2 18,-1 25,-11 7,-10 7,-19 0,-7 -9,-47 -9,-40 -20,-79 l -10,-37 q 0,-2 50,-2 h 51 q 7,-7 7,-11 0,-22 -13,-35 H 210 L 174,240 Q 135,80 135,68 q 0,-42 27,-42 35,0 68,34 33,34 53,84 2,6 5,7 3,1 15,2 h 4 q 15,0 15,-8 0,-3 -3,-12 Q 314,117 301,95 288,73 267,48 246,23 216,6 186,-11 155,-11 125,-11 98,4 71,19 59,56 57,64 57,83 v 18 l 35,140 q 35,141 36,142 0,2 -51,2 z" />
          </g>
          <g
             data-mml-node="mi"
             transform="translate(830)"
             id="g515">
            <path
               id="use513"
               d="m 33,157 q 0,101 76,192 76,91 171,92 51,0 90,-49 16,30 46,30 13,0 23,-8 10,-8 10,-20 0,-13 -37,-160 -37,-147 -38,-166 0,-25 7,-33 7,-8 21,-9 9,1 20,9 21,20 41,96 6,20 10,21 2,1 10,1 h 4 q 19,0 19,-9 0,-6 -5,-27 Q 496,96 481,63 466,30 449,13 436,0 417,-8 q -8,-2 -24,-2 -34,0 -57,15 -23,15 -30,31 l -6,15 q -1,1 -4,-1 -2,-2 -4,-4 -59,-56 -120,-56 -55,0 -97,40 -42,40 -42,127 z m 318,171 q 0,6 -5,22 -5,16 -23,35 -18,19 -46,20 -35,0 -67,-31 -32,-31 -50,-81 -29,-79 -41,-164 0,-3 0,-11 0,-8 -1,-12 0,-45 18,-62 18,-17 43,-18 38,0 75,33 37,33 44,51 2,4 27,107 25,103 26,111 z" />
          </g>
          <g
             data-mml-node="mi"
             transform="translate(1359)"
             id="g519">
            <path
               id="use517"
               d="m 21,287 q 1,3 2,8 1,5 5,22 4,17 10,31 6,14 15,33 9,19 20,30 11,11 26,22 15,11 33,9 29,0 51,-12 22,-12 31,-22 9,-10 11,-20 2,-6 3,-6 1,0 8,7 48,52 111,52 h 3 q 48,0 72,-41 8,-19 8,-37 0,-30 -13,-48 -13,-18 -26,-23 -13,-5 -25,-4 -20,0 -32,11 -12,11 -12,29 0,48 56,64 -22,13 -36,13 -56,0 -103,-74 Q 229,315 224,298 219,281 190,165 156,25 151,16 138,-11 108,-11 95,-11 87,-5 79,1 76,7 q -3,6 -2,10 0,13 40,172 40,159 40,177 0,39 -26,39 -21,0 -36,-28 Q 77,349 68,316 59,283 57,280 55,278 41,278 H 27 q -6,6 -6,9 z" />
          </g>
          <g
             data-mml-node="mi"
             transform="translate(1810)"
             id="g523">
            <path
               id="use521"
               d="m 26,385 q -7,7 -7,10 0,4 3,16 3,12 5,14 2,5 9,5 7,0 51,1 h 53 l 19,80 q 3,11 7,29 4,18 7,26 3,8 6,20 3,12 8,17 5,5 10,12 5,7 14,9 9,2 18,2 18,-1 25,-11 7,-10 7,-19 0,-7 -9,-47 -9,-40 -20,-79 l -10,-37 q 0,-2 50,-2 h 51 q 7,-7 7,-11 0,-22 -13,-35 H 210 L 174,240 Q 135,80 135,68 q 0,-42 27,-42 35,0 68,34 33,34 53,84 2,6 5,7 3,1 15,2 h 4 q 15,0 15,-8 0,-3 -3,-12 Q 314,117 301,95 288,73 267,48 246,23 216,6 186,-11 155,-11 125,-11 98,4 71,19 59,56 57,64 57,83 v 18 l 35,140 q 35,141 36,142 0,2 -51,2 z" />
          </g>
        </g>
      </g>
    </g>
  </g>
</svg>
