<?xml version="1.0" encoding="UTF-8" standalone="no"?>
<svg
   width="337.21744pt"
   height="74.822273pt"
   viewBox="0 0 337.21743 74.822274"
   version="1.1"
   id="svg276"
   sodipodi:docname="duration_demo copy.svg"
   inkscape:version="1.2 (dc2aeda, 2022-05-15)"
   xmlns:inkscape="http://www.inkscape.org/namespaces/inkscape"
   xmlns:sodipodi="http://sodipodi.sourceforge.net/DTD/sodipodi-0.dtd"
   xmlns="http://www.w3.org/2000/svg"
   xmlns:svg="http://www.w3.org/2000/svg"
   xmlns:rdf="http://www.w3.org/1999/02/22-rdf-syntax-ns#"
   xmlns:cc="http://creativecommons.org/ns#"
   xmlns:dc="http://purl.org/dc/elements/1.1/">
  <sodipodi:namedview
     id="namedview278"
     pagecolor="#ffffff"
     bordercolor="#000000"
     borderopacity="0.25"
     inkscape:showpageshadow="2"
     inkscape:pageopacity="0.0"
     inkscape:pagecheckerboard="0"
     inkscape:deskcolor="#d1d1d1"
     inkscape:document-units="pt"
     showgrid="false"
     inkscape:zoom="1.2967978"
     inkscape:cx="197.7949"
     inkscape:cy="73.257372"
     inkscape:window-width="1680"
     inkscape:window-height="928"
     inkscape:window-x="0"
     inkscape:window-y="25"
     inkscape:window-maximized="1"
     inkscape:current-layer="figure_1" />
  <metadata
     id="metadata132">
    <rdf:RDF>
      <cc:Work>
        <dc:type
           rdf:resource="http://purl.org/dc/dcmitype/StillImage" />
        <dc:date>2024-05-28T12:37:35.146588</dc:date>
        <dc:format>image/svg+xml</dc:format>
        <dc:creator>
          <cc:Agent>
            <dc:title>Matplotlib v3.8.2, https://matplotlib.org/</dc:title>
          </cc:Agent>
        </dc:creator>
      </cc:Work>
    </rdf:RDF>
  </metadata>
  <defs
     id="defs136">
    <style
       type="text/css"
       id="style134">*{stroke-linejoin: round; stroke-linecap: butt}</style>
  </defs>
  <g
     id="figure_1"
     transform="translate(-64.630415,-13.485877)">
    <g
       id="line2d_10">
      <path
         d="m 65.238864,87.612093 1.577006,-0.404029 1.577006,-0.659194 1.577006,0.837827 1.577006,-2.162251 1.577006,2.115292 1.577005,0.120216 1.577006,-0.415052 1.577006,0.0896 1.577006,0.245784 1.577006,-0.348038 1.577006,0.664496 1.577006,-0.577 1.577006,0.529578 1.577006,-0.320698 1.577006,-1.757779 1.577006,2.148049 1.577006,-2.956229 1.577006,1.494778 1.577006,0.961792 1.577006,0.14903 1.577006,-0.120174 1.577006,-1.126928 3.154015,0.253189 1.577,-1.195284 1.57701,2.525664 1.57701,-1.777086 1.577,-0.555402 1.57701,2.293515 1.577,-1.154485 1.57701,0.07213 1.57701,0.186062 1.577,-1.285204 1.57701,1.54257 1.577,-0.781146 1.57701,-0.09407 1.57701,1.46915 1.577,-1.622188 1.57701,1.01924 1.577,0.03947 1.57701,-0.757926 1.577,0.613134 1.57701,-0.448969 1.57701,0.418491 1.577,0.0772 1.57701,-2.995414 1.577,2.237165 1.57701,0.157728 1.57701,-1.778252 1.577,0.389334 1.57701,-1.277958 1.577,-1.466917 1.57701,-1.069203 1.57701,-2.819373 1.577,0.0107 1.57701,-1.81645 1.577,-3.195821 1.57701,-1.069353 1.57701,-3.301077 1.577,-2.389542 3.15401,-5.265223 1.57701,-3.503031 1.57701,-1.770865 4.73101,-8.199073 1.57701,0.144959 1.57701,-0.24194 1.577,-0.520226 1.57701,1.30334 1.577,0.513124 1.57701,1.778341 1.57701,1.560228 1.577,1.364132 1.57701,3.915822 1.577,2.481504 1.57701,2.965933 1.57701,2.026637 1.577,2.373184 1.57701,4.259815 1.577,1.759988 1.57701,0.433841 1.57701,2.049855 1.577,4.281955 1.57701,0.761129 1.577,1.70458 1.57701,0.09284 1.577,1.691891 1.57701,1.147848 1.57701,-0.547908 1.577,0.982751 1.57701,-0.768847 1.577,1.540838 1.57701,-1.102697 1.57701,0.166696 1.577,0.572263 1.57701,-1.409443 1.577,-0.963153 1.57701,-0.738172 1.57701,-1.267799 1.577,-2.359946 1.57701,-2.146828 1.577,-3.275507 1.57701,-4.500416 1.57701,-5.193458 1.577,-1.81067 1.57701,-3.963559 1.577,-3.414242 1.57701,-2.344564 1.57701,-4.052174 1.577,-1.265388 1.57701,-3.594383 1.577,-2.635467 3.15402,-6.491901 1.577,-5.594955 1.57701,-1.677882 1.57701,-2.346074 1.577,-2.782378 1.57701,0.891283 1.577,-0.0065 1.57701,2.429722 1.577,1.461576 1.57701,4.73608 1.57701,3.382665 1.577,5.176454 1.57701,2.946223 1.577,5.112706 1.57701,2.347212 1.57701,4.411183 1.577,2.255198 1.57701,3.525812 1.577,1.285307 1.57701,1.848204 1.57701,-0.790355 1.577,1.437321 1.57701,-0.712304 3.15401,-4.359336 1.57701,-1.472138 1.577,-3.326244 1.57701,-4.932268 1.577,-6.04748 1.57701,-4.613794 3.15401,-10.091712 3.15401,-9.439407 1.57701,-3.161398 1.57701,-1.739801 1.577,-1.268454 1.57701,1.027935 1.577,1.85257 3.15402,5.36696 1.577,6.681467 1.57701,3.724439 1.577,7.208914 1.57701,3.32791 1.57701,6.895807 1.577,5.147679 1.57701,3.635236 1.577,6.54651 1.57701,2.763036 1.57701,4.799877 1.577,2.932826 1.57701,2.467179 1.577,1.238872 1.57701,2.782357 3.15401,0.258378 1.57701,1.984773 3.15401,2.130309 1.57701,-2.447961 1.577,1.905793 1.57701,1.060002 3.15401,-0.15054 1.577,0.402642 1.57701,-0.196079 1.57701,-0.743015 1.577,0.910468 1.57701,-1.115353 1.57701,0.801198 1.577,0.282286 1.57701,0.116419 1.577,-0.100257 1.57701,-0.799564 1.577,0.448784 1.57701,-0.0955 3.15401,-0.508443 1.57701,-0.531157 1.57701,1.104551 1.577,0.517352 1.57701,-0.46879 1.577,0.631926 1.57701,-2.064324 1.577,1.87967 1.57701,-0.01529 1.57701,-0.453291 1.577,0.647967 1.57701,-0.537175 1.57701,-1.253161 1.577,0.769082 1.57701,-0.323331 1.577,0.137659 1.57701,-0.136745 1.577,-0.384449 1.57701,-0.134331 1.57701,1.685493 v 0"
         clip-path="url(#p42fe3b28e2)"
         style="fill:none;stroke:#000000;stroke-linecap:square"
         id="path242" />
    </g>
  </g>
  <defs
     id="defs274">
    <clipPath
       id="p42fe3b28e2">
      <rect
         x="48.443748"
         y="7.4028649"
         width="369.49249"
         height="85.519997"
         id="rect271" />
    </clipPath>
  </defs>
</svg>
