<?xml version="1.0" encoding="utf-8" standalone="no"?>
<!DOCTYPE svg PUBLIC "-//W3C//DTD SVG 1.1//EN"
  "http://www.w3.org/Graphics/SVG/1.1/DTD/svg11.dtd">
<svg xmlns:xlink="http://www.w3.org/1999/xlink" width="352.987187pt" height="136.287188pt" viewBox="0 0 352.987187 136.287188" xmlns="http://www.w3.org/2000/svg" version="1.1">
 <metadata>
  <rdf:RDF xmlns:dc="http://purl.org/dc/elements/1.1/" xmlns:cc="http://creativecommons.org/ns#" xmlns:rdf="http://www.w3.org/1999/02/22-rdf-syntax-ns#">
   <cc:Work>
    <dc:type rdf:resource="http://purl.org/dc/dcmitype/StillImage"/>
    <dc:date>2025-11-28T21:13:32.178315</dc:date>
    <dc:format>image/svg+xml</dc:format>
    <dc:creator>
     <cc:Agent>
      <dc:title>Matplotlib v3.8.2, https://matplotlib.org/</dc:title>
     </cc:Agent>
    </dc:creator>
   </cc:Work>
  </rdf:RDF>
 </metadata>
 <defs>
  <style type="text/css">*{stroke-linejoin: round; stroke-linecap: butt}</style>
 </defs>
 <g id="figure_1">
  <g id="patch_1">
   <path d="M -0 136.287188 
L 352.987187 136.287188 
L 352.987187 0 
L -0 0 
z
" style="fill: #ffffff"/>
  </g>
  <g id="axes_1">
   <g id="patch_2">
    <path d="M 40.104688 92.72 
L 345.787188 92.72 
L 345.787188 7.2 
L 40.104688 7.2 
z
" style="fill: #ffffff"/>
   </g>
   <g id="patch_3">
    <path d="M 53.999347 241.504438 
L 55.186924 241.504438 
L 56.374502 241.504438 
L 57.56208 241.504438 
L 58.749657 241.504438 
L 59.937235 241.504438 
L 61.124813 241.504438 
L 62.31239 241.504438 
L 63.499968 241.504438 
L 64.687546 241.504438 
L 65.875124 241.504438 
L 67.062701 241.504438 
L 68.250279 241.504438 
L 69.437857 241.504438 
L 70.625434 241.504438 
L 71.813012 241.504438 
L 73.00059 241.504438 
L 74.188167 241.504438 
L 75.375745 241.504438 
L 76.563323 241.504438 
L 77.750901 241.504438 
L 78.938478 241.504438 
L 80.126056 241.504438 
L 81.313634 241.504438 
L 82.501211 241.504438 
L 83.688789 241.504438 
L 84.876367 241.504438 
L 86.063944 241.504438 
L 87.251522 241.504438 
L 88.4391 241.504438 
L 89.626678 241.504438 
L 90.814255 241.504438 
L 92.001833 241.504438 
L 93.189411 241.504438 
L 94.376988 241.504438 
L 95.564566 241.504438 
L 96.752144 241.504438 
L 97.939721 241.504438 
L 99.127299 241.504438 
L 100.314877 241.504438 
L 101.502455 241.504438 
L 102.690032 241.504438 
L 103.87761 241.504438 
L 105.065188 241.504438 
L 106.252765 241.504438 
L 107.440343 241.504438 
L 108.627921 -62.137272 
L 109.815498 -62.137272 
L 111.003076 -62.137272 
L 112.190654 -62.137272 
L 113.378232 -62.137272 
L 114.565809 -62.137272 
L 115.753387 -62.137272 
L 116.940965 -62.137272 
L 118.128542 -62.137272 
L 119.31612 -62.137272 
L 120.503698 -62.137272 
L 121.691275 -62.137272 
L 122.878853 -62.137272 
L 124.066431 -62.137272 
L 125.254009 -62.137272 
L 126.441586 -62.137272 
L 127.629164 -62.137272 
L 128.816742 -62.137272 
L 130.004319 -62.137272 
L 131.191897 -62.137272 
L 132.379475 -62.137272 
L 133.567052 -62.137272 
L 134.75463 -62.137272 
L 135.942208 -62.137272 
L 137.129786 -62.137272 
L 138.317363 -62.137272 
L 139.504941 -62.137272 
L 140.692519 -62.137272 
L 141.880096 -62.137272 
L 143.067674 -62.137272 
L 144.255252 -62.137272 
L 145.442829 -62.137272 
L 146.630407 -62.137272 
L 147.817985 -62.137272 
L 149.005563 -62.137272 
L 150.19314 -62.137272 
L 151.380718 -62.137272 
L 152.568296 -62.137272 
L 153.755873 -62.137272 
L 154.943451 -62.137272 
L 156.131029 -62.137272 
L 157.318606 -62.137272 
L 158.506184 -62.137272 
L 159.693762 -62.137272 
L 160.88134 -62.137272 
L 162.068917 -62.137272 
L 163.256495 -62.137272 
L 164.444073 -62.137272 
L 165.63165 -62.137272 
L 166.819228 -62.137272 
L 168.006806 -62.137272 
L 169.194383 -62.137272 
L 170.381961 -62.137272 
L 171.569539 -62.137272 
L 172.757117 -62.137272 
L 173.944694 -62.137272 
L 175.132272 -62.137272 
L 176.31985 -62.137272 
L 177.507427 -62.137272 
L 178.695005 -62.137272 
L 179.882583 -62.137272 
L 181.07016 -62.137272 
L 182.257738 -62.137272 
L 183.445316 -62.137272 
L 184.632894 -62.137272 
L 185.820471 -62.137272 
L 187.008049 -62.137272 
L 188.195627 -62.137272 
L 189.383204 241.504438 
L 190.570782 241.504438 
L 191.75836 241.504438 
L 192.945938 241.504438 
L 194.133515 241.504438 
L 195.321093 -62.137272 
L 196.508671 -62.137272 
L 197.696248 -62.137272 
L 198.883826 -62.137272 
L 200.071404 -62.137272 
L 201.258981 -62.137272 
L 202.446559 -62.137272 
L 203.634137 -62.137272 
L 204.821715 -62.137272 
L 206.009292 -62.137272 
L 207.19687 -62.137272 
L 208.384448 -62.137272 
L 209.572025 -62.137272 
L 210.759603 -62.137272 
L 211.947181 -62.137272 
L 213.134758 -62.137272 
L 214.322336 -62.137272 
L 215.509914 -62.137272 
L 216.697492 -62.137272 
L 217.885069 -62.137272 
L 219.072647 -62.137272 
L 220.260225 -62.137272 
L 221.447802 -62.137272 
L 222.63538 -62.137272 
L 223.822958 -62.137272 
L 225.010535 -62.137272 
L 226.198113 -62.137272 
L 227.385691 -62.137272 
L 228.573269 -62.137272 
L 229.760846 -62.137272 
L 230.948424 -62.137272 
L 232.136002 -62.137272 
L 233.323579 -62.137272 
L 234.511157 -62.137272 
L 235.698735 -62.137272 
L 236.886312 -62.137272 
L 238.07389 -62.137272 
L 239.261468 -62.137272 
L 240.449046 241.504438 
L 241.636623 241.504438 
L 242.824201 241.504438 
L 244.011779 241.504438 
L 245.199356 241.504438 
L 246.386934 241.504438 
L 247.574512 241.504438 
L 248.762089 -62.137272 
L 249.949667 -62.137272 
L 251.137245 -62.137272 
L 252.324823 -62.137272 
L 253.5124 -62.137272 
L 254.699978 -62.137272 
L 255.887556 -62.137272 
L 257.075133 -62.137272 
L 258.262711 -62.137272 
L 259.450289 -62.137272 
L 260.637866 -62.137272 
L 261.825444 -62.137272 
L 263.013022 -62.137272 
L 264.2006 -62.137272 
L 265.388177 -62.137272 
L 266.575755 -62.137272 
L 267.763333 -62.137272 
L 268.95091 -62.137272 
L 270.138488 -62.137272 
L 271.326066 -62.137272 
L 272.513643 -62.137272 
L 273.701221 -62.137272 
L 274.888799 -62.137272 
L 276.076377 -62.137272 
L 277.263954 -62.137272 
L 278.451532 -62.137272 
L 279.63911 -62.137272 
L 280.826687 -62.137272 
L 282.014265 -62.137272 
L 283.201843 -62.137272 
L 284.38942 -62.137272 
L 285.576998 -62.137272 
L 286.764576 -62.137272 
L 287.952154 -62.137272 
L 289.139731 241.504438 
L 290.327309 241.504438 
L 291.514887 241.504438 
L 292.702464 241.504438 
L 293.890042 241.504438 
L 295.07762 241.504438 
L 296.265197 241.504438 
L 297.452775 241.504438 
L 298.640353 241.504438 
L 299.827931 241.504438 
L 301.015508 241.504438 
L 302.203086 241.504438 
L 303.390664 241.504438 
L 304.578241 241.504438 
L 305.765819 241.504438 
L 306.953397 241.504438 
L 308.140974 241.504438 
L 309.328552 241.504438 
L 310.51613 241.504438 
L 311.703708 241.504438 
L 312.891285 241.504438 
L 314.078863 241.504438 
L 315.266441 241.504438 
L 316.454018 241.504438 
L 317.641596 241.504438 
L 318.829174 241.504438 
L 320.016751 241.504438 
L 321.204329 241.504438 
L 322.391907 241.504438 
L 323.579485 241.504438 
L 324.767062 241.504438 
L 325.95464 241.504438 
L 327.142218 241.504438 
L 328.329795 241.504438 
L 329.517373 241.504438 
L 330.704951 241.504438 
L 331.892528 241.504438 
z
" clip-path="url(#pc9f8320c0a)" style="fill: #d62728; opacity: 0.1"/>
   </g>
   <g id="matplotlib.axis_1">
    <g id="xtick_1">
     <g id="line2d_1">
      <defs>
       <path id="mc67b8b65a9" d="M 0 0 
L 0 3.5 
" style="stroke: #4c4c4c; stroke-width: 0.8"/>
      </defs>
      <g>
       <use xlink:href="#mc67b8b65a9" x="53.999347" y="97.72" style="fill: #4c4c4c; stroke: #4c4c4c; stroke-width: 0.8"/>
      </g>
     </g>
     <g id="text_1">
      <text style="fill: #4c4c4c; font: 200 10px 'Helvetica', sans-serif; text-anchor: middle" x="53.999347" y="111.893438" transform="rotate(-0 53.999347 111.893438)">0.0</text>
     </g>
    </g>
    <g id="xtick_2">
     <g id="line2d_2">
      <g>
       <use xlink:href="#mc67b8b65a9" x="113.378232" y="97.72" style="fill: #4c4c4c; stroke: #4c4c4c; stroke-width: 0.8"/>
      </g>
     </g>
     <g id="text_2">
      <text style="fill: #4c4c4c; font: 200 10px 'Helvetica', sans-serif; text-anchor: middle" x="113.378232" y="111.893438" transform="rotate(-0 113.378232 111.893438)">0.5</text>
     </g>
    </g>
    <g id="xtick_3">
     <g id="line2d_3">
      <g>
       <use xlink:href="#mc67b8b65a9" x="172.757117" y="97.72" style="fill: #4c4c4c; stroke: #4c4c4c; stroke-width: 0.8"/>
      </g>
     </g>
     <g id="text_3">
      <text style="fill: #4c4c4c; font: 200 10px 'Helvetica', sans-serif; text-anchor: middle" x="172.757117" y="111.893438" transform="rotate(-0 172.757117 111.893438)">1.0</text>
     </g>
    </g>
    <g id="xtick_4">
     <g id="line2d_4">
      <g>
       <use xlink:href="#mc67b8b65a9" x="232.136002" y="97.72" style="fill: #4c4c4c; stroke: #4c4c4c; stroke-width: 0.8"/>
      </g>
     </g>
     <g id="text_4">
      <text style="fill: #4c4c4c; font: 200 10px 'Helvetica', sans-serif; text-anchor: middle" x="232.136002" y="111.893438" transform="rotate(-0 232.136002 111.893438)">1.5</text>
     </g>
    </g>
    <g id="xtick_5">
     <g id="line2d_5">
      <g>
       <use xlink:href="#mc67b8b65a9" x="291.514887" y="97.72" style="fill: #4c4c4c; stroke: #4c4c4c; stroke-width: 0.8"/>
      </g>
     </g>
     <g id="text_5">
      <text style="fill: #4c4c4c; font: 200 10px 'Helvetica', sans-serif; text-anchor: middle" x="291.514887" y="111.893438" transform="rotate(-0 291.514887 111.893438)">2.0</text>
     </g>
    </g>
    <g id="text_6">
     <text style="font: 12px 'Helvetica', sans-serif; text-anchor: middle" x="192.945938" y="126.585938" transform="rotate(-0 192.945938 126.585938)">Time</text>
    </g>
   </g>
   <g id="matplotlib.axis_2">
    <g id="ytick_1">
     <g id="line2d_6">
      <defs>
       <path id="m2b6db073e0" d="M 0 0 
L -3.5 0 
" style="stroke: #4c4c4c; stroke-width: 0.8"/>
      </defs>
      <g>
       <use xlink:href="#m2b6db073e0" x="35.104688" y="89.683583" style="fill: #4c4c4c; stroke: #4c4c4c; stroke-width: 0.8"/>
      </g>
     </g>
     <g id="text_7">
      <text style="fill: #4c4c4c; font: 200 10px 'Helvetica', sans-serif; text-anchor: end" x="28.104688" y="93.270302" transform="rotate(-0 28.104688 93.270302)">0</text>
     </g>
    </g>
    <g id="ytick_2">
     <g id="line2d_7">
      <g>
       <use xlink:href="#m2b6db073e0" x="35.104688" y="59.319412" style="fill: #4c4c4c; stroke: #4c4c4c; stroke-width: 0.8"/>
      </g>
     </g>
     <g id="text_8">
      <text style="fill: #4c4c4c; font: 200 10px 'Helvetica', sans-serif; text-anchor: end" x="28.104688" y="62.906131" transform="rotate(-0 28.104688 62.906131)">1</text>
     </g>
    </g>
    <g id="ytick_3">
     <g id="line2d_8">
      <g>
       <use xlink:href="#m2b6db073e0" x="35.104688" y="28.955241" style="fill: #4c4c4c; stroke: #4c4c4c; stroke-width: 0.8"/>
      </g>
     </g>
     <g id="text_9">
      <text style="fill: #4c4c4c; font: 200 10px 'Helvetica', sans-serif; text-anchor: end" x="28.104688" y="32.54196" transform="rotate(-0 28.104688 32.54196)">2</text>
     </g>
    </g>
    <g id="text_10">
     <text style="font: 12px 'Helvetica', sans-serif; text-anchor: middle" x="16.0425" y="49.96" transform="rotate(-90 16.0425 49.96)">Speed</text>
    </g>
   </g>
   <g id="line2d_9">
    <path d="M 53.999347 89.683583 
L 105.065188 89.591632 
L 108.627921 89.375977 
L 111.003076 89.041872 
L 113.378232 88.41643 
L 114.565809 87.938875 
L 115.753387 87.313498 
L 116.940965 86.506808 
L 118.128542 85.481907 
L 119.31612 84.19952 
L 120.503698 82.619521 
L 121.691275 80.702983 
L 122.878853 78.41472 
L 124.066431 75.726245 
L 125.254009 72.619005 
L 126.441586 69.087689 
L 128.816742 60.816096 
L 131.191897 51.238897 
L 135.942208 31.14244 
L 137.129786 26.686053 
L 138.317363 22.750108 
L 139.504941 19.473963 
L 140.692519 16.980163 
L 141.880096 15.366451 
L 143.067674 14.698508 
L 144.255252 15.004088 
L 145.442829 16.269204 
L 146.630407 18.436971 
L 147.817985 21.409556 
L 149.005563 25.053417 
L 151.380718 33.694916 
L 154.943451 47.399077 
L 157.318606 55.331226 
L 158.506184 58.688994 
L 159.693762 61.620366 
L 160.88134 64.15196 
L 162.068917 66.335238 
L 164.444073 69.929543 
L 166.819228 72.952122 
L 172.757117 80.010057 
L 175.132272 82.615774 
L 177.507427 84.856837 
L 179.882583 86.615356 
L 182.257738 87.871973 
L 184.632894 88.689692 
L 187.008049 89.171847 
L 189.383204 89.420122 
L 192.945938 89.49613 
L 195.321093 89.363224 
L 197.696248 89.020217 
L 200.071404 88.352067 
L 201.258981 87.850685 
L 202.446559 87.213819 
L 203.634137 86.427545 
L 204.821715 85.484485 
L 207.19687 83.148214 
L 210.759603 78.936703 
L 213.134758 76.281654 
L 214.322336 75.206799 
L 215.509914 74.388504 
L 216.697492 73.878157 
L 217.885069 73.708781 
L 219.072647 73.891494 
L 220.260225 74.414304 
L 221.447802 75.243414 
L 222.63538 76.326831 
L 225.010535 78.991004 
L 228.573269 83.197745 
L 230.948424 85.523555 
L 232.136002 86.460849 
L 233.323579 87.241672 
L 234.511157 87.873833 
L 236.886312 88.753183 
L 239.261468 89.244114 
L 241.636623 89.485895 
L 245.199356 89.567535 
L 247.574512 89.436034 
L 249.949667 89.012811 
L 251.137245 88.606352 
L 252.324823 88.003283 
L 253.5124 87.143326 
L 254.699978 85.964204 
L 255.887556 84.410545 
L 257.075133 82.445664 
L 258.262711 80.064872 
L 259.450289 77.307985 
L 264.2006 65.147392 
L 265.388177 62.831537 
L 266.575755 61.232975 
L 267.763333 60.499258 
L 268.95091 60.700025 
L 270.138488 61.816105 
L 271.326066 63.742532 
L 272.513643 66.304826 
L 274.888799 72.45217 
L 277.263954 78.525333 
L 278.451532 81.12997 
L 279.63911 83.335435 
L 280.826687 85.122285 
L 282.014265 86.510556 
L 283.201843 87.546591 
L 284.38942 88.290182 
L 285.576998 88.803967 
L 286.764576 89.145989 
L 289.139731 89.501358 
L 292.702464 89.655372 
L 303.390664 89.683583 
L 331.892528 89.683583 
L 331.892528 89.683583 
" clip-path="url(#pc9f8320c0a)" style="fill: none; stroke: #000000; stroke-linecap: square"/>
   </g>
   <g id="line2d_10">
    <path d="M 107.440343 92.72 
L 107.440343 7.2 
" clip-path="url(#pc9f8320c0a)" style="fill: none; stroke-dasharray: 5,2.5; stroke-dashoffset: 0; stroke: #000000; stroke-width: 0.5"/>
   </g>
   <g id="line2d_11">
    <path d="M 287.952154 92.72 
L 287.952154 7.2 
" clip-path="url(#pc9f8320c0a)" style="fill: none; stroke-dasharray: 5,2.5; stroke-dashoffset: 0; stroke: #000000; stroke-width: 0.5"/>
   </g>
   <g id="line2d_12">
    <path d="M 53.999347 92.72 
L 53.999347 7.2 
" clip-path="url(#pc9f8320c0a)" style="fill: none; stroke-dasharray: 0.5,0.825; stroke-dashoffset: 0; stroke: #000000; stroke-width: 0.5"/>
   </g>
   <g id="line2d_13">
    <path d="M 331.892528 92.72 
L 331.892528 7.2 
" clip-path="url(#pc9f8320c0a)" style="fill: none; stroke-dasharray: 0.5,0.825; stroke-dashoffset: 0; stroke: #000000; stroke-width: 0.5"/>
   </g>
   <g id="patch_4">
    <path d="M 35.104688 92.72 
L 35.104688 7.2 
" style="fill: none; stroke: #7f7f7f; stroke-width: 0.8; stroke-linejoin: miter; stroke-linecap: square"/>
   </g>
   <g id="patch_5">
    <path d="M 40.104688 97.72 
L 345.787188 97.72 
" style="fill: none; stroke: #7f7f7f; stroke-width: 0.8; stroke-linejoin: miter; stroke-linecap: square"/>
   </g>
  </g>
 </g>
 <defs>
  <clipPath id="pc9f8320c0a">
   <rect x="40.104688" y="7.2" width="305.6825" height="85.52"/>
  </clipPath>
 </defs>
</svg>
