<?xml version="1.0" encoding="utf-8" standalone="no"?>
<!DOCTYPE svg PUBLIC "-//W3C//DTD SVG 1.1//EN"
  "http://www.w3.org/Graphics/SVG/1.1/DTD/svg11.dtd">
<svg xmlns:xlink="http://www.w3.org/1999/xlink" width="425.13625pt" height="136.490053pt" viewBox="0 0 425.13625 136.490053" xmlns="http://www.w3.org/2000/svg" version="1.1">
 <metadata>
  <rdf:RDF xmlns:dc="http://purl.org/dc/elements/1.1/" xmlns:cc="http://creativecommons.org/ns#" xmlns:rdf="http://www.w3.org/1999/02/22-rdf-syntax-ns#">
   <cc:Work>
    <dc:type rdf:resource="http://purl.org/dc/dcmitype/StillImage"/>
    <dc:date>2024-05-28T12:37:35.146588</dc:date>
    <dc:format>image/svg+xml</dc:format>
    <dc:creator>
     <cc:Agent>
      <dc:title>Matplotlib v3.8.2, https://matplotlib.org/</dc:title>
     </cc:Agent>
    </dc:creator>
   </cc:Work>
  </rdf:RDF>
 </metadata>
 <defs>
  <style type="text/css">*{stroke-linejoin: round; stroke-linecap: butt}</style>
 </defs>
 <g id="figure_1">
  <g id="patch_1">
   <path d="M 0 136.490053 
L 425.13625 136.490053 
L 425.13625 0 
L 0 0 
z
" style="fill: #ffffff"/>
  </g>
  <g id="axes_1">
   <g id="patch_2">
    <path d="M 48.44375 92.922865 
L 417.93625 92.922865 
L 417.93625 7.402865 
L 48.44375 7.402865 
z
" style="fill: #ffffff"/>
   </g>
   <g id="patch_3">
    <path d="M 65.238864 344.464814 
L 66.81587 344.464814 
L 68.392876 344.464814 
L 69.969882 344.464814 
L 71.546888 344.464814 
L 73.123894 344.464814 
L 74.700899 344.464814 
L 76.277905 344.464814 
L 77.854911 344.464814 
L 79.431917 344.464814 
L 81.008923 344.464814 
L 82.585929 344.464814 
L 84.162935 344.464814 
L 85.739941 344.464814 
L 87.316947 344.464814 
L 88.893953 344.464814 
L 90.470959 344.464814 
L 92.047965 344.464814 
L 93.624971 344.464814 
L 95.201977 344.464814 
L 96.778983 344.464814 
L 98.355989 344.464814 
L 99.932995 344.464814 
L 101.510001 344.464814 
L 103.087007 344.464814 
L 104.664013 344.464814 
L 106.241019 344.464814 
L 107.818025 344.464814 
L 109.395031 344.464814 
L 110.972037 344.464814 
L 112.549043 344.464814 
L 114.126049 344.464814 
L 115.703055 344.464814 
L 117.280061 344.464814 
L 118.857067 344.464814 
L 120.434073 344.464814 
L 122.011079 344.464814 
L 123.588085 344.464814 
L 125.165091 344.464814 
L 126.742097 344.464814 
L 128.319103 344.464814 
L 129.896109 344.464814 
L 131.473115 344.464814 
L 133.050121 344.464814 
L 134.627127 344.464814 
L 136.204133 344.464814 
L 137.781138 344.464814 
L 139.358144 344.464814 
L 140.93515 344.464814 
L 142.512156 344.464814 
L 144.089162 344.464814 
L 145.666168 344.464814 
L 147.243174 344.464814 
L 148.82018 -168.886102 
L 150.397186 -168.886102 
L 151.974192 -168.886102 
L 153.551198 -168.886102 
L 155.128204 -168.886102 
L 156.70521 -168.886102 
L 158.282216 -168.886102 
L 159.859222 -168.886102 
L 161.436228 -168.886102 
L 163.013234 -168.886102 
L 164.59024 -168.886102 
L 166.167246 -168.886102 
L 167.744252 -168.886102 
L 169.321258 -168.886102 
L 170.898264 -168.886102 
L 172.47527 -168.886102 
L 174.052276 -168.886102 
L 175.629282 -168.886102 
L 177.206288 -168.886102 
L 178.783294 -168.886102 
L 180.3603 -168.886102 
L 181.937306 -168.886102 
L 183.514312 -168.886102 
L 185.091318 -168.886102 
L 186.668324 -168.886102 
L 188.24533 -168.886102 
L 189.822336 -168.886102 
L 191.399342 -168.886102 
L 192.976348 -168.886102 
L 194.553354 -168.886102 
L 196.13036 -168.886102 
L 197.707366 -168.886102 
L 199.284372 -168.886102 
L 200.861378 -168.886102 
L 202.438383 344.464814 
L 204.015389 344.464814 
L 205.592395 344.464814 
L 207.169401 344.464814 
L 208.746407 344.464814 
L 210.323413 344.464814 
L 211.900419 344.464814 
L 213.477425 344.464814 
L 215.054431 344.464814 
L 216.631437 344.464814 
L 218.208443 344.464814 
L 219.785449 344.464814 
L 221.362455 344.464814 
L 222.939461 344.464814 
L 224.516467 344.464814 
L 226.093473 -168.886102 
L 227.670479 -168.886102 
L 229.247485 -168.886102 
L 230.824491 -168.886102 
L 232.401497 -168.886102 
L 233.978503 -168.886102 
L 235.555509 -168.886102 
L 237.132515 -168.886102 
L 238.709521 -168.886102 
L 240.286527 -168.886102 
L 241.863533 -168.886102 
L 243.440539 -168.886102 
L 245.017545 -168.886102 
L 246.594551 -168.886102 
L 248.171557 -168.886102 
L 249.748563 -168.886102 
L 251.325569 -168.886102 
L 252.902575 -168.886102 
L 254.479581 -168.886102 
L 256.056587 -168.886102 
L 257.633593 -168.886102 
L 259.210599 -168.886102 
L 260.787605 -168.886102 
L 262.364611 -168.886102 
L 263.941617 -168.886102 
L 265.518622 -168.886102 
L 267.095628 -168.886102 
L 268.672634 -168.886102 
L 270.24964 -168.886102 
L 271.826646 -168.886102 
L 273.403652 -168.886102 
L 274.980658 -168.886102 
L 276.557664 -168.886102 
L 278.13467 -168.886102 
L 279.711676 -168.886102 
L 281.288682 -168.886102 
L 282.865688 -168.886102 
L 284.442694 -168.886102 
L 286.0197 -168.886102 
L 287.596706 -168.886102 
L 289.173712 -168.886102 
L 290.750718 -168.886102 
L 292.327724 -168.886102 
L 293.90473 -168.886102 
L 295.481736 -168.886102 
L 297.058742 -168.886102 
L 298.635748 -168.886102 
L 300.212754 -168.886102 
L 301.78976 -168.886102 
L 303.366766 -168.886102 
L 304.943772 -168.886102 
L 306.520778 -168.886102 
L 308.097784 -168.886102 
L 309.67479 -168.886102 
L 311.251796 -168.886102 
L 312.828802 -168.886102 
L 314.405808 -168.886102 
L 315.982814 -168.886102 
L 317.55982 -168.886102 
L 319.136826 -168.886102 
L 320.713832 -168.886102 
L 322.290838 -168.886102 
L 323.867844 -168.886102 
L 325.44485 -168.886102 
L 327.021856 -168.886102 
L 328.598862 -168.886102 
L 330.175867 -168.886102 
L 331.752873 -168.886102 
L 333.329879 -168.886102 
L 334.906885 344.464814 
L 336.483891 344.464814 
L 338.060897 344.464814 
L 339.637903 344.464814 
L 341.214909 344.464814 
L 342.791915 344.464814 
L 344.368921 344.464814 
L 345.945927 344.464814 
L 347.522933 344.464814 
L 349.099939 344.464814 
L 350.676945 344.464814 
L 352.253951 344.464814 
L 353.830957 344.464814 
L 355.407963 344.464814 
L 356.984969 344.464814 
L 358.561975 344.464814 
L 360.138981 344.464814 
L 361.715987 344.464814 
L 363.292993 344.464814 
L 364.869999 344.464814 
L 366.447005 344.464814 
L 368.024011 344.464814 
L 369.601017 344.464814 
L 371.178023 344.464814 
L 372.755029 344.464814 
L 374.332035 344.464814 
L 375.909041 344.464814 
L 377.486047 344.464814 
L 379.063053 344.464814 
L 380.640059 344.464814 
L 382.217065 344.464814 
L 383.794071 344.464814 
L 385.371077 344.464814 
L 386.948083 344.464814 
L 388.525089 344.464814 
L 390.102095 344.464814 
L 391.679101 344.464814 
L 393.256106 344.464814 
L 394.833112 344.464814 
L 396.410118 344.464814 
L 397.987124 344.464814 
L 399.56413 344.464814 
L 401.141136 344.464814 
z
" clip-path="url(#p42fe3b28e2)" style="fill: #d62728; opacity: 0.1"/>
   </g>
   <g id="matplotlib.axis_1">
    <g id="xtick_1">
     <g id="line2d_1">
      <defs>
       <path id="maba104eb3d" d="M 0 0 
L 0 3.5 
" style="stroke: #4c4c4c; stroke-width: 0.8"/>
      </defs>
      <g>
       <use xlink:href="#maba104eb3d" x="65.238864" y="97.922865" style="fill: #4c4c4c; stroke: #4c4c4c; stroke-width: 0.8"/>
      </g>
     </g>
     <g id="text_1">
      <text style="fill: #4c4c4c; font: 200 10px 'Helvetica', sans-serif; text-anchor: middle" x="65.238864" y="112.096303" transform="rotate(-0 65.238864 112.096303)">0.0</text>
     </g>
    </g>
    <g id="xtick_2">
     <g id="line2d_2">
      <g>
       <use xlink:href="#maba104eb3d" x="144.089162" y="97.922865" style="fill: #4c4c4c; stroke: #4c4c4c; stroke-width: 0.8"/>
      </g>
     </g>
     <g id="text_2">
      <text style="fill: #4c4c4c; font: 200 10px 'Helvetica', sans-serif; text-anchor: middle" x="144.089162" y="112.096303" transform="rotate(-0 144.089162 112.096303)">0.5</text>
     </g>
    </g>
    <g id="xtick_3">
     <g id="line2d_3">
      <g>
       <use xlink:href="#maba104eb3d" x="222.939461" y="97.922865" style="fill: #4c4c4c; stroke: #4c4c4c; stroke-width: 0.8"/>
      </g>
     </g>
     <g id="text_3">
      <text style="fill: #4c4c4c; font: 200 10px 'Helvetica', sans-serif; text-anchor: middle" x="222.939461" y="112.096303" transform="rotate(-0 222.939461 112.096303)">1.0</text>
     </g>
    </g>
    <g id="xtick_4">
     <g id="line2d_4">
      <g>
       <use xlink:href="#maba104eb3d" x="301.78976" y="97.922865" style="fill: #4c4c4c; stroke: #4c4c4c; stroke-width: 0.8"/>
      </g>
     </g>
     <g id="text_4">
      <text style="fill: #4c4c4c; font: 200 10px 'Helvetica', sans-serif; text-anchor: middle" x="301.78976" y="112.096303" transform="rotate(-0 301.78976 112.096303)">1.5</text>
     </g>
    </g>
    <g id="xtick_5">
     <g id="line2d_5">
      <g>
       <use xlink:href="#maba104eb3d" x="380.640059" y="97.922865" style="fill: #4c4c4c; stroke: #4c4c4c; stroke-width: 0.8"/>
      </g>
     </g>
     <g id="text_5">
      <text style="fill: #4c4c4c; font: 200 10px 'Helvetica', sans-serif; text-anchor: middle" x="380.640059" y="112.096303" transform="rotate(-0 380.640059 112.096303)">2.0</text>
     </g>
    </g>
    <g id="text_6">
     <text style="font: 12px 'Helvetica', sans-serif; text-anchor: middle" x="233.19" y="126.788803" transform="rotate(-0 233.19 126.788803)">Time</text>
    </g>
   </g>
   <g id="matplotlib.axis_2">
    <g id="ytick_1">
     <g id="line2d_6">
      <defs>
       <path id="macccce6b61" d="M 0 0 
L -3.5 0 
" style="stroke: #4c4c4c; stroke-width: 0.8"/>
      </defs>
      <g>
       <use xlink:href="#macccce6b61" x="43.44375" y="87.789356" style="fill: #4c4c4c; stroke: #4c4c4c; stroke-width: 0.8"/>
      </g>
     </g>
     <g id="text_7">
      <text style="fill: #4c4c4c; font: 200 10px 'Helvetica', sans-serif; text-anchor: end" x="36.44375" y="91.376075" transform="rotate(-0 36.44375 91.376075)">0.0</text>
     </g>
    </g>
    <g id="ytick_2">
     <g id="line2d_7">
      <g>
       <use xlink:href="#macccce6b61" x="43.44375" y="62.12181" style="fill: #4c4c4c; stroke: #4c4c4c; stroke-width: 0.8"/>
      </g>
     </g>
     <g id="text_8">
      <text style="fill: #4c4c4c; font: 200 10px 'Helvetica', sans-serif; text-anchor: end" x="36.44375" y="65.708529" transform="rotate(-0 36.44375 65.708529)">0.5</text>
     </g>
    </g>
    <g id="ytick_3">
     <g id="line2d_8">
      <g>
       <use xlink:href="#macccce6b61" x="43.44375" y="36.454265" style="fill: #4c4c4c; stroke: #4c4c4c; stroke-width: 0.8"/>
      </g>
     </g>
     <g id="text_9">
      <text style="fill: #4c4c4c; font: 200 10px 'Helvetica', sans-serif; text-anchor: end" x="36.44375" y="40.040983" transform="rotate(-0 36.44375 40.040983)">1.0</text>
     </g>
    </g>
    <g id="ytick_4">
     <g id="line2d_9">
      <g>
       <use xlink:href="#macccce6b61" x="43.44375" y="10.786719" style="fill: #4c4c4c; stroke: #4c4c4c; stroke-width: 0.8"/>
      </g>
     </g>
     <g id="text_10">
      <text style="fill: #4c4c4c; font: 200 10px 'Helvetica', sans-serif; text-anchor: end" x="36.44375" y="14.373438" transform="rotate(-0 36.44375 14.373438)">1.5</text>
     </g>
    </g>
    <g id="text_11">
     <text style="font: 12px 'Helvetica', sans-serif; text-anchor: middle" x="16.0425" y="50.162865" transform="rotate(-90 16.0425 50.162865)">Speed</text>
    </g>
   </g>
   <g id="line2d_10">
    <path d="M 65.238864 87.612093 
L 66.81587 87.208064 
L 68.392876 86.54887 
L 69.969882 87.386697 
L 71.546888 85.224446 
L 73.123894 87.339738 
L 74.700899 87.459954 
L 76.277905 87.044902 
L 77.854911 87.134503 
L 79.431917 87.380287 
L 81.008923 87.032249 
L 82.585929 87.696745 
L 84.162935 87.119745 
L 85.739941 87.649323 
L 87.316947 87.328625 
L 88.893953 85.570846 
L 90.470959 87.718895 
L 92.047965 84.762666 
L 93.624971 86.257444 
L 95.201977 87.219236 
L 96.778983 87.368266 
L 98.355989 87.248092 
L 99.932995 86.121164 
L 103.087007 86.374353 
L 104.664013 85.179069 
L 106.241019 87.704733 
L 107.818025 85.927647 
L 109.395031 85.372245 
L 110.972037 87.66576 
L 112.549043 86.511275 
L 114.126049 86.583405 
L 115.703055 86.769467 
L 117.280061 85.484263 
L 118.857067 87.026833 
L 120.434073 86.245687 
L 122.011079 86.151619 
L 123.588085 87.620769 
L 125.165091 85.998581 
L 126.742097 87.017821 
L 128.319103 87.057287 
L 129.896109 86.299361 
L 131.473115 86.912495 
L 133.050121 86.463526 
L 134.627127 86.882017 
L 136.204133 86.959215 
L 137.781138 83.963801 
L 139.358144 86.200966 
L 140.93515 86.358694 
L 142.512156 84.580442 
L 144.089162 84.969776 
L 145.666168 83.691818 
L 147.243174 82.224901 
L 148.82018 81.155698 
L 150.397186 78.336325 
L 151.974192 78.347027 
L 153.551198 76.530577 
L 155.128204 73.334756 
L 156.70521 72.265403 
L 158.282216 68.964326 
L 159.859222 66.574784 
L 163.013234 61.309561 
L 164.59024 57.80653 
L 166.167246 56.035665 
L 170.898264 47.836592 
L 172.47527 47.981551 
L 174.052276 47.739611 
L 175.629282 47.219385 
L 177.206288 48.522725 
L 178.783294 49.035849 
L 180.3603 50.81419 
L 181.937306 52.374418 
L 183.514312 53.73855 
L 185.091318 57.654372 
L 186.668324 60.135876 
L 188.24533 63.101809 
L 189.822336 65.128446 
L 191.399342 67.50163 
L 192.976348 71.761445 
L 194.553354 73.521433 
L 196.13036 73.955274 
L 197.707366 76.005129 
L 199.284372 80.287084 
L 200.861378 81.048213 
L 202.438383 82.752793 
L 204.015389 82.845638 
L 205.592395 84.537529 
L 207.169401 85.685377 
L 208.746407 85.137469 
L 210.323413 86.12022 
L 211.900419 85.351373 
L 213.477425 86.892211 
L 215.054431 85.789514 
L 216.631437 85.95621 
L 218.208443 86.528473 
L 219.785449 85.11903 
L 221.362455 84.155877 
L 222.939461 83.417705 
L 224.516467 82.149906 
L 226.093473 79.78996 
L 227.670479 77.643132 
L 229.247485 74.367625 
L 230.824491 69.867209 
L 232.401497 64.673751 
L 233.978503 62.863081 
L 235.555509 58.899522 
L 237.132515 55.48528 
L 238.709521 53.140716 
L 240.286527 49.088542 
L 241.863533 47.823154 
L 243.440539 44.228771 
L 245.017545 41.593304 
L 248.171557 35.101403 
L 249.748563 29.506448 
L 251.325569 27.828566 
L 252.902575 25.482492 
L 254.479581 22.700114 
L 256.056587 23.591397 
L 257.633593 23.584883 
L 259.210599 26.014605 
L 260.787605 27.476181 
L 262.364611 32.212261 
L 263.941617 35.594926 
L 265.518622 40.77138 
L 267.095628 43.717603 
L 268.672634 48.830309 
L 270.24964 51.177521 
L 271.826646 55.588704 
L 273.403652 57.843902 
L 274.980658 61.369714 
L 276.557664 62.655021 
L 278.13467 64.503225 
L 279.711676 63.71287 
L 281.288682 65.150191 
L 282.865688 64.437887 
L 286.0197 60.078551 
L 287.596706 58.606413 
L 289.173712 55.280169 
L 290.750718 50.347901 
L 292.327724 44.300421 
L 293.90473 39.686627 
L 297.058742 29.594915 
L 300.212754 20.155508 
L 301.78976 16.99411 
L 303.366766 15.254309 
L 304.943772 13.985855 
L 306.520778 15.01379 
L 308.097784 16.86636 
L 311.251796 22.23332 
L 312.828802 28.914787 
L 314.405808 32.639226 
L 315.982814 39.84814 
L 317.55982 43.17605 
L 319.136826 50.071857 
L 320.713832 55.219536 
L 322.290838 58.854772 
L 323.867844 65.401282 
L 325.44485 68.164318 
L 327.021856 72.964195 
L 328.598862 75.897021 
L 330.175867 78.3642 
L 331.752873 79.603072 
L 333.329879 82.385429 
L 336.483891 82.643807 
L 338.060897 84.62858 
L 341.214909 86.758889 
L 342.791915 84.310928 
L 344.368921 86.216721 
L 345.945927 87.276723 
L 349.099939 87.126183 
L 350.676945 87.528825 
L 352.253951 87.332746 
L 353.830957 86.589731 
L 355.407963 87.500199 
L 356.984969 86.384846 
L 358.561975 87.186044 
L 360.138981 87.46833 
L 361.715987 87.584749 
L 363.292993 87.484492 
L 364.869999 86.684928 
L 366.447005 87.133712 
L 368.024011 87.038216 
L 371.178023 86.529773 
L 372.755029 85.998616 
L 374.332035 87.103167 
L 375.909041 87.620519 
L 377.486047 87.151729 
L 379.063053 87.783655 
L 380.640059 85.719331 
L 382.217065 87.599001 
L 383.794071 87.583706 
L 385.371077 87.130415 
L 386.948083 87.778382 
L 388.525089 87.241207 
L 390.102095 85.988046 
L 391.679101 86.757128 
L 393.256106 86.433797 
L 394.833112 86.571456 
L 396.410118 86.434711 
L 397.987124 86.050262 
L 399.56413 85.915931 
L 401.141136 87.601424 
L 401.141136 87.601424 
" clip-path="url(#p42fe3b28e2)" style="fill: none; stroke: #000000; stroke-linecap: square"/>
   </g>
   <g id="line2d_11">
    <path d="M 147.243174 92.922865 
L 147.243174 7.402865 
" clip-path="url(#p42fe3b28e2)" style="fill: none; stroke-dasharray: 5,2.5; stroke-dashoffset: 0; stroke: #000000; stroke-width: 0.5"/>
   </g>
   <g id="line2d_12">
    <path d="M 333.329879 92.922865 
L 333.329879 7.402865 
" clip-path="url(#p42fe3b28e2)" style="fill: none; stroke-dasharray: 5,2.5; stroke-dashoffset: 0; stroke: #000000; stroke-width: 0.5"/>
   </g>
   <g id="line2d_13">
    <path d="M 65.238864 92.922865 
L 65.238864 7.402865 
" clip-path="url(#p42fe3b28e2)" style="fill: none; stroke-dasharray: 0.5,0.825; stroke-dashoffset: 0; stroke: #000000; stroke-width: 0.5"/>
   </g>
   <g id="line2d_14">
    <path d="M 401.141136 92.922865 
L 401.141136 7.402865 
" clip-path="url(#p42fe3b28e2)" style="fill: none; stroke-dasharray: 0.5,0.825; stroke-dashoffset: 0; stroke: #000000; stroke-width: 0.5"/>
   </g>
   <g id="line2d_15">
    <path d="M 48.44375 82.655847 
L 417.93625 82.655847 
" clip-path="url(#p42fe3b28e2)" style="fill: none; stroke-dasharray: 10,5; stroke-dashoffset: 0; stroke: #7f7f7f; stroke-width: 0.5"/>
   </g>
   <g id="line2d_16">
    <path d="M 48.44375 87.789356 
L 417.93625 87.789356 
" clip-path="url(#p42fe3b28e2)" style="fill: none; stroke: #7f7f7f; stroke-width: 0.5; stroke-linecap: square"/>
   </g>
   <g id="patch_4">
    <path d="M 43.44375 92.922865 
L 43.44375 7.402865 
" style="fill: none; stroke: #7f7f7f; stroke-width: 0.8; stroke-linejoin: miter; stroke-linecap: square"/>
   </g>
   <g id="patch_5">
    <path d="M 48.44375 97.922865 
L 417.93625 97.922865 
" style="fill: none; stroke: #7f7f7f; stroke-width: 0.8; stroke-linejoin: miter; stroke-linecap: square"/>
   </g>
  </g>
 </g>
 <defs>
  <clipPath id="p42fe3b28e2">
   <rect x="48.44375" y="7.402865" width="369.4925" height="85.52"/>
  </clipPath>
 </defs>
</svg>
