<?xml version="1.0" encoding="utf-8" standalone="no"?>
<!DOCTYPE svg PUBLIC "-//W3C//DTD SVG 1.1//EN"
  "http://www.w3.org/Graphics/SVG/1.1/DTD/svg11.dtd">
<svg xmlns:xlink="http://www.w3.org/1999/xlink" width="280.8pt" height="100.8pt" viewBox="0 0 280.8 100.8" xmlns="http://www.w3.org/2000/svg" version="1.1">
 <metadata>
  <rdf:RDF xmlns:dc="http://purl.org/dc/elements/1.1/" xmlns:cc="http://creativecommons.org/ns#" xmlns:rdf="http://www.w3.org/1999/02/22-rdf-syntax-ns#">
   <cc:Work>
    <dc:type rdf:resource="http://purl.org/dc/dcmitype/StillImage"/>
    <dc:date>2024-01-22T12:56:35.361265</dc:date>
    <dc:format>image/svg+xml</dc:format>
    <dc:creator>
     <cc:Agent>
      <dc:title>Matplotlib v3.8.2, https://matplotlib.org/</dc:title>
     </cc:Agent>
    </dc:creator>
   </cc:Work>
  </rdf:RDF>
 </metadata>
 <defs>
  <style type="text/css">*{stroke-linejoin: round; stroke-linecap: butt}</style>
 </defs>
 <g id="figure_1">
  <g id="patch_1">
   <path d="M 0 100.8 
L 280.8 100.8 
L 280.8 0 
L 0 0 
z
" style="fill: #ffffff"/>
  </g>
  <g id="axes_1">
   <g id="line2d_1">
    <path d="M 18.818182 38.618182 
L 19.282909 38.571992 
L 19.747636 38.437138 
L 20.212364 38.219103 
L 20.677091 37.923262 
L 21.141818 37.554873 
L 21.606545 37.119082 
L 22.071273 36.620923 
L 22.536 36.065316 
L 23.000727 35.457068 
L 23.465455 34.800873 
L 23.930182 34.101311 
L 24.394909 33.36285 
L 24.859636 32.589845 
L 25.324364 31.786537 
L 25.789091 30.957055 
L 26.253818 30.105413 
L 26.718545 29.235514 
L 27.183273 28.351147 
L 27.648 27.455988 
L 28.112727 26.5536 
L 28.577455 25.647432 
L 29.042182 24.740821 
L 29.506909 23.836991 
L 29.971636 22.939051 
L 30.436364 22.05 
L 30.901091 21.172721 
L 31.365818 20.309986 
L 31.830545 19.464452 
L 32.295273 18.638664 
L 32.76 17.835055 
L 33.224727 17.055942 
L 33.689455 16.303531 
L 34.154182 15.579916 
L 34.618909 14.887074 
L 35.083636 14.226873 
L 35.548364 13.601065 
L 36.013091 13.011291 
L 36.477818 12.459077 
L 36.942545 11.945837 
L 37.407273 11.472873 
L 37.872 11.041371 
L 38.336727 10.652406 
L 38.801455 10.306939 
L 39.266182 10.00582 
L 39.730909 9.749782 
L 40.195636 9.539448 
L 40.660364 9.375327 
L 41.125091 9.257816 
L 41.589818 9.187195 
L 42.054545 9.163636 
L 42.519273 9.187195 
L 42.984 9.257816 
L 43.448727 9.375327 
L 43.913455 9.539448 
L 44.378182 9.749782 
L 44.842909 10.00582 
L 45.307636 10.306939 
L 45.772364 10.652406 
L 46.237091 11.041371 
L 46.701818 11.472873 
L 47.166545 11.945837 
L 47.631273 12.459077 
L 48.096 13.011291 
L 48.560727 13.601065 
L 49.025455 14.226873 
L 49.490182 14.887074 
L 49.954909 15.579916 
L 50.419636 16.303531 
L 50.884364 17.055942 
L 51.349091 17.835055 
L 51.813818 18.638664 
L 52.278545 19.464452 
L 52.743273 20.309986 
L 53.208 21.172721 
L 53.672727 22.05 
L 54.137455 22.939051 
L 54.602182 23.836991 
L 55.066909 24.740821 
L 55.531636 25.647432 
L 55.996364 26.5536 
L 56.461091 27.455988 
L 56.925818 28.351147 
L 57.390545 29.235514 
L 57.855273 30.105413 
L 58.32 30.957055 
L 58.784727 31.786537 
L 59.249455 32.589845 
L 59.714182 33.36285 
L 60.178909 34.101311 
L 60.643636 34.800873 
L 61.108364 35.457068 
L 61.573091 36.065316 
L 62.037818 36.620923 
L 62.502545 37.119082 
L 62.967273 37.554873 
L 63.432 37.923262 
L 63.896727 38.219103 
L 64.361455 38.437138 
L 64.826182 38.571992 
L 65.290909 38.618182 
" clip-path="url(#p45d5246a8b)" style="fill: none; stroke: #d62728; stroke-linecap: square"/>
   </g>
   <g id="line2d_2">
    <path d="M 18.818182 77.890909 
L 20.212364 77.770213 
L 21.606545 77.427629 
L 23.000727 76.891509 
L 24.859636 75.922371 
L 27.183273 74.387355 
L 29.971636 72.21573 
L 35.083636 67.836703 
L 39.266182 64.39093 
L 42.054545 62.375758 
L 44.378182 60.947976 
L 46.701818 59.794036 
L 48.560727 59.090259 
L 50.419636 58.595164 
L 52.278545 58.317332 
L 54.137455 58.261527 
L 55.996364 58.428703 
L 57.855273 58.816001 
L 59.714182 59.416748 
L 61.573091 60.220457 
L 63.896727 61.488365 
L 66.220364 63.014475 
L 69.008727 65.121756 
L 72.726545 68.237297 
L 78.768 73.336479 
L 81.091636 75.038147 
L 82.950545 76.188999 
L 84.809455 77.090019 
L 86.203636 77.564703 
L 87.597818 77.836534 
L 88.527273 77.890909 
L 88.527273 77.890909 
" clip-path="url(#p45d5246a8b)" style="fill: none; stroke: #1f77b4; stroke-linecap: square"/>
   </g>
   <g id="line2d_3">
    <path d="M 18.818182 93.6 
L 18.818182 7.2 
" clip-path="url(#p45d5246a8b)" style="fill: none; stroke-dasharray: 2.5,1; stroke-dashoffset: 0; stroke: #000000; stroke-opacity: 0.5; stroke-width: 0.5"/>
   </g>
   <g id="line2d_4">
    <path d="M 65.290909 46.472727 
L 65.290909 30.763636 
" clip-path="url(#p45d5246a8b)" style="fill: none; stroke-dasharray: 2.5,1; stroke-dashoffset: 0; stroke: #000000; stroke-width: 0.5"/>
   </g>
   <g id="line2d_5">
    <path d="M 88.527273 85.745455 
L 88.527273 70.036364 
" clip-path="url(#p45d5246a8b)" style="fill: none; stroke-dasharray: 2.5,1; stroke-dashoffset: 0; stroke: #000000; stroke-width: 0.5"/>
   </g>
  </g>
  <g id="axes_2">
   <g id="line2d_6">
    <path d="M 158.58 43.2 
L 159.0912 43.15766 
L 159.6024 43.034043 
L 160.1136 42.834178 
L 160.6248 42.56299 
L 161.136 42.2253 
L 161.6472 41.825825 
L 162.1584 41.36918 
L 162.6696 40.859873 
L 163.1808 40.302312 
L 163.692 39.7008 
L 164.2032 39.059535 
L 164.7144 38.382612 
L 165.2256 37.674024 
L 165.7368 36.937659 
L 166.248 36.1773 
L 166.7592 35.396628 
L 167.2704 34.599221 
L 167.7816 33.788552 
L 168.2928 32.967989 
L 168.804 32.1408 
L 169.3152 31.310146 
L 169.8264 30.479086 
L 170.3376 29.650575 
L 170.8488 28.827464 
L 171.36 28.0125 
L 171.8712 27.208328 
L 172.3824 26.417487 
L 172.8936 25.642414 
L 173.4048 24.885442 
L 173.916 24.1488 
L 174.4272 23.434613 
L 174.9384 22.744904 
L 175.4496 22.081589 
L 175.9608 21.446484 
L 176.472 20.8413 
L 176.9832 20.267643 
L 177.4944 19.727016 
L 178.0056 19.22082 
L 178.5168 18.750351 
L 179.028 18.3168 
L 179.5392 17.921256 
L 180.0504 17.564705 
L 180.5616 17.248028 
L 181.0728 16.972001 
L 181.584 16.7373 
L 182.0952 16.544494 
L 182.6064 16.39405 
L 183.1176 16.286331 
L 183.6288 16.221596 
L 184.14 16.2 
L 184.6512 16.221596 
L 185.1624 16.286331 
L 185.6736 16.39405 
L 186.1848 16.544494 
L 186.696 16.7373 
L 187.2072 16.972001 
L 187.7184 17.248028 
L 188.2296 17.564705 
L 188.7408 17.921256 
L 189.252 18.3168 
L 189.7632 18.750351 
L 190.2744 19.22082 
L 190.7856 19.727016 
L 191.2968 20.267643 
L 191.808 20.8413 
L 192.3192 21.446484 
L 192.8304 22.081589 
L 193.3416 22.744904 
L 193.8528 23.434613 
L 194.364 24.1488 
L 194.8752 24.885442 
L 195.3864 25.642414 
L 195.8976 26.417487 
L 196.4088 27.208328 
L 196.92 28.0125 
L 197.4312 28.827464 
L 197.9424 29.650575 
L 198.4536 30.479086 
L 198.9648 31.310146 
L 199.476 32.1408 
L 199.9872 32.967989 
L 200.4984 33.788552 
L 201.0096 34.599221 
L 201.5208 35.396628 
L 202.032 36.1773 
L 202.5432 36.937659 
L 203.0544 37.674024 
L 203.5656 38.382612 
L 204.0768 39.059535 
L 204.588 39.7008 
L 205.0992 40.302312 
L 205.6104 40.859873 
L 206.1216 41.36918 
L 206.6328 41.825825 
L 207.144 42.2253 
L 207.6552 42.56299 
L 208.1664 42.834178 
L 208.6776 43.034043 
L 209.1888 43.15766 
L 209.7 43.2 
" clip-path="url(#p7c500adfad)" style="fill: none; stroke: #d62728; stroke-opacity: 0.6; stroke-linecap: square"/>
   </g>
   <g id="line2d_7">
    <path d="M 158.58 43.2 
L 159.6024 43.034043 
L 160.6248 42.56299 
L 161.6472 41.825825 
L 162.6696 40.859873 
L 164.2032 39.059535 
L 166.248 36.1773 
L 169.3152 31.310146 
L 172.8936 25.642414 
L 174.9384 22.744904 
L 176.9832 20.267643 
L 178.5168 18.750351 
L 180.0504 17.564705 
L 181.584 16.7373 
L 182.6064 16.39405 
L 183.6288 16.221596 
L 184.6512 16.221596 
L 185.6736 16.39405 
L 186.696 16.7373 
L 187.7184 17.248028 
L 189.252 18.3168 
L 190.7856 19.727016 
L 192.3192 21.446484 
L 194.364 24.1488 
L 196.92 28.0125 
L 203.0544 37.674024 
L 204.588 39.7008 
L 206.1216 41.36918 
L 207.144 42.2253 
L 208.1664 42.834178 
L 209.1888 43.15766 
L 210.7224 43.2 
L 235.26 43.2 
L 235.26 43.2 
" clip-path="url(#p7c500adfad)" style="fill: none; stroke-dasharray: 4,4; stroke-dashoffset: 0; stroke: #000000; stroke-width: 2"/>
   </g>
   <g id="line2d_8">
    <path d="M 158.58 79.2 
L 160.1136 79.089362 
L 161.6472 78.775327 
L 163.692 78.084978 
L 165.7368 77.137655 
L 168.2928 75.675664 
L 171.36 73.644444 
L 182.6064 65.867929 
L 185.6736 64.164334 
L 188.2296 63.002086 
L 190.7856 62.109804 
L 192.8304 61.60727 
L 194.8752 61.302254 
L 196.92 61.2 
L 198.9648 61.302254 
L 201.0096 61.60727 
L 203.0544 62.109804 
L 205.6104 63.002086 
L 208.1664 64.164334 
L 210.7224 65.563269 
L 213.7896 67.494943 
L 217.8792 70.350856 
L 224.5248 75.025106 
L 227.0808 76.584968 
L 229.6368 77.870028 
L 231.6816 78.629973 
L 233.2152 79.005977 
L 234.7488 79.18737 
L 235.26 79.2 
L 235.26 79.2 
" clip-path="url(#p7c500adfad)" style="fill: none; stroke: #1f77b4; stroke-opacity: 0.6; stroke-linecap: square"/>
   </g>
   <g id="line2d_9">
    <path d="M 158.58 79.2 
L 159.6024 79.316113 
L 160.6248 79.642987 
L 162.1584 80.460793 
L 163.692 81.584178 
L 165.7368 83.399996 
L 172.8936 90.11919 
L 174.9384 91.543778 
L 176.472 92.342344 
L 178.0056 92.87459 
L 179.5392 93.116917 
L 181.0728 93.053018 
L 182.6064 92.673879 
L 184.14 91.977778 
L 185.6736 90.970284 
L 187.2072 89.664261 
L 188.7408 88.079861 
L 190.7856 85.582787 
L 192.8304 82.725681 
L 195.8976 78.008104 
L 200.4984 70.923682 
L 202.5432 68.228412 
L 204.0768 66.573011 
L 205.0992 65.698805 
L 206.1216 65.044701 
L 207.144 64.643678 
L 208.1664 64.530156 
L 209.1888 64.739997 
L 210.7224 65.563269 
L 213.7896 67.494943 
L 217.8792 70.350856 
L 224.5248 75.025106 
L 227.0808 76.584968 
L 229.6368 77.870028 
L 231.6816 78.629973 
L 233.2152 79.005977 
L 234.7488 79.18737 
L 235.26 79.2 
L 235.26 79.2 
" clip-path="url(#p7c500adfad)" style="fill: none; stroke-dasharray: 4,4; stroke-dashoffset: 0; stroke: #9467bd; stroke-width: 2"/>
   </g>
   <g id="line2d_10">
    <path d="M 158.58 93.6 
L 158.58 7.2 
" clip-path="url(#p7c500adfad)" style="fill: none; stroke-dasharray: 2.5,1; stroke-dashoffset: 0; stroke: #000000; stroke-opacity: 0.5; stroke-width: 0.5"/>
   </g>
   <g id="line2d_11">
    <path d="M 209.7 50.4 
L 209.7 36 
" clip-path="url(#p7c500adfad)" style="fill: none; stroke-dasharray: 2.5,1; stroke-dashoffset: 0; stroke: #000000; stroke-width: 0.5"/>
   </g>
   <g id="line2d_12">
    <path d="M 235.26 93.6 
L 235.26 7.2 
" clip-path="url(#p7c500adfad)" style="fill: none; stroke-dasharray: 2.5,1; stroke-dashoffset: 0; stroke: #000000; stroke-opacity: 0.5; stroke-width: 0.5"/>
   </g>
  </g>
 </g>
 <defs>
  <clipPath id="p45d5246a8b">
   <rect x="7.2" y="7.2" width="127.8" height="86.4"/>
  </clipPath>
  <clipPath id="p7c500adfad">
   <rect x="145.8" y="7.2" width="127.8" height="86.4"/>
  </clipPath>
 </defs>
</svg>
