<?xml version="1.0" encoding="utf-8" standalone="no"?>
<!DOCTYPE svg PUBLIC "-//W3C//DTD SVG 1.1//EN"
  "http://www.w3.org/Graphics/SVG/1.1/DTD/svg11.dtd">
<svg xmlns:xlink="http://www.w3.org/1999/xlink" width="568.8pt" height="136.8pt" viewBox="0 0 568.8 136.8" xmlns="http://www.w3.org/2000/svg" version="1.1">
 <metadata>
  <rdf:RDF xmlns:dc="http://purl.org/dc/elements/1.1/" xmlns:cc="http://creativecommons.org/ns#" xmlns:rdf="http://www.w3.org/1999/02/22-rdf-syntax-ns#">
   <cc:Work>
    <dc:type rdf:resource="http://purl.org/dc/dcmitype/StillImage"/>
    <dc:date>2025-11-28T21:13:35.092835</dc:date>
    <dc:format>image/svg+xml</dc:format>
    <dc:creator>
     <cc:Agent>
      <dc:title>Matplotlib v3.8.2, https://matplotlib.org/</dc:title>
     </cc:Agent>
    </dc:creator>
   </cc:Work>
  </rdf:RDF>
 </metadata>
 <defs>
  <style type="text/css">*{stroke-linejoin: round; stroke-linecap: butt}</style>
 </defs>
 <g id="figure_1">
  <g id="patch_1">
   <path d="M 0 136.8 
L 568.8 136.8 
L 568.8 0 
L 0 0 
z
" style="fill: #ffffff"/>
  </g>
  <g id="axes_1">
   <g id="line2d_1">
    <path d="M 15.272727 44.4 
L 16.349091 44.185639 
L 17.425455 43.577196 
L 18.501818 42.625024 
L 19.578182 41.377336 
L 21.192727 39.051899 
L 22.807273 36.311143 
L 25.498182 31.183653 
L 30.88 20.743696 
L 33.032727 17.122053 
L 34.647273 14.779039 
L 36.261818 12.819203 
L 37.876364 11.287744 
L 38.952727 10.522168 
L 40.029091 9.969972 
L 41.105455 9.636511 
L 42.181818 9.525 
L 43.258182 9.636511 
L 44.334545 9.969972 
L 45.410909 10.522168 
L 46.487273 11.287744 
L 47.563636 12.2592 
L 49.178182 14.08073 
L 50.792727 16.301709 
L 52.407273 18.869709 
L 54.56 22.722587 
L 57.789091 29.042272 
L 61.556364 36.311143 
L 63.170909 39.051899 
L 64.785455 41.377336 
L 65.861818 42.625024 
L 66.938182 43.577196 
L 68.014545 44.185639 
L 69.090909 44.4 
L 176.727273 44.4 
L 176.727273 44.4 
" clip-path="url(#p593478899d)" style="fill: none; stroke: #d62728; stroke-linecap: square"/>
   </g>
   <g id="line2d_2">
    <path d="M 15.272727 63 
L 15.272727 7.2 
" clip-path="url(#p593478899d)" style="fill: none; stroke-dasharray: 2.5,1; stroke-dashoffset: 0; stroke: #000000; stroke-opacity: 0.5; stroke-width: 0.5"/>
   </g>
   <g id="line2d_3">
    <path d="M 69.090909 63 
L 69.090909 7.2 
" clip-path="url(#p593478899d)" style="fill: none; stroke-dasharray: 2.5,1; stroke-dashoffset: 0; stroke: #000000; stroke-opacity: 0.5; stroke-width: 0.5"/>
   </g>
  </g>
  <g id="axes_2">
   <g id="line2d_4">
    <path d="M 203.672727 44.4 
L 204.210909 42.834986 
L 205.287273 41.146234 
L 205.825455 41.1611 
L 206.901818 40.43829 
L 207.44 38.642373 
L 207.978182 37.384875 
L 208.516364 36.82763 
L 209.592727 34.932681 
L 210.130909 34.243531 
L 210.669091 33.369749 
L 211.207273 32.75768 
L 211.745455 30.692382 
L 212.821818 27.997613 
L 213.36 26.994812 
L 213.898182 25.599985 
L 214.436364 24.71227 
L 214.974545 22.632524 
L 215.512727 21.875029 
L 216.589091 21.461655 
L 217.127273 19.781748 
L 218.203636 17.063873 
L 218.741818 18.351849 
L 220.356364 16.502249 
L 221.432727 15.935649 
L 221.970909 14.860087 
L 222.509091 14.281325 
L 223.047273 15.536323 
L 223.585455 15.76876 
L 224.123636 14.964376 
L 224.661818 14.475883 
L 225.2 14.253386 
L 225.738182 13.862802 
L 226.276364 13.988077 
L 226.814545 14.418786 
L 227.352727 14.290154 
L 227.890909 13.752667 
L 228.429091 13.536123 
L 228.967273 13.62763 
L 229.505455 13.880923 
L 230.043636 12.915932 
L 231.12 11.811425 
L 232.196364 12.479051 
L 232.734545 11.324467 
L 233.272727 11.133849 
L 233.810909 11.42035 
L 234.349091 11.45689 
L 234.887273 11.282902 
L 235.425455 13.700865 
L 237.578182 15.461817 
L 238.116364 14.706075 
L 238.654545 14.638134 
L 239.192727 16.005519 
L 239.730909 16.81691 
L 240.269091 16.529685 
L 240.807273 17.639343 
L 241.345455 18.078905 
L 241.883636 20.052781 
L 242.421818 20.587542 
L 242.96 21.678322 
L 243.498182 21.986835 
L 244.036364 23.473723 
L 244.574545 25.687819 
L 246.189091 29.124671 
L 246.727273 27.979571 
L 247.265455 28.98712 
L 247.803636 31.17979 
L 248.88 32.795986 
L 249.418182 34.301893 
L 249.956364 35.464717 
L 250.494545 35.80975 
L 251.032727 36.409113 
L 251.570909 38.693723 
L 252.109091 39.159834 
L 252.647273 40.193204 
L 253.185455 40.577497 
L 253.723636 41.639555 
L 254.261818 41.978439 
L 255.338182 43.011495 
L 255.876364 42.886776 
L 256.414545 42.93128 
L 256.952727 42.61565 
L 257.490909 44.4 
L 365.127273 44.4 
L 365.127273 44.4 
" clip-path="url(#p08d113dbff)" style="fill: none; stroke: #d62728; stroke-linecap: square"/>
   </g>
   <g id="line2d_5">
    <path d="M 203.672727 44.4 
L 204.210909 45.910324 
L 205.287273 47.181246 
L 205.825455 46.816096 
L 206.901818 46.586735 
L 207.44 47.792818 
L 207.978182 48.392461 
L 208.516364 48.229523 
L 209.054545 48.44006 
L 209.592727 48.519218 
L 210.130909 48.33401 
L 210.669091 48.292533 
L 211.207273 47.953463 
L 211.745455 49.03663 
L 212.283636 49.455475 
L 212.821818 49.693047 
L 213.36 49.648734 
L 213.898182 49.983668 
L 214.436364 49.80293 
L 214.974545 50.809748 
L 215.512727 50.49379 
L 216.589091 48.773819 
L 217.127273 49.401064 
L 218.203636 50.058714 
L 218.741818 47.769603 
L 219.818182 46.876091 
L 220.356364 46.76746 
L 221.432727 45.586403 
L 221.970909 45.841622 
L 222.509091 45.638688 
L 223.047273 43.642716 
L 223.585455 42.711969 
L 224.123636 42.862517 
L 224.661818 42.743321 
L 225.2 42.405814 
L 225.738182 42.285487 
L 226.276364 41.699668 
L 226.814545 40.859917 
L 227.352727 40.632015 
L 227.890909 40.866346 
L 228.429091 40.833849 
L 229.505455 40.155587 
L 230.043636 41.036963 
L 231.12 42.141469 
L 231.658182 41.853398 
L 232.196364 41.696597 
L 232.734545 43.045505 
L 233.272727 43.485164 
L 233.810909 43.501819 
L 234.349091 43.821813 
L 234.887273 44.404842 
L 235.425455 42.447425 
L 236.501818 42.627286 
L 237.578182 43.018913 
L 238.116364 44.472964 
L 238.654545 45.281878 
L 239.192727 44.69619 
L 239.730909 44.705143 
L 240.269091 45.849149 
L 240.807273 45.630366 
L 241.345455 46.113295 
L 241.883636 45.090915 
L 242.421818 45.53391 
L 242.96 45.444265 
L 243.498182 46.157255 
L 244.036364 45.709089 
L 244.574545 44.547655 
L 245.650909 44.194141 
L 246.189091 44.317601 
L 246.727273 46.535629 
L 247.265455 46.596533 
L 247.803636 45.463756 
L 248.88 45.924659 
L 249.418182 45.427119 
L 249.956364 45.246426 
L 250.494545 45.852532 
L 251.032727 46.168428 
L 251.570909 44.758176 
L 252.109091 45.120366 
L 252.647273 44.86395 
L 253.185455 45.19984 
L 253.723636 44.795635 
L 254.261818 45.046586 
L 255.338182 44.965701 
L 255.876364 45.440704 
L 256.414545 45.654359 
L 256.952727 46.12966 
L 257.490909 44.4 
L 365.127273 44.4 
L 365.127273 44.4 
" clip-path="url(#p08d113dbff)" style="fill: none; stroke: #9467bd; stroke-linecap: square"/>
   </g>
   <g id="line2d_6">
    <path d="M 203.672727 63 
L 203.672727 7.2 
" clip-path="url(#p08d113dbff)" style="fill: none; stroke-dasharray: 2.5,1; stroke-dashoffset: 0; stroke: #000000; stroke-opacity: 0.5; stroke-width: 0.5"/>
   </g>
   <g id="line2d_7">
    <path d="M 257.490909 63 
L 257.490909 7.2 
" clip-path="url(#p08d113dbff)" style="fill: none; stroke-dasharray: 2.5,1; stroke-dashoffset: 0; stroke: #000000; stroke-opacity: 0.5; stroke-width: 0.5"/>
   </g>
  </g>
  <g id="axes_3">
   <g id="line2d_8">
    <path d="M 392.072727 44.4 
L 393.149091 44.289349 
L 394.225455 43.971674 
L 395.301818 43.467861 
L 396.916364 42.407102 
L 398.530909 41.037955 
L 400.683636 38.83869 
L 403.374545 35.678536 
L 413.061818 23.831139 
L 415.214545 21.667419 
L 417.367273 19.826385 
L 418.981818 18.68736 
L 420.596364 17.77431 
L 422.210909 17.100269 
L 423.825455 16.674714 
L 425.44 16.503571 
L 427.054545 16.589209 
L 428.669091 16.930442 
L 430.283636 17.522532 
L 431.898182 18.357185 
L 433.512727 19.422552 
L 435.665455 21.174797 
L 437.818182 23.263067 
L 440.509091 26.257161 
L 443.738182 30.228279 
L 449.658182 37.617392 
L 451.810909 39.984436 
L 453.425455 41.524726 
L 455.04 42.798098 
L 456.654545 43.741756 
L 457.730909 44.155068 
L 458.807273 44.371886 
L 460.96 44.4 
L 553.527273 44.4 
L 553.527273 44.4 
" clip-path="url(#p6cdd6a8e24)" style="fill: none; stroke: #d62728; stroke-linecap: square"/>
   </g>
   <g id="line2d_9">
    <path d="M 392.072727 44.4 
L 393.149091 44.296289 
L 394.225455 44.005522 
L 395.84 43.282701 
L 397.454545 42.298331 
L 399.607273 40.726707 
L 405.527273 36.210653 
L 407.68 34.915417 
L 409.294545 34.172679 
L 410.909091 33.662851 
L 412.523636 33.411234 
L 414.138182 33.435836 
L 415.752727 33.747372 
L 417.367273 34.349263 
L 418.981818 35.23764 
L 420.596364 36.401338 
L 422.210909 37.821899 
L 424.363636 40.069991 
L 426.516364 42.646907 
L 429.745455 46.894465 
L 434.050909 52.542435 
L 436.203636 54.976127 
L 437.818182 56.465945 
L 438.894545 57.246623 
L 439.970909 57.82211 
L 441.047273 58.160648 
L 442.123636 58.229036 
L 443.2 57.992633 
L 444.276364 57.415359 
L 445.352727 56.459691 
L 447.505455 53.788667 
L 450.734545 49.96131 
L 452.887273 47.762045 
L 454.501818 46.392898 
L 456.116364 45.332139 
L 457.192727 44.828326 
L 458.269091 44.510651 
L 459.345455 44.4 
L 553.527273 44.4 
L 553.527273 44.4 
" clip-path="url(#p6cdd6a8e24)" style="fill: none; stroke: #9467bd; stroke-linecap: square"/>
   </g>
   <g id="line2d_10">
    <path d="M 392.072727 63 
L 392.072727 7.2 
" clip-path="url(#p6cdd6a8e24)" style="fill: none; stroke-dasharray: 2.5,1; stroke-dashoffset: 0; stroke: #000000; stroke-opacity: 0.5; stroke-width: 0.5"/>
   </g>
   <g id="line2d_11">
    <path d="M 459.345455 63 
L 459.345455 7.2 
" clip-path="url(#p6cdd6a8e24)" style="fill: none; stroke-dasharray: 2.5,1; stroke-dashoffset: 0; stroke: #000000; stroke-opacity: 0.5; stroke-width: 0.5"/>
   </g>
  </g>
  <g id="axes_4">
   <g id="line2d_12">
    <path d="M 15.272727 111 
L 16.349091 110.785639 
L 17.425455 110.177196 
L 18.501818 109.225024 
L 19.578182 107.977336 
L 21.192727 105.651899 
L 22.807273 102.911143 
L 25.498182 97.783653 
L 30.88 87.343696 
L 33.032727 83.722053 
L 34.647273 81.379039 
L 36.261818 79.419203 
L 37.876364 77.887744 
L 38.952727 77.122168 
L 40.029091 76.569972 
L 41.105455 76.236511 
L 42.181818 76.125 
L 43.258182 76.236511 
L 44.334545 76.569972 
L 45.410909 77.122168 
L 46.487273 77.887744 
L 47.563636 78.8592 
L 49.178182 80.68073 
L 50.792727 82.901709 
L 52.407273 85.469709 
L 54.56 89.322587 
L 57.789091 95.642272 
L 61.556364 102.911143 
L 63.170909 105.651899 
L 64.785455 107.977336 
L 65.861818 109.225024 
L 66.938182 110.177196 
L 68.014545 110.785639 
L 69.090909 111 
L 69.629091 110.892819 
L 70.167273 110.588598 
L 71.243636 109.488668 
L 72.32 107.888771 
L 73.934545 104.921773 
L 77.163636 98.6961 
L 78.778182 96.189519 
L 79.854545 94.9296 
L 80.930909 94.061084 
L 82.007273 93.618255 
L 83.083636 93.618255 
L 84.16 94.061084 
L 85.236364 94.9296 
L 86.312727 96.189519 
L 87.389091 97.789417 
L 89.003636 100.672045 
L 92.770909 107.888771 
L 93.847273 109.488668 
L 94.923636 110.588598 
L 95.461818 110.892819 
L 96.538182 111 
L 176.727273 111 
L 176.727273 111 
" clip-path="url(#p9fbf40fbb1)" style="fill: none; stroke: #d62728; stroke-linecap: square"/>
   </g>
   <g id="line2d_13">
    <path d="M 15.272727 111 
L 69.629091 111.107181 
L 70.167273 111.411402 
L 71.243636 112.511332 
L 72.32 114.111229 
L 73.934545 117.078227 
L 77.163636 123.3039 
L 78.778182 125.810481 
L 79.854545 127.0704 
L 80.930909 127.938916 
L 82.007273 128.381745 
L 83.083636 128.381745 
L 84.16 127.938916 
L 85.236364 127.0704 
L 86.312727 125.810481 
L 87.389091 124.210583 
L 89.003636 121.327955 
L 92.770909 114.111229 
L 93.847273 112.511332 
L 94.923636 111.411402 
L 95.461818 111.107181 
L 96.538182 111 
L 176.727273 111 
L 176.727273 111 
" clip-path="url(#p9fbf40fbb1)" style="fill: none; stroke: #9467bd; stroke-linecap: square"/>
   </g>
   <g id="line2d_14">
    <path d="M 15.272727 129.6 
L 15.272727 73.8 
" clip-path="url(#p9fbf40fbb1)" style="fill: none; stroke-dasharray: 2.5,1; stroke-dashoffset: 0; stroke: #000000; stroke-opacity: 0.5; stroke-width: 0.5"/>
   </g>
   <g id="line2d_15">
    <path d="M 136.363636 129.6 
L 136.363636 73.8 
" clip-path="url(#p9fbf40fbb1)" style="fill: none; stroke-dasharray: 2.5,1; stroke-dashoffset: 0; stroke: #000000; stroke-opacity: 0.5; stroke-width: 0.5"/>
   </g>
  </g>
  <g id="axes_5">
   <g id="line2d_16">
    <path d="M 203.672727 111 
L 204.749091 110.785639 
L 205.825455 110.177196 
L 206.901818 109.225024 
L 207.978182 107.977336 
L 209.592727 105.651899 
L 211.207273 102.911143 
L 213.898182 97.783653 
L 219.28 87.343696 
L 221.432727 83.722053 
L 223.047273 81.379039 
L 224.661818 79.419203 
L 226.276364 77.887744 
L 227.352727 77.122168 
L 228.429091 76.569972 
L 229.505455 76.236511 
L 230.581818 76.125 
L 231.658182 76.236511 
L 232.734545 76.569972 
L 233.810909 77.122168 
L 234.887273 77.887744 
L 235.963636 78.8592 
L 237.578182 80.68073 
L 239.192727 82.901709 
L 240.807273 85.469709 
L 242.96 89.322587 
L 246.189091 95.642272 
L 249.956364 102.911143 
L 251.570909 105.651899 
L 253.185455 107.977336 
L 254.261818 109.225024 
L 255.338182 110.177196 
L 256.414545 110.785639 
L 257.490909 111 
L 298.392727 110.892819 
L 298.930909 110.588598 
L 300.007273 109.488668 
L 301.083636 107.888771 
L 302.698182 104.921773 
L 305.927273 98.6961 
L 307.541818 96.189519 
L 308.618182 94.9296 
L 309.694545 94.061084 
L 310.770909 93.618255 
L 311.847273 93.618255 
L 312.923636 94.061084 
L 314 94.9296 
L 315.076364 96.189519 
L 316.152727 97.789417 
L 317.767273 100.672045 
L 321.534545 107.888771 
L 322.610909 109.488668 
L 323.687273 110.588598 
L 324.225455 110.892819 
L 325.301818 111 
L 365.127273 111 
L 365.127273 111 
" clip-path="url(#pc90e074d88)" style="fill: none; stroke: #d62728; stroke-linecap: square"/>
   </g>
   <g id="line2d_17">
    <path d="M 203.672727 111 
L 298.392727 111.107181 
L 298.930909 111.411402 
L 300.007273 112.511332 
L 301.083636 114.111229 
L 302.698182 117.078227 
L 305.927273 123.3039 
L 307.541818 125.810481 
L 308.618182 127.0704 
L 309.694545 127.938916 
L 310.770909 128.381745 
L 311.847273 128.381745 
L 312.923636 127.938916 
L 314 127.0704 
L 315.076364 125.810481 
L 316.152727 124.210583 
L 317.767273 121.327955 
L 321.534545 114.111229 
L 322.610909 112.511332 
L 323.687273 111.411402 
L 324.225455 111.107181 
L 325.301818 111 
L 365.127273 111 
L 365.127273 111 
" clip-path="url(#pc90e074d88)" style="fill: none; stroke: #9467bd; stroke-linecap: square"/>
   </g>
   <g id="line2d_18">
    <path d="M 203.672727 129.6 
L 203.672727 73.8 
" clip-path="url(#pc90e074d88)" style="fill: none; stroke-dasharray: 2.5,1; stroke-dashoffset: 0; stroke: #000000; stroke-opacity: 0.5; stroke-width: 0.5"/>
   </g>
   <g id="line2d_19">
    <path d="M 365.127273 129.6 
L 365.127273 73.8 
" clip-path="url(#pc90e074d88)" style="fill: none; stroke-dasharray: 2.5,1; stroke-dashoffset: 0; stroke: #000000; stroke-opacity: 0.5; stroke-width: 0.5"/>
   </g>
  </g>
 </g>
 <defs>
  <clipPath id="p593478899d">
   <rect x="7.2" y="7.2" width="177.6" height="55.8"/>
  </clipPath>
  <clipPath id="p08d113dbff">
   <rect x="195.6" y="7.2" width="177.6" height="55.8"/>
  </clipPath>
  <clipPath id="p6cdd6a8e24">
   <rect x="384" y="7.2" width="177.6" height="55.8"/>
  </clipPath>
  <clipPath id="p9fbf40fbb1">
   <rect x="7.2" y="73.8" width="177.6" height="55.8"/>
  </clipPath>
  <clipPath id="pc90e074d88">
   <rect x="195.6" y="73.8" width="177.6" height="55.8"/>
  </clipPath>
 </defs>
</svg>
