<?xml version="1.0" encoding="utf-8" standalone="no"?>
<!DOCTYPE svg PUBLIC "-//W3C//DTD SVG 1.1//EN"
  "http://www.w3.org/Graphics/SVG/1.1/DTD/svg11.dtd">
<svg xmlns:xlink="http://www.w3.org/1999/xlink" width="352.8pt" height="244.8pt" viewBox="0 0 352.8 244.8" xmlns="http://www.w3.org/2000/svg" version="1.1">
 <metadata>
  <rdf:RDF xmlns:dc="http://purl.org/dc/elements/1.1/" xmlns:cc="http://creativecommons.org/ns#" xmlns:rdf="http://www.w3.org/1999/02/22-rdf-syntax-ns#">
   <cc:Work>
    <dc:type rdf:resource="http://purl.org/dc/dcmitype/StillImage"/>
    <dc:date>2024-01-05T16:31:50.212972</dc:date>
    <dc:format>image/svg+xml</dc:format>
    <dc:creator>
     <cc:Agent>
      <dc:title>Matplotlib v3.8.2, https://matplotlib.org/</dc:title>
     </cc:Agent>
    </dc:creator>
   </cc:Work>
  </rdf:RDF>
 </metadata>
 <defs>
  <style type="text/css">*{stroke-linejoin: round; stroke-linecap: butt}</style>
 </defs>
 <g id="figure_1">
  <g id="patch_1">
   <path d="M 0 244.8 
L 352.8 244.8 
L 352.8 0 
L 0 0 
z
" style="fill: #ffffff"/>
  </g>
  <g id="axes_1">
   <g id="line2d_1">
    <path d="M 14.645455 63.240198 
L 15.836727 63.168741 
L 17.028 62.960115 
L 18.219273 62.622807 
L 19.410545 62.165127 
L 20.601818 61.595213 
L 21.793091 60.921026 
L 22.984364 60.150352 
L 24.175636 59.290804 
L 25.366909 58.349817 
L 26.558182 57.334654 
L 27.749455 56.252401 
L 28.940727 55.10997 
L 30.132 53.914097 
L 31.323273 52.671345 
L 32.514545 51.388099 
L 33.705818 50.070572 
L 34.897091 48.724801 
L 36.088364 47.356647 
L 37.279636 45.971796 
L 38.470909 44.575762 
L 39.662182 43.173881 
L 40.853455 41.771314 
L 42.044727 40.373049 
L 43.236 38.983897 
L 44.427273 37.608496 
L 45.618545 36.251307 
L 46.809818 34.916618 
L 48.001091 33.60854 
L 49.192364 32.33101 
L 50.383636 31.087791 
L 51.574909 29.882469 
L 52.766182 28.718457 
L 53.957455 27.598992 
L 55.148727 26.527136 
L 56.34 25.505776 
L 57.531273 24.537624 
L 58.722545 23.625217 
L 59.913818 22.770918 
L 61.105091 21.976914 
L 62.296364 21.245217 
L 63.487636 20.577664 
L 64.678909 19.975919 
L 65.870182 19.441467 
L 67.061455 18.975622 
L 68.252727 18.57952 
L 69.444 18.254124 
L 70.635273 18.000223 
L 71.826545 17.818427 
L 73.017818 17.709174 
L 74.209091 17.672727 
L 75.400364 17.709174 
L 76.591636 17.818427 
L 77.782909 18.000223 
L 78.974182 18.254124 
L 80.165455 18.57952 
L 81.356727 18.975622 
L 82.548 19.441467 
L 83.739273 19.975919 
L 84.930545 20.577664 
L 86.121818 21.245217 
L 87.313091 21.976914 
L 88.504364 22.770918 
L 89.695636 23.625217 
L 90.886909 24.537624 
L 92.078182 25.505776 
L 93.269455 26.527136 
L 94.460727 27.598992 
L 95.652 28.718457 
L 96.843273 29.882469 
L 98.034545 31.087791 
L 99.225818 32.33101 
L 100.417091 33.60854 
L 101.608364 34.916618 
L 102.799636 36.251307 
L 103.990909 37.608496 
L 105.182182 38.983897 
L 106.373455 40.373049 
L 107.564727 41.771314 
L 108.756 43.173881 
L 109.947273 44.575762 
L 111.138545 45.971796 
L 112.329818 47.356647 
L 113.521091 48.724801 
L 114.712364 50.070572 
L 115.903636 51.388099 
L 117.094909 52.671345 
L 118.286182 53.914097 
L 119.477455 55.10997 
L 120.668727 56.252401 
L 121.86 57.334654 
L 123.051273 58.349817 
L 124.242545 59.290804 
L 125.433818 60.150352 
L 126.625091 60.921026 
L 127.816364 61.595213 
L 129.007636 62.165127 
L 130.198909 62.622807 
L 131.390182 62.960115 
L 132.581455 63.168741 
L 133.772727 63.240198 
L 134.964 63.240198 
L 136.155273 63.240198 
L 137.346545 63.240198 
L 138.537818 63.240198 
L 139.729091 63.240198 
L 140.920364 63.240198 
L 142.111636 63.240198 
L 143.302909 63.240198 
L 144.494182 63.240198 
L 145.685455 63.240198 
L 146.876727 63.240198 
L 148.068 63.240198 
L 149.259273 63.240198 
L 150.450545 63.240198 
L 151.641818 63.240198 
L 152.833091 63.240198 
L 154.024364 63.240198 
L 155.215636 63.240198 
L 156.406909 63.240198 
L 157.598182 63.240198 
L 158.789455 63.240198 
L 159.980727 63.240198 
L 161.172 63.240198 
L 162.363273 63.240198 
L 163.554545 63.240198 
" clip-path="url(#p50a616464b)" style="fill: none; stroke: #d62728; stroke-width: 2; stroke-linecap: square"/>
   </g>
   <g id="line2d_2">
    <path d="M 14.645455 68.100729 
L 14.645455 58.379668 
" clip-path="url(#p50a616464b)" style="fill: none; stroke: #000000; stroke-linecap: square"/>
   </g>
   <g id="line2d_3">
    <path d="M 133.772727 68.100729 
L 133.772727 58.379668 
" clip-path="url(#p50a616464b)" style="fill: none; stroke: #000000; stroke-linecap: square"/>
   </g>
   <g id="line2d_4">
    <path d="M 14.645455 136.148152 
L 15.836727 131.957366 
L 17.028 130.649909 
L 18.219273 129.927722 
L 19.410545 129.166516 
L 20.601818 128.720154 
L 21.793091 128.361524 
L 22.984364 127.4444 
L 24.175636 127.2655 
L 25.366909 125.769946 
L 26.558182 124.335488 
L 27.749455 124.543919 
L 28.940727 123.0959 
L 30.132 123.17174 
L 31.323273 121.802178 
L 32.514545 119.914352 
L 33.705818 118.62884 
L 34.897091 116.770544 
L 36.088364 114.8851 
L 37.279636 114.639339 
L 38.470909 115.175284 
L 39.662182 115.197376 
L 40.853455 115.108848 
L 42.044727 115.005385 
L 43.236 113.854376 
L 44.427273 111.92708 
L 45.618545 110.032294 
L 46.809818 108.894445 
L 48.001091 108.290577 
L 49.192364 107.5738 
L 50.383636 107.280363 
L 51.574909 106.564246 
L 52.766182 104.211163 
L 53.957455 103.92873 
L 55.148727 100.766217 
L 56.34 99.955259 
L 57.531273 98.70679 
L 58.722545 98.246873 
L 59.913818 98.527702 
L 61.105091 98.115634 
L 62.296364 98.46424 
L 63.487636 96.248594 
L 64.678909 94.118521 
L 65.870182 93.532338 
L 67.061455 93.867323 
L 68.252727 93.90318 
L 69.444 94.104248 
L 70.635273 93.845186 
L 71.826545 93.906144 
L 73.017818 94.145628 
L 74.209091 92.37435 
L 75.400364 92.754849 
L 76.591636 94.592821 
L 77.782909 94.684426 
L 78.974182 94.053464 
L 80.165455 94.564778 
L 81.356727 95.135247 
L 82.548 96.07323 
L 83.739273 96.417829 
L 84.930545 96.708017 
L 86.121818 97.939685 
L 87.313091 98.162962 
L 88.504364 99.066805 
L 89.695636 99.849952 
L 90.886909 101.34037 
L 92.078182 100.960962 
L 93.269455 101.944794 
L 94.460727 102.699623 
L 95.652 104.68477 
L 96.843273 105.909765 
L 98.034545 105.877663 
L 99.225818 107.665795 
L 100.417091 109.567308 
L 101.608364 108.596991 
L 102.799636 109.04655 
L 103.990909 109.880287 
L 105.182182 112.943776 
L 106.373455 114.958975 
L 107.564727 115.309508 
L 108.756 116.981221 
L 109.947273 118.940755 
L 111.138545 118.567339 
L 112.329818 119.185574 
L 113.521091 121.724335 
L 114.712364 122.946886 
L 115.903636 123.178719 
L 117.094909 124.827177 
L 118.286182 125.800334 
L 119.477455 127.434713 
L 120.668727 128.180751 
L 121.86 128.391277 
L 123.051273 129.704887 
L 124.242545 130.583711 
L 125.433818 130.090689 
L 126.625091 131.373609 
L 127.816364 132.977097 
L 129.007636 134.785869 
L 130.198909 134.292473 
L 131.390182 134.27901 
L 132.581455 135.573105 
L 133.772727 136.148152 
L 134.964 136.148152 
L 136.155273 136.148152 
L 137.346545 136.148152 
L 138.537818 136.148152 
L 139.729091 136.148152 
L 140.920364 136.148152 
L 142.111636 136.148152 
L 143.302909 136.148152 
L 144.494182 136.148152 
L 145.685455 136.148152 
L 146.876727 136.148152 
L 148.068 136.148152 
L 149.259273 136.148152 
L 150.450545 136.148152 
L 151.641818 136.148152 
L 152.833091 136.148152 
L 154.024364 136.148152 
L 155.215636 136.148152 
L 156.406909 136.148152 
L 157.598182 136.148152 
L 158.789455 136.148152 
L 159.980727 136.148152 
L 161.172 136.148152 
L 162.363273 136.148152 
L 163.554545 136.148152 
" clip-path="url(#p50a616464b)" style="fill: none; stroke: #1f77b4; stroke-width: 2; stroke-linecap: square"/>
   </g>
   <g id="line2d_5">
    <path d="M 14.645455 141.008683 
L 14.645455 131.287622 
" clip-path="url(#p50a616464b)" style="fill: none; stroke: #000000; stroke-linecap: square"/>
   </g>
   <g id="line2d_6">
    <path d="M 133.772727 141.008683 
L 133.772727 131.287622 
" clip-path="url(#p50a616464b)" style="fill: none; stroke: #000000; stroke-linecap: square"/>
   </g>
   <g id="line2d_7">
    <path d="M 14.645455 136.148152 
L 15.836727 140.267481 
L 17.028 141.366313 
L 18.219273 141.751191 
L 19.410545 142.054718 
L 20.601818 141.931165 
L 21.793091 141.615608 
L 22.984364 141.762059 
L 24.175636 141.08141 
L 25.366909 141.635978 
L 26.558182 142.055273 
L 27.749455 140.764588 
L 28.940727 141.070177 
L 30.132 139.798464 
L 31.323273 139.925273 
L 32.514545 140.529853 
L 33.705818 140.497839 
L 34.897091 141.010363 
L 36.088364 141.527653 
L 37.279636 140.388564 
L 38.470909 138.456585 
L 39.662182 137.032611 
L 40.853455 135.718572 
L 42.044727 134.42377 
L 43.236 134.185627 
L 44.427273 134.737523 
L 45.618545 135.27512 
L 46.809818 135.078279 
L 48.001091 134.374069 
L 49.192364 133.813316 
L 50.383636 132.863534 
L 51.574909 132.37433 
L 52.766182 133.563401 
L 53.957455 132.726368 
L 55.148727 134.817025 
L 56.34 134.606623 
L 57.531273 134.88694 
L 58.722545 134.43445 
L 59.913818 133.299322 
L 61.105091 132.917386 
L 62.296364 131.837083 
L 63.487636 133.385177 
L 64.678909 134.913504 
L 65.870182 134.965235 
L 67.061455 134.164405 
L 68.252727 133.732447 
L 69.444 133.205983 
L 70.635273 133.211143 
L 71.826545 132.968389 
L 73.017818 132.619653 
L 74.209091 134.354484 
L 75.400364 134.010431 
L 76.591636 132.281711 
L 77.782909 132.371903 
L 78.974182 133.256767 
L 80.165455 133.070849 
L 81.356727 132.896481 
L 82.548 132.424343 
L 83.739273 132.614196 
L 84.930545 132.925754 
L 86.121818 132.361638 
L 87.313091 132.870058 
L 88.504364 132.760219 
L 89.695636 132.831372 
L 90.886909 132.25336 
L 92.078182 133.60092 
L 93.269455 133.638448 
L 94.460727 133.955476 
L 95.652 133.089793 
L 96.843273 133.02881 
L 98.034545 134.266234 
L 99.225818 133.721322 
L 100.417091 133.097338 
L 101.608364 135.375733 
L 102.799636 136.260863 
L 103.990909 136.784315 
L 105.182182 135.096228 
L 106.373455 134.47018 
L 107.564727 135.517913 
L 108.756 135.248766 
L 109.947273 134.691114 
L 111.138545 136.460563 
L 112.329818 137.227179 
L 113.521091 136.056572 
L 114.712364 136.179793 
L 115.903636 137.265487 
L 117.094909 136.900274 
L 118.286182 137.16987 
L 119.477455 136.731364 
L 120.668727 137.127757 
L 121.86 137.999484 
L 123.051273 137.701037 
L 124.242545 137.763199 
L 125.433818 139.11577 
L 126.625091 138.603523 
L 127.816364 137.674223 
L 129.007636 136.435365 
L 130.198909 137.38644 
L 131.390182 137.737211 
L 132.581455 136.651743 
L 133.772727 136.148152 
L 134.964 136.148152 
L 136.155273 136.148152 
L 137.346545 136.148152 
L 138.537818 136.148152 
L 139.729091 136.148152 
L 140.920364 136.148152 
L 142.111636 136.148152 
L 143.302909 136.148152 
L 144.494182 136.148152 
L 145.685455 136.148152 
L 146.876727 136.148152 
L 148.068 136.148152 
L 149.259273 136.148152 
L 150.450545 136.148152 
L 151.641818 136.148152 
L 152.833091 136.148152 
L 154.024364 136.148152 
L 155.215636 136.148152 
L 156.406909 136.148152 
L 157.598182 136.148152 
L 158.789455 136.148152 
L 159.980727 136.148152 
L 161.172 136.148152 
L 162.363273 136.148152 
L 163.554545 136.148152 
" clip-path="url(#p50a616464b)" style="fill: none; stroke: #9467bd; stroke-linecap: square"/>
   </g>
   <g id="line2d_8">
    <path d="M 14.645455 213.916637 
L 14.645455 204.195576 
" clip-path="url(#p50a616464b)" style="fill: none; stroke: #000000; stroke-linecap: square"/>
   </g>
   <g id="line2d_9">
    <path d="M 163.554545 213.916637 
L 163.554545 204.195576 
" clip-path="url(#p50a616464b)" style="fill: none; stroke: #000000; stroke-linecap: square"/>
   </g>
   <g id="line2d_10">
    <path d="M 14.645455 209.056106 
L 15.836727 209.019372 
L 17.028 208.911531 
L 18.219273 208.736079 
L 19.410545 208.496458 
L 20.601818 208.196049 
L 21.793091 207.838179 
L 22.984364 207.426116 
L 24.175636 206.963071 
L 25.366909 206.452197 
L 26.558182 205.896591 
L 27.749455 205.29929 
L 28.940727 204.663278 
L 30.132 203.991478 
L 31.323273 203.286757 
L 32.514545 202.551924 
L 33.705818 201.789731 
L 34.897091 201.002875 
L 36.088364 200.193991 
L 37.279636 199.36566 
L 38.470909 198.520405 
L 39.662182 197.660692 
L 40.853455 196.788929 
L 42.044727 195.907466 
L 43.236 195.018596 
L 44.427273 194.124557 
L 45.618545 193.227527 
L 46.809818 192.329628 
L 48.001091 191.432922 
L 49.192364 190.539418 
L 50.383636 189.651065 
L 51.574909 188.769755 
L 52.766182 187.897323 
L 53.957455 187.035545 
L 55.148727 186.186143 
L 56.34 185.350779 
L 57.531273 184.531059 
L 58.722545 183.72853 
L 59.913818 182.944683 
L 61.105091 182.180952 
L 62.296364 181.438713 
L 63.487636 180.719285 
L 64.678909 180.023929 
L 65.870182 179.353849 
L 67.061455 178.710191 
L 68.252727 178.094046 
L 69.444 177.506446 
L 70.635273 176.948364 
L 71.826545 176.420719 
L 73.017818 175.924371 
L 74.209091 175.460121 
L 75.400364 175.028716 
L 76.591636 174.630844 
L 77.782909 174.267136 
L 78.974182 173.938164 
L 80.165455 173.644445 
L 81.356727 173.386437 
L 82.548 173.164542 
L 83.739273 172.979105 
L 84.930545 172.83041 
L 86.121818 172.718689 
L 87.313091 172.644112 
L 88.504364 172.606795 
L 89.695636 172.606795 
L 90.886909 172.644112 
L 92.078182 172.718689 
L 93.269455 172.83041 
L 94.460727 172.979105 
L 95.652 173.164542 
L 96.843273 173.386437 
L 98.034545 173.644445 
L 99.225818 173.938164 
L 100.417091 174.267136 
L 101.608364 174.630844 
L 102.799636 175.028716 
L 103.990909 175.460121 
L 105.182182 175.924371 
L 106.373455 176.420719 
L 107.564727 176.948364 
L 108.756 177.506446 
L 109.947273 178.094046 
L 111.138545 178.710191 
L 112.329818 179.353849 
L 113.521091 180.023929 
L 114.712364 180.719285 
L 115.903636 181.438713 
L 117.094909 182.180952 
L 118.286182 182.944683 
L 119.477455 183.72853 
L 120.668727 184.531059 
L 121.86 185.350779 
L 123.051273 186.186143 
L 124.242545 187.035545 
L 125.433818 187.897323 
L 126.625091 188.769755 
L 127.816364 189.651065 
L 129.007636 190.539418 
L 130.198909 191.432922 
L 131.390182 192.329628 
L 132.581455 193.227527 
L 133.772727 194.124557 
L 134.964 195.018596 
L 136.155273 195.907466 
L 137.346545 196.788929 
L 138.537818 197.660692 
L 139.729091 198.520405 
L 140.920364 199.36566 
L 142.111636 200.193991 
L 143.302909 201.002875 
L 144.494182 201.789731 
L 145.685455 202.551924 
L 146.876727 203.286757 
L 148.068 203.991478 
L 149.259273 204.663278 
L 150.450545 205.29929 
L 151.641818 205.896591 
L 152.833091 206.452197 
L 154.024364 206.963071 
L 155.215636 207.426116 
L 156.406909 207.838179 
L 157.598182 208.196049 
L 158.789455 208.496458 
L 159.980727 208.736079 
L 161.172 208.911531 
L 162.363273 209.019372 
L 163.554545 209.056106 
" clip-path="url(#p50a616464b)" style="fill: none; stroke: #2ca02c; stroke-width: 2; stroke-linecap: square"/>
   </g>
   <g id="line2d_11">
    <path d="M 14.645455 209.056106 
L 15.836727 209.021383 
L 17.028 208.920599 
L 18.219273 208.758742 
L 19.410545 208.540684 
L 20.601818 208.271178 
L 21.793091 207.954861 
L 22.984364 207.59625 
L 24.175636 207.199747 
L 25.366909 206.769634 
L 26.558182 206.310078 
L 27.749455 205.825125 
L 28.940727 205.318706 
L 30.132 204.794634 
L 31.323273 204.256603 
L 32.514545 203.70819 
L 33.705818 203.152855 
L 34.897091 202.593941 
L 36.088364 202.03467 
L 37.279636 201.478151 
L 38.470909 200.927371 
L 39.662182 200.385203 
L 40.853455 199.8544 
L 42.044727 199.337598 
L 43.236 198.837315 
L 44.427273 198.355953 
L 45.618545 197.895794 
L 46.809818 197.459004 
L 48.001091 197.047631 
L 49.192364 196.663606 
L 50.383636 196.30874 
L 51.574909 195.984728 
L 52.766182 195.693149 
L 53.957455 195.435461 
L 55.148727 195.213007 
L 56.34 195.027011 
L 57.531273 194.878579 
L 58.722545 194.768701 
L 59.913818 194.698249 
L 61.105091 194.667976 
L 62.296364 194.678518 
L 63.487636 194.730394 
L 64.678909 194.824004 
L 65.870182 194.959633 
L 67.061455 195.137444 
L 68.252727 195.357488 
L 69.444 195.619693 
L 70.635273 195.923873 
L 71.826545 196.269722 
L 73.017818 196.656818 
L 74.209091 197.08462 
L 75.400364 197.552472 
L 76.591636 198.059596 
L 77.782909 198.605101 
L 78.974182 199.187975 
L 80.165455 199.807089 
L 81.356727 200.461199 
L 82.548 201.148939 
L 83.739273 201.868828 
L 84.930545 202.619269 
L 86.121818 203.398542 
L 87.313091 204.204816 
L 88.504364 205.036137 
L 89.695636 205.890436 
L 90.886909 206.765526 
L 92.078182 207.659101 
L 93.269455 208.56874 
L 94.460727 209.491902 
L 95.652 210.425929 
L 96.843273 211.368046 
L 98.034545 212.31536 
L 99.225818 213.26486 
L 100.417091 214.213418 
L 101.608364 215.157787 
L 102.799636 216.094605 
L 103.990909 217.020389 
L 105.182182 217.931541 
L 106.373455 218.824344 
L 107.564727 219.694964 
L 108.756 220.539449 
L 109.947273 221.35373 
L 111.138545 222.133619 
L 112.329818 222.874812 
L 113.521091 223.572886 
L 114.712364 224.223301 
L 115.903636 224.8214 
L 117.094909 225.362407 
L 118.286182 225.841428 
L 119.477455 226.253455 
L 120.668727 226.593357 
L 121.86 226.855889 
L 123.051273 227.035688 
L 124.242545 227.127273 
L 125.433818 227.125044 
L 126.625091 227.023285 
L 127.816364 226.816162 
L 129.007636 226.497723 
L 130.198909 226.061899 
L 131.390182 225.502502 
L 132.581455 224.813228 
L 133.772727 223.987655 
L 134.964 223.093616 
L 136.155273 222.204747 
L 137.346545 221.323284 
L 138.537818 220.451521 
L 139.729091 219.591807 
L 140.920364 218.746553 
L 142.111636 217.918222 
L 143.302909 217.109338 
L 144.494182 216.322481 
L 145.685455 215.560289 
L 146.876727 214.825456 
L 148.068 214.120735 
L 149.259273 213.448935 
L 150.450545 212.812922 
L 151.641818 212.215622 
L 152.833091 211.660016 
L 154.024364 211.149142 
L 155.215636 210.686096 
L 156.406909 210.274033 
L 157.598182 209.916164 
L 158.789455 209.615755 
L 159.980727 209.376134 
L 161.172 209.200682 
L 162.363273 209.09284 
L 163.554545 209.056106 
" clip-path="url(#p50a616464b)" style="fill: none; stroke: #9467bd; stroke-linecap: square"/>
   </g>
  </g>
  <g id="axes_2">
   <g id="line2d_12">
    <path d="M 189.245455 62.237524 
L 189.741818 62.167639 
L 190.238182 61.963604 
L 191.230909 61.186109 
L 192.223636 59.969383 
L 193.216364 58.375033 
L 194.705455 55.403488 
L 196.194545 51.901229 
L 198.676364 45.349099 
L 203.64 32.008467 
L 205.625455 27.380573 
L 207.114545 24.386567 
L 208.603636 21.882204 
L 210.092727 19.925239 
L 211.085455 18.946952 
L 212.078182 18.241331 
L 213.070909 17.815221 
L 214.063636 17.672727 
L 215.056364 17.815221 
L 216.049091 18.241331 
L 217.041818 18.946952 
L 218.034545 19.925239 
L 219.027273 21.166607 
L 220.516364 23.494237 
L 222.005455 26.332302 
L 223.494545 29.613804 
L 225.48 34.53718 
L 228.954545 43.983783 
L 231.932727 51.901229 
L 233.421818 55.403488 
L 234.910909 58.375033 
L 235.903636 59.969383 
L 236.896364 61.186109 
L 237.889091 61.963604 
L 238.385455 62.167639 
L 239.378182 62.237524 
L 338.154545 62.237524 
L 338.154545 62.237524 
" clip-path="url(#p0f817d25d8)" style="fill: none; stroke: #d62728; stroke-width: 2; stroke-linecap: square"/>
   </g>
   <g id="line2d_13">
    <path d="M 189.245455 66.991103 
L 189.245455 57.483946 
" clip-path="url(#p0f817d25d8)" style="fill: none; stroke: #000000; stroke-linecap: square"/>
   </g>
   <g id="line2d_14">
    <path d="M 238.881818 66.991103 
L 238.881818 57.483946 
" clip-path="url(#p0f817d25d8)" style="fill: none; stroke: #000000; stroke-linecap: square"/>
   </g>
   <g id="line2d_15">
    <path d="M 189.245455 133.541199 
L 189.741818 133.471314 
L 190.238182 133.267279 
L 191.230909 132.489784 
L 192.223636 131.273058 
L 193.216364 129.678708 
L 194.705455 126.707163 
L 196.194545 123.204904 
L 198.676364 116.652774 
L 203.64 103.312142 
L 205.625455 98.684248 
L 207.114545 95.690242 
L 208.603636 93.185879 
L 210.092727 91.228914 
L 211.085455 90.250628 
L 212.078182 89.545006 
L 213.070909 89.118896 
L 214.063636 88.976402 
L 215.056364 89.118896 
L 216.049091 89.545006 
L 217.041818 90.250628 
L 218.034545 91.228914 
L 219.027273 92.470282 
L 220.516364 94.797912 
L 222.005455 97.635977 
L 223.494545 100.917479 
L 225.48 105.840855 
L 228.954545 115.287458 
L 231.932727 123.204904 
L 233.421818 126.707163 
L 234.910909 129.678708 
L 235.903636 131.273058 
L 236.896364 132.489784 
L 237.889091 133.267279 
L 238.385455 133.471314 
L 239.378182 133.541199 
L 251.787273 133.506257 
L 252.78 133.239296 
L 253.772727 132.736805 
L 254.765455 132.030271 
L 256.254545 130.6534 
L 257.743636 128.980755 
L 260.225455 125.774175 
L 266.181818 117.818739 
L 268.167273 115.588588 
L 269.656364 114.169556 
L 271.145455 113.005741 
L 272.634545 112.123711 
L 274.123636 111.543103 
L 275.612727 111.276623 
L 277.101818 111.330047 
L 278.590909 111.702221 
L 280.08 112.385057 
L 281.569091 113.363539 
L 283.058182 114.615721 
L 285.043636 116.66014 
L 287.029091 119.05138 
L 290.007273 123.042959 
L 293.978182 128.373052 
L 295.963636 130.6534 
L 297.452727 132.030271 
L 298.445455 132.736805 
L 299.438182 133.239296 
L 300.430909 133.506257 
L 302.416364 133.541199 
L 338.154545 133.541199 
L 338.154545 133.541199 
" clip-path="url(#p0f817d25d8)" style="fill: none; stroke: #1f77b4; stroke-width: 2; stroke-linecap: square"/>
   </g>
   <g id="line2d_16">
    <path d="M 189.245455 138.294778 
L 189.245455 128.787621 
" clip-path="url(#p0f817d25d8)" style="fill: none; stroke: #000000; stroke-linecap: square"/>
   </g>
   <g id="line2d_17">
    <path d="M 300.927273 138.294778 
L 300.927273 128.787621 
" clip-path="url(#p0f817d25d8)" style="fill: none; stroke: #000000; stroke-linecap: square"/>
   </g>
   <g id="line2d_18">
    <path d="M 189.245455 133.541199 
L 251.787273 133.576142 
L 252.78 133.843103 
L 253.772727 134.345594 
L 254.765455 135.052128 
L 256.254545 136.428998 
L 257.743636 138.101643 
L 260.225455 141.308223 
L 266.181818 149.26366 
L 268.167273 151.49381 
L 269.656364 152.912843 
L 271.145455 154.076658 
L 272.634545 154.958688 
L 274.123636 155.539296 
L 275.612727 155.805775 
L 277.101818 155.752351 
L 278.590909 155.380178 
L 280.08 154.697342 
L 281.569091 153.718859 
L 283.058182 152.466678 
L 285.043636 150.422259 
L 287.029091 148.031019 
L 290.007273 144.039439 
L 293.978182 138.709347 
L 295.963636 136.428998 
L 297.452727 135.052128 
L 298.445455 134.345594 
L 299.438182 133.843103 
L 300.430909 133.576142 
L 302.416364 133.541199 
L 338.154545 133.541199 
L 338.154545 133.541199 
" clip-path="url(#p0f817d25d8)" style="fill: none; stroke: #9467bd; stroke-linecap: square"/>
   </g>
   <g id="line2d_19">
    <path d="M 189.245455 204.844874 
L 189.741818 204.77499 
L 190.238182 204.570954 
L 191.230909 203.793459 
L 192.223636 202.576733 
L 193.216364 200.982383 
L 194.705455 198.010838 
L 196.194545 194.508579 
L 198.676364 187.956449 
L 203.64 174.615817 
L 205.625455 169.987923 
L 207.114545 166.993917 
L 208.603636 164.489554 
L 210.092727 162.532589 
L 211.085455 161.554303 
L 212.078182 160.848681 
L 213.070909 160.422571 
L 214.063636 160.280077 
L 215.056364 160.422571 
L 216.049091 160.848681 
L 217.041818 161.554303 
L 218.034545 162.532589 
L 219.027273 163.773957 
L 220.516364 166.101587 
L 222.005455 168.939652 
L 223.494545 172.221154 
L 225.48 177.14453 
L 228.954545 186.591133 
L 231.932727 194.508579 
L 233.421818 198.010838 
L 234.910909 200.982383 
L 235.903636 202.576733 
L 236.896364 203.793459 
L 237.889091 204.570954 
L 238.385455 204.77499 
L 239.378182 204.844874 
L 289.014545 204.809932 
L 290.007273 204.542971 
L 291 204.04048 
L 291.992727 203.333946 
L 293.481818 201.957075 
L 294.970909 200.28443 
L 297.452727 197.077851 
L 303.409091 189.122414 
L 305.394545 186.892263 
L 306.883636 185.473231 
L 308.372727 184.309416 
L 309.861818 183.427386 
L 311.350909 182.846778 
L 312.84 182.580298 
L 314.329091 182.633722 
L 315.818182 183.005896 
L 317.307273 183.688732 
L 318.796364 184.667214 
L 320.285455 185.919396 
L 322.270909 187.963815 
L 324.256364 190.355055 
L 327.234545 194.346635 
L 331.205455 199.676727 
L 333.190909 201.957075 
L 334.68 203.333946 
L 335.672727 204.04048 
L 336.665455 204.542971 
L 337.658182 204.809932 
L 338.154545 204.844874 
L 338.154545 204.844874 
" clip-path="url(#p0f817d25d8)" style="fill: none; stroke: #2ca02c; stroke-width: 2; stroke-linecap: square"/>
   </g>
   <g id="line2d_20">
    <path d="M 189.245455 204.844874 
L 289.014545 204.879817 
L 290.007273 205.146778 
L 291 205.649269 
L 291.992727 206.355803 
L 293.481818 207.732673 
L 294.970909 209.405318 
L 297.452727 212.611898 
L 303.409091 220.567335 
L 305.394545 222.797485 
L 306.883636 224.216518 
L 308.372727 225.380333 
L 309.861818 226.262363 
L 311.350909 226.842971 
L 312.84 227.10945 
L 314.329091 227.056026 
L 315.818182 226.683853 
L 317.307273 226.001017 
L 318.796364 225.022534 
L 320.285455 223.770353 
L 322.270909 221.725934 
L 324.256364 219.334694 
L 327.234545 215.343114 
L 331.205455 210.013022 
L 333.190909 207.732673 
L 334.68 206.355803 
L 335.672727 205.649269 
L 336.665455 205.146778 
L 337.658182 204.879817 
L 338.154545 204.844874 
L 338.154545 204.844874 
" clip-path="url(#p0f817d25d8)" style="fill: none; stroke: #9467bd; stroke-linecap: square"/>
   </g>
   <g id="line2d_21">
    <path d="M 189.245455 209.598453 
L 189.245455 200.091296 
" clip-path="url(#p0f817d25d8)" style="fill: none; stroke: #000000; stroke-linecap: square"/>
   </g>
   <g id="line2d_22">
    <path d="M 338.154545 209.598453 
L 338.154545 200.091296 
" clip-path="url(#p0f817d25d8)" style="fill: none; stroke: #000000; stroke-linecap: square"/>
   </g>
  </g>
 </g>
 <defs>
  <clipPath id="p50a616464b">
   <rect x="7.2" y="7.2" width="163.8" height="230.4"/>
  </clipPath>
  <clipPath id="p0f817d25d8">
   <rect x="181.8" y="7.2" width="163.8" height="230.4"/>
  </clipPath>
 </defs>
</svg>
