<?xml version="1.0" encoding="utf-8" standalone="no"?>
<!DOCTYPE svg PUBLIC "-//W3C//DTD SVG 1.1//EN"
  "http://www.w3.org/Graphics/SVG/1.1/DTD/svg11.dtd">
<svg xmlns:xlink="http://www.w3.org/1999/xlink" width="352.8pt" height="244.8pt" viewBox="0 0 352.8 244.8" xmlns="http://www.w3.org/2000/svg" version="1.1">
 <metadata>
  <rdf:RDF xmlns:dc="http://purl.org/dc/elements/1.1/" xmlns:cc="http://creativecommons.org/ns#" xmlns:rdf="http://www.w3.org/1999/02/22-rdf-syntax-ns#">
   <cc:Work>
    <dc:type rdf:resource="http://purl.org/dc/dcmitype/StillImage"/>
    <dc:date>2024-02-26T09:59:58.262155</dc:date>
    <dc:format>image/svg+xml</dc:format>
    <dc:creator>
     <cc:Agent>
      <dc:title>Matplotlib v3.8.2, https://matplotlib.org/</dc:title>
     </cc:Agent>
    </dc:creator>
   </cc:Work>
  </rdf:RDF>
 </metadata>
 <defs>
  <style type="text/css">*{stroke-linejoin: round; stroke-linecap: butt}</style>
 </defs>
 <g id="figure_1">
  <g id="patch_1">
   <path d="M 0 244.8 
L 352.8 244.8 
L 352.8 0 
L 0 0 
z
" style="fill: #ffffff"/>
  </g>
  <g id="axes_1">
   <g id="line2d_1">
    <path d="M 14.645455 63.240198 
L 15.141818 63.168741 
L 15.638182 62.960115 
L 16.630909 62.165127 
L 17.623636 60.921026 
L 18.616364 59.290804 
L 20.105455 56.252401 
L 21.594545 52.671345 
L 24.076364 45.971796 
L 29.04 32.33101 
L 31.025455 27.598992 
L 32.514545 24.537624 
L 34.003636 21.976914 
L 35.492727 19.975919 
L 36.485455 18.975622 
L 37.478182 18.254124 
L 38.470909 17.818427 
L 39.463636 17.672727 
L 40.456364 17.818427 
L 41.449091 18.254124 
L 42.441818 18.975622 
L 43.434545 19.975919 
L 44.427273 21.245217 
L 45.916364 23.625217 
L 47.405455 26.527136 
L 48.894545 29.882469 
L 50.88 34.916618 
L 54.354545 44.575762 
L 57.332727 52.671345 
L 58.821818 56.252401 
L 60.310909 59.290804 
L 61.303636 60.921026 
L 62.296364 62.165127 
L 63.289091 62.960115 
L 63.785455 63.168741 
L 64.778182 63.240198 
L 163.554545 63.240198 
L 163.554545 63.240198 
" clip-path="url(#pae663b5d5f)" style="fill: none; stroke: #d62728; stroke-width: 2; stroke-linecap: square"/>
   </g>
   <g id="line2d_2">
    <path d="M 14.645455 68.100729 
L 14.645455 58.379668 
" clip-path="url(#pae663b5d5f)" style="fill: none; stroke: #000000; stroke-linecap: square"/>
   </g>
   <g id="line2d_3">
    <path d="M 64.281818 68.100729 
L 64.281818 58.379668 
" clip-path="url(#pae663b5d5f)" style="fill: none; stroke: #000000; stroke-linecap: square"/>
   </g>
   <g id="line2d_4">
    <path d="M 14.645455 136.148152 
L 15.141818 133.015492 
L 15.638182 132.944473 
L 16.134545 132.337818 
L 16.630909 131.963995 
L 18.12 128.713454 
L 18.616364 128.678239 
L 19.112727 126.917714 
L 19.609091 126.513795 
L 20.105455 125.400496 
L 20.601818 124.829999 
L 21.098182 122.490186 
L 21.594545 123.411227 
L 22.090909 121.342058 
L 22.587273 121.014306 
L 23.58 119.477396 
L 24.076364 118.298117 
L 25.565455 115.773404 
L 26.061818 113.924465 
L 26.558182 113.476055 
L 27.054545 112.010001 
L 27.550909 111.9818 
L 28.047273 111.447015 
L 28.543636 111.707079 
L 29.04 109.282479 
L 29.536364 108.917453 
L 30.032727 108.256123 
L 30.529091 106.331188 
L 31.025455 105.352893 
L 31.521818 105.649357 
L 33.010909 98.707642 
L 33.507273 98.731514 
L 34.003636 97.105651 
L 34.5 96.239841 
L 34.996364 95.746888 
L 35.492727 95.606192 
L 35.989091 94.892277 
L 37.478182 92.012451 
L 38.470909 90.587114 
L 38.967273 88.854747 
L 39.463636 90.321386 
L 40.456364 90.903577 
L 40.952727 91.832335 
L 41.449091 91.804866 
L 41.945455 91.911665 
L 42.441818 91.543034 
L 42.938182 92.752439 
L 43.434545 94.267077 
L 43.930909 94.198654 
L 44.427273 95.376764 
L 44.923636 95.07095 
L 45.42 93.743771 
L 45.916364 93.989505 
L 46.909091 96.824087 
L 47.405455 97.717007 
L 47.901818 99.859729 
L 48.398182 100.578165 
L 49.390909 103.296678 
L 50.383636 104.367298 
L 50.88 104.207697 
L 51.376364 106.307545 
L 51.872727 106.164991 
L 52.369091 108.302071 
L 52.865455 108.815844 
L 53.361818 110.580266 
L 53.858182 111.652016 
L 54.354545 112.989255 
L 54.850909 113.403412 
L 56.34 120.625142 
L 56.836364 122.023521 
L 57.332727 124.15067 
L 57.829091 125.692586 
L 58.325455 125.488147 
L 58.821818 126.645549 
L 59.318182 127.355525 
L 59.814545 128.765113 
L 60.310909 129.238454 
L 60.807273 130.529365 
L 61.303636 131.455879 
L 61.8 131.465507 
L 62.296364 133.3854 
L 62.792727 132.739155 
L 63.289091 134.707028 
L 63.785455 134.827113 
L 64.281818 136.148152 
L 163.554545 136.148152 
L 163.554545 136.148152 
" clip-path="url(#pae663b5d5f)" style="fill: none; stroke: #1f77b4; stroke-width: 2; stroke-linecap: square"/>
   </g>
   <g id="line2d_5">
    <path d="M 14.645455 141.008683 
L 14.645455 131.287622 
" clip-path="url(#pae663b5d5f)" style="fill: none; stroke: #000000; stroke-linecap: square"/>
   </g>
   <g id="line2d_6">
    <path d="M 64.281818 141.008683 
L 64.281818 131.287622 
" clip-path="url(#pae663b5d5f)" style="fill: none; stroke: #000000; stroke-linecap: square"/>
   </g>
   <g id="line2d_7">
    <path d="M 14.645455 136.148152 
L 15.141818 139.209356 
L 15.638182 139.071748 
L 16.134545 139.341095 
L 16.630909 139.257239 
L 17.127273 139.839802 
L 17.623636 140.05326 
L 18.12 140.493004 
L 18.616364 139.668671 
L 19.112727 140.48821 
L 19.609091 139.876966 
L 20.105455 139.908012 
L 20.601818 139.336077 
L 21.098182 140.480018 
L 21.594545 138.316224 
L 22.090909 139.102148 
L 22.587273 138.112373 
L 23.58 136.935357 
L 24.076364 136.729786 
L 25.565455 135.054017 
L 26.061818 135.50469 
L 26.558182 134.563949 
L 27.054545 134.654601 
L 27.550909 133.325614 
L 28.047273 132.525709 
L 28.543636 130.957567 
L 29.04 132.104638 
L 29.536364 131.226444 
L 30.032727 130.682453 
L 30.529091 131.443375 
L 31.025455 131.302206 
L 31.521818 129.933885 
L 32.018182 131.210875 
L 32.514545 132.162839 
L 33.010909 133.973681 
L 33.507273 133.095511 
L 34.003636 133.927369 
L 34.5 134.061482 
L 34.996364 133.886883 
L 35.492727 133.425833 
L 35.989091 133.605296 
L 37.478182 135.29778 
L 38.470909 136.287419 
L 38.967273 137.910533 
L 39.463636 136.407448 
L 40.456364 135.970956 
L 40.952727 135.223994 
L 41.945455 135.723961 
L 42.441818 136.488694 
L 42.938182 135.745134 
L 43.434545 134.764948 
L 43.930909 135.435117 
L 44.427273 134.924559 
L 44.923636 135.96207 
L 45.42 138.083253 
L 45.916364 138.691818 
L 46.412727 138.120017 
L 46.909091 137.737795 
L 47.405455 137.866235 
L 47.901818 136.795369 
L 48.398182 137.196398 
L 48.894545 136.915031 
L 49.390909 136.847219 
L 50.383636 138.297348 
L 50.88 139.765027 
L 51.376364 138.999869 
L 51.872727 140.499612 
L 52.369091 139.737933 
L 52.865455 140.613311 
L 53.361818 140.247154 
L 53.858182 140.577971 
L 54.354545 140.642613 
L 54.850909 141.624491 
L 55.347273 140.654169 
L 55.843636 139.199943 
L 56.34 138.501537 
L 56.836364 138.420684 
L 57.332727 137.576781 
L 57.829091 137.277618 
L 58.325455 138.67793 
L 58.821818 138.662959 
L 59.318182 139.035235 
L 59.814545 138.640811 
L 60.310909 139.108456 
L 60.807273 138.677094 
L 61.303636 138.521253 
L 61.8 139.185812 
L 62.296364 137.835833 
L 62.792727 138.939758 
L 63.289091 137.309193 
L 63.785455 137.397734 
L 64.281818 136.148152 
L 163.554545 136.148152 
L 163.554545 136.148152 
" clip-path="url(#pae663b5d5f)" style="fill: none; stroke: #9467bd; stroke-linecap: square"/>
   </g>
   <g id="line2d_8">
    <path d="M 14.645455 213.916637 
L 14.645455 204.195576 
" clip-path="url(#pae663b5d5f)" style="fill: none; stroke: #000000; stroke-linecap: square"/>
   </g>
   <g id="line2d_9">
    <path d="M 76.690909 213.916637 
L 76.690909 204.195576 
" clip-path="url(#pae663b5d5f)" style="fill: none; stroke: #000000; stroke-linecap: square"/>
   </g>
   <g id="line2d_10">
    <path d="M 14.645455 209.056106 
L 15.638182 208.911531 
L 16.630909 208.496458 
L 17.623636 207.838179 
L 18.616364 206.963071 
L 20.105455 205.29929 
L 21.594545 203.286757 
L 23.58 200.193991 
L 26.558182 195.018596 
L 32.018182 185.350779 
L 34.5 181.438713 
L 36.485455 178.710191 
L 38.470909 176.420719 
L 39.96 175.028716 
L 41.449091 173.938164 
L 42.938182 173.164542 
L 44.427273 172.718689 
L 45.916364 172.606795 
L 46.909091 172.718689 
L 48.398182 173.164542 
L 49.887273 173.938164 
L 51.376364 175.028716 
L 52.865455 176.420719 
L 54.354545 178.094046 
L 56.34 180.719285 
L 58.325455 183.72853 
L 60.807273 187.897323 
L 69.245455 202.551924 
L 71.230909 205.29929 
L 72.72 206.963071 
L 73.712727 207.838179 
L 74.705455 208.496458 
L 75.698182 208.911531 
L 76.690909 209.056106 
L 163.554545 209.056106 
L 163.554545 209.056106 
" clip-path="url(#pae663b5d5f)" style="fill: none; stroke: #2ca02c; stroke-width: 2; stroke-linecap: square"/>
   </g>
   <g id="line2d_11">
    <path d="M 14.645455 209.056106 
L 15.638182 208.920599 
L 16.630909 208.540684 
L 17.623636 207.954861 
L 19.112727 206.769634 
L 21.098182 204.794634 
L 27.550909 197.895794 
L 29.04 196.663606 
L 30.529091 195.693149 
L 32.018182 195.027011 
L 33.010909 194.768701 
L 34.003636 194.667976 
L 34.996364 194.730394 
L 35.989091 194.959633 
L 36.981818 195.357488 
L 38.470909 196.269722 
L 39.96 197.552472 
L 41.449091 199.187975 
L 42.938182 201.148939 
L 44.923636 204.204816 
L 47.405455 208.56874 
L 54.354545 221.35373 
L 55.843636 223.572886 
L 57.332727 225.362407 
L 58.325455 226.253455 
L 59.318182 226.855889 
L 60.310909 227.127273 
L 61.303636 227.023285 
L 62.296364 226.497723 
L 63.289091 225.502502 
L 64.281818 223.987655 
L 67.756364 217.918222 
L 69.741818 214.825456 
L 71.230909 212.812922 
L 72.72 211.149142 
L 73.712727 210.274033 
L 74.705455 209.615755 
L 75.698182 209.200682 
L 76.690909 209.056106 
L 163.554545 209.056106 
L 163.554545 209.056106 
" clip-path="url(#pae663b5d5f)" style="fill: none; stroke: #9467bd; stroke-linecap: square"/>
   </g>
  </g>
  <g id="axes_2">
   <g id="line2d_12">
    <path d="M 189.245455 62.237524 
L 189.741818 62.167639 
L 190.238182 61.963604 
L 191.230909 61.186109 
L 192.223636 59.969383 
L 193.216364 58.375033 
L 194.705455 55.403488 
L 196.194545 51.901229 
L 198.676364 45.349099 
L 203.64 32.008467 
L 205.625455 27.380573 
L 207.114545 24.386567 
L 208.603636 21.882204 
L 210.092727 19.925239 
L 211.085455 18.946952 
L 212.078182 18.241331 
L 213.070909 17.815221 
L 214.063636 17.672727 
L 215.056364 17.815221 
L 216.049091 18.241331 
L 217.041818 18.946952 
L 218.034545 19.925239 
L 219.027273 21.166607 
L 220.516364 23.494237 
L 222.005455 26.332302 
L 223.494545 29.613804 
L 225.48 34.53718 
L 228.954545 43.983783 
L 231.932727 51.901229 
L 233.421818 55.403488 
L 234.910909 58.375033 
L 235.903636 59.969383 
L 236.896364 61.186109 
L 237.889091 61.963604 
L 238.385455 62.167639 
L 239.378182 62.237524 
L 338.154545 62.237524 
L 338.154545 62.237524 
" clip-path="url(#p78186b27d5)" style="fill: none; stroke: #d62728; stroke-width: 2; stroke-linecap: square"/>
   </g>
   <g id="line2d_13">
    <path d="M 189.245455 66.991103 
L 189.245455 57.483946 
" clip-path="url(#p78186b27d5)" style="fill: none; stroke: #000000; stroke-linecap: square"/>
   </g>
   <g id="line2d_14">
    <path d="M 238.881818 66.991103 
L 238.881818 57.483946 
" clip-path="url(#p78186b27d5)" style="fill: none; stroke: #000000; stroke-linecap: square"/>
   </g>
   <g id="line2d_15">
    <path d="M 189.245455 133.541199 
L 189.741818 133.471314 
L 190.238182 133.267279 
L 191.230909 132.489784 
L 192.223636 131.273058 
L 193.216364 129.678708 
L 194.705455 126.707163 
L 196.194545 123.204904 
L 198.676364 116.652774 
L 203.64 103.312142 
L 205.625455 98.684248 
L 207.114545 95.690242 
L 208.603636 93.185879 
L 210.092727 91.228914 
L 211.085455 90.250628 
L 212.078182 89.545006 
L 213.070909 89.118896 
L 214.063636 88.976402 
L 215.056364 89.118896 
L 216.049091 89.545006 
L 217.041818 90.250628 
L 218.034545 91.228914 
L 219.027273 92.470282 
L 220.516364 94.797912 
L 222.005455 97.635977 
L 223.494545 100.917479 
L 225.48 105.840855 
L 228.954545 115.287458 
L 231.932727 123.204904 
L 233.421818 126.707163 
L 234.910909 129.678708 
L 235.903636 131.273058 
L 236.896364 132.489784 
L 237.889091 133.267279 
L 238.385455 133.471314 
L 239.378182 133.541199 
L 251.787273 133.506257 
L 252.78 133.239296 
L 253.772727 132.736805 
L 254.765455 132.030271 
L 256.254545 130.6534 
L 257.743636 128.980755 
L 260.225455 125.774175 
L 266.181818 117.818739 
L 268.167273 115.588588 
L 269.656364 114.169556 
L 271.145455 113.005741 
L 272.634545 112.123711 
L 274.123636 111.543103 
L 275.612727 111.276623 
L 277.101818 111.330047 
L 278.590909 111.702221 
L 280.08 112.385057 
L 281.569091 113.363539 
L 283.058182 114.615721 
L 285.043636 116.66014 
L 287.029091 119.05138 
L 290.007273 123.042959 
L 293.978182 128.373052 
L 295.963636 130.6534 
L 297.452727 132.030271 
L 298.445455 132.736805 
L 299.438182 133.239296 
L 300.430909 133.506257 
L 302.416364 133.541199 
L 338.154545 133.541199 
L 338.154545 133.541199 
" clip-path="url(#p78186b27d5)" style="fill: none; stroke: #1f77b4; stroke-width: 2; stroke-linecap: square"/>
   </g>
   <g id="line2d_16">
    <path d="M 189.245455 138.294778 
L 189.245455 128.787621 
" clip-path="url(#p78186b27d5)" style="fill: none; stroke: #000000; stroke-linecap: square"/>
   </g>
   <g id="line2d_17">
    <path d="M 300.927273 138.294778 
L 300.927273 128.787621 
" clip-path="url(#p78186b27d5)" style="fill: none; stroke: #000000; stroke-linecap: square"/>
   </g>
   <g id="line2d_18">
    <path d="M 189.245455 133.541199 
L 251.787273 133.576142 
L 252.78 133.843103 
L 253.772727 134.345594 
L 254.765455 135.052128 
L 256.254545 136.428998 
L 257.743636 138.101643 
L 260.225455 141.308223 
L 266.181818 149.26366 
L 268.167273 151.49381 
L 269.656364 152.912843 
L 271.145455 154.076658 
L 272.634545 154.958688 
L 274.123636 155.539296 
L 275.612727 155.805775 
L 277.101818 155.752351 
L 278.590909 155.380178 
L 280.08 154.697342 
L 281.569091 153.718859 
L 283.058182 152.466678 
L 285.043636 150.422259 
L 287.029091 148.031019 
L 290.007273 144.039439 
L 293.978182 138.709347 
L 295.963636 136.428998 
L 297.452727 135.052128 
L 298.445455 134.345594 
L 299.438182 133.843103 
L 300.430909 133.576142 
L 302.416364 133.541199 
L 338.154545 133.541199 
L 338.154545 133.541199 
" clip-path="url(#p78186b27d5)" style="fill: none; stroke: #9467bd; stroke-linecap: square"/>
   </g>
   <g id="line2d_19">
    <path d="M 189.245455 204.844874 
L 189.741818 204.77499 
L 190.238182 204.570954 
L 191.230909 203.793459 
L 192.223636 202.576733 
L 193.216364 200.982383 
L 194.705455 198.010838 
L 196.194545 194.508579 
L 198.676364 187.956449 
L 203.64 174.615817 
L 205.625455 169.987923 
L 207.114545 166.993917 
L 208.603636 164.489554 
L 210.092727 162.532589 
L 211.085455 161.554303 
L 212.078182 160.848681 
L 213.070909 160.422571 
L 214.063636 160.280077 
L 215.056364 160.422571 
L 216.049091 160.848681 
L 217.041818 161.554303 
L 218.034545 162.532589 
L 219.027273 163.773957 
L 220.516364 166.101587 
L 222.005455 168.939652 
L 223.494545 172.221154 
L 225.48 177.14453 
L 228.954545 186.591133 
L 231.932727 194.508579 
L 233.421818 198.010838 
L 234.910909 200.982383 
L 235.903636 202.576733 
L 236.896364 203.793459 
L 237.889091 204.570954 
L 238.385455 204.77499 
L 239.378182 204.844874 
L 289.014545 204.809932 
L 290.007273 204.542971 
L 291 204.04048 
L 291.992727 203.333946 
L 293.481818 201.957075 
L 294.970909 200.28443 
L 297.452727 197.077851 
L 303.409091 189.122414 
L 305.394545 186.892263 
L 306.883636 185.473231 
L 308.372727 184.309416 
L 309.861818 183.427386 
L 311.350909 182.846778 
L 312.84 182.580298 
L 314.329091 182.633722 
L 315.818182 183.005896 
L 317.307273 183.688732 
L 318.796364 184.667214 
L 320.285455 185.919396 
L 322.270909 187.963815 
L 324.256364 190.355055 
L 327.234545 194.346635 
L 331.205455 199.676727 
L 333.190909 201.957075 
L 334.68 203.333946 
L 335.672727 204.04048 
L 336.665455 204.542971 
L 337.658182 204.809932 
L 338.154545 204.844874 
L 338.154545 204.844874 
" clip-path="url(#p78186b27d5)" style="fill: none; stroke: #2ca02c; stroke-width: 2; stroke-linecap: square"/>
   </g>
   <g id="line2d_20">
    <path d="M 189.245455 204.844874 
L 289.014545 204.879817 
L 290.007273 205.146778 
L 291 205.649269 
L 291.992727 206.355803 
L 293.481818 207.732673 
L 294.970909 209.405318 
L 297.452727 212.611898 
L 303.409091 220.567335 
L 305.394545 222.797485 
L 306.883636 224.216518 
L 308.372727 225.380333 
L 309.861818 226.262363 
L 311.350909 226.842971 
L 312.84 227.10945 
L 314.329091 227.056026 
L 315.818182 226.683853 
L 317.307273 226.001017 
L 318.796364 225.022534 
L 320.285455 223.770353 
L 322.270909 221.725934 
L 324.256364 219.334694 
L 327.234545 215.343114 
L 331.205455 210.013022 
L 333.190909 207.732673 
L 334.68 206.355803 
L 335.672727 205.649269 
L 336.665455 205.146778 
L 337.658182 204.879817 
L 338.154545 204.844874 
L 338.154545 204.844874 
" clip-path="url(#p78186b27d5)" style="fill: none; stroke: #9467bd; stroke-linecap: square"/>
   </g>
   <g id="line2d_21">
    <path d="M 189.245455 209.598453 
L 189.245455 200.091296 
" clip-path="url(#p78186b27d5)" style="fill: none; stroke: #000000; stroke-linecap: square"/>
   </g>
   <g id="line2d_22">
    <path d="M 338.154545 209.598453 
L 338.154545 200.091296 
" clip-path="url(#p78186b27d5)" style="fill: none; stroke: #000000; stroke-linecap: square"/>
   </g>
  </g>
 </g>
 <defs>
  <clipPath id="pae663b5d5f">
   <rect x="7.2" y="7.2" width="163.8" height="230.4"/>
  </clipPath>
  <clipPath id="p78186b27d5">
   <rect x="181.8" y="7.2" width="163.8" height="230.4"/>
  </clipPath>
 </defs>
</svg>
