<?xml version="1.0" encoding="utf-8" standalone="no"?>
<!DOCTYPE svg PUBLIC "-//W3C//DTD SVG 1.1//EN"
  "http://www.w3.org/Graphics/SVG/1.1/DTD/svg11.dtd">
<svg xmlns:xlink="http://www.w3.org/1999/xlink" width="496.8pt" height="208.8pt" viewBox="0 0 496.8 208.8" xmlns="http://www.w3.org/2000/svg" version="1.1">
 <metadata>
  <rdf:RDF xmlns:dc="http://purl.org/dc/elements/1.1/" xmlns:cc="http://creativecommons.org/ns#" xmlns:rdf="http://www.w3.org/1999/02/22-rdf-syntax-ns#">
   <cc:Work>
    <dc:type rdf:resource="http://purl.org/dc/dcmitype/StillImage"/>
    <dc:date>2024-05-28T21:17:59.134860</dc:date>
    <dc:format>image/svg+xml</dc:format>
    <dc:creator>
     <cc:Agent>
      <dc:title>Matplotlib v3.8.2, https://matplotlib.org/</dc:title>
     </cc:Agent>
    </dc:creator>
   </cc:Work>
  </rdf:RDF>
 </metadata>
 <defs>
  <style type="text/css">*{stroke-linejoin: round; stroke-linecap: butt}</style>
 </defs>
 <g id="figure_1">
  <g id="patch_1">
   <path d="M 0 208.8 
L 496.8 208.8 
L 496.8 0 
L 0 0 
z
" style="fill: #ffffff"/>
  </g>
  <g id="axes_1">
   <g id="line2d_1">
    <path d="M 185.563636 43.650434 
L 186.122182 43.649623 
L 186.680727 43.64644 
L 187.239273 43.639425 
L 187.797818 43.627209 
L 188.356364 43.608518 
L 188.914909 43.582166 
L 189.473455 43.547058 
L 190.032 43.502182 
L 190.590545 43.446615 
L 191.149091 43.379513 
L 191.707636 43.300113 
L 192.266182 43.207733 
L 192.824727 43.101765 
L 193.383273 42.981675 
L 193.941818 42.847005 
L 194.500364 42.697364 
L 195.058909 42.532432 
L 195.617455 42.351954 
L 196.176 42.15574 
L 196.734545 41.943664 
L 197.293091 41.715659 
L 197.851636 41.471717 
L 198.410182 41.211887 
L 198.968727 40.936273 
L 199.527273 40.645031 
L 200.085818 40.338368 
L 200.644364 40.016539 
L 201.202909 39.679847 
L 201.761455 39.328639 
L 202.32 38.963305 
L 202.878545 38.584275 
L 203.437091 38.192019 
L 203.995636 37.787043 
L 204.554182 37.369888 
L 205.112727 36.941128 
L 205.671273 36.501367 
L 206.229818 36.051239 
L 206.788364 35.591404 
L 207.346909 35.122547 
L 207.905455 34.645376 
L 208.464 34.160619 
L 209.022545 33.669026 
L 209.581091 33.171359 
L 210.139636 32.6684 
L 210.698182 32.160939 
L 211.256727 31.649782 
L 211.815273 31.135739 
L 212.373818 30.619631 
L 212.932364 30.102281 
L 213.490909 29.584517 
L 214.049455 29.067167 
L 214.608 28.551059 
L 215.166545 28.037016 
L 215.725091 27.525859 
L 216.283636 27.018398 
L 216.842182 26.515439 
L 217.400727 26.017772 
L 217.959273 25.526179 
L 218.517818 25.041423 
L 219.076364 24.564251 
L 219.634909 24.095394 
L 220.193455 23.635559 
L 220.752 23.185431 
L 221.310545 22.74567 
L 221.869091 22.31691 
L 222.427636 21.899755 
L 222.986182 21.494779 
L 223.544727 21.102523 
L 224.103273 20.723493 
L 224.661818 20.358159 
L 225.220364 20.006951 
L 225.778909 19.670259 
L 226.337455 19.34843 
L 226.896 19.041767 
L 227.454545 18.750525 
L 228.013091 18.474911 
L 228.571636 18.215081 
L 229.130182 17.971139 
L 229.688727 17.743134 
L 230.247273 17.531058 
L 230.805818 17.334844 
L 231.364364 17.154366 
L 231.922909 16.989434 
L 232.481455 16.839793 
L 233.04 16.705123 
L 233.598545 16.585033 
L 234.157091 16.479065 
L 234.715636 16.386685 
L 235.274182 16.307285 
L 235.832727 16.240183 
L 236.391273 16.184616 
L 236.949818 16.13974 
L 237.508364 16.104632 
L 238.066909 16.07828 
L 238.625455 16.059589 
L 239.184 16.047373 
L 239.742545 16.040358 
L 240.301091 16.037176 
L 240.859636 16.036364 
L 241.418182 16.036364 
" clip-path="url(#p429f820193)" style="fill: none; stroke: #d62728; stroke-width: 2; stroke-linecap: square"/>
   </g>
   <g id="line2d_2">
    <path d="M 185.563636 112.685612 
L 191.707636 112.57523 
L 195.617455 112.258923 
L 198.968727 111.758183 
L 202.32 111.014924 
L 205.671273 110.018114 
L 209.022545 108.771821 
L 212.373818 107.293174 
L 216.283636 105.312504 
L 220.752 102.786435 
L 227.454545 98.705989 
L 235.274182 93.996703 
L 239.742545 91.565316 
L 243.652364 89.697137 
L 247.003636 88.331789 
L 250.354909 87.208864 
L 253.706182 86.339218 
L 257.057455 85.719621 
L 260.408727 85.330727 
L 264.318545 85.117469 
L 269.345455 85.071541 
L 269.345455 85.071541 
" clip-path="url(#p429f820193)" style="fill: none; stroke: #1f77b4; stroke-width: 2; stroke-linecap: square"/>
   </g>
   <g id="line2d_3">
    <path d="M 185.563636 112.685612 
L 189.473455 112.582235 
L 191.707636 112.335291 
L 193.941818 111.882183 
L 196.176 111.190918 
L 198.410182 110.247065 
L 200.644364 109.051717 
L 202.878545 107.619453 
L 205.671273 105.536545 
L 209.022545 102.704203 
L 214.608 97.586237 
L 219.076364 93.599429 
L 221.869091 91.352087 
L 224.661818 89.393337 
L 226.896 88.076945 
L 229.130182 87.006317 
L 231.364364 86.189544 
L 233.598545 85.620211 
L 235.832727 85.275361 
L 238.625455 85.094767 
L 244.210909 85.071541 
L 269.345455 85.071541 
L 269.345455 85.071541 
" clip-path="url(#p429f820193)" style="fill: none; stroke: #000000; stroke-linecap: square"/>
   </g>
   <g id="line2d_4">
    <path d="M 185.563636 181.72079 
L 190.032 181.823114 
L 192.824727 182.094557 
L 195.617455 182.592582 
L 198.410182 183.331668 
L 201.202909 184.2964 
L 204.554182 185.694318 
L 210.698182 188.584689 
L 214.608 190.326391 
L 217.400727 191.371494 
L 220.193455 192.164217 
L 222.427636 192.573488 
L 224.661818 192.755643 
L 226.896 192.69501 
L 229.130182 192.386651 
L 231.364364 191.838134 
L 233.598545 191.071298 
L 236.391273 189.865114 
L 246.445091 185.192241 
L 249.796364 184.027808 
L 253.147636 183.115767 
L 256.498909 182.455378 
L 259.850182 182.030122 
L 263.76 181.784285 
L 268.786909 181.72079 
L 269.345455 181.72079 
L 269.345455 181.72079 
" clip-path="url(#p429f820193)" style="fill: none; stroke: #2ca02c; stroke-width: 2; stroke-linecap: square"/>
   </g>
   <g id="line2d_5">
    <path d="M 185.563636 201.6 
L 185.563636 7.2 
" clip-path="url(#p429f820193)" style="fill: none; stroke-dasharray: 2.5,1; stroke-dashoffset: 0; stroke: #0000ff; stroke-opacity: 0.5; stroke-width: 0.5"/>
   </g>
   <g id="line2d_6">
    <path d="M 241.418182 201.6 
L 241.418182 7.2 
" clip-path="url(#p429f820193)" style="fill: none; stroke-dasharray: 2.5,1; stroke-dashoffset: 0; stroke: #ff0000; stroke-opacity: 0.5; stroke-width: 0.5"/>
   </g>
   <g id="line2d_7">
    <path d="M 269.345455 201.6 
L 269.345455 7.2 
" clip-path="url(#p429f820193)" style="fill: none; stroke-dasharray: 2.5,1; stroke-dashoffset: 0; stroke: #008000; stroke-width: 0.5"/>
   </g>
  </g>
  <g id="axes_2">
   <g id="line2d_8">
    <path d="M 349.963636 45.490909 
L 350.522182 45.490043 
L 351.080727 45.486648 
L 351.639273 45.479165 
L 352.197818 45.466136 
L 352.756364 45.446199 
L 353.314909 45.418091 
L 353.873455 45.380642 
L 354.432 45.332776 
L 354.990545 45.273505 
L 355.549091 45.20193 
L 356.107636 45.117239 
L 356.666182 45.018702 
L 357.224727 44.90567 
L 357.783273 44.777577 
L 358.341818 44.633931 
L 358.900364 44.474316 
L 359.458909 44.298391 
L 360.017455 44.105884 
L 360.576 43.896593 
L 361.134545 43.670382 
L 361.693091 43.427181 
L 362.251636 43.16698 
L 362.810182 42.889833 
L 363.368727 42.595849 
L 363.927273 42.285196 
L 364.485818 41.958093 
L 365.044364 41.614815 
L 365.602909 41.255682 
L 366.161455 40.881066 
L 366.72 40.491383 
L 367.278545 40.087091 
L 367.837091 39.668691 
L 368.395636 39.236724 
L 368.954182 38.791765 
L 369.512727 38.334428 
L 370.071273 37.865357 
L 370.629818 37.385228 
L 371.188364 36.894745 
L 371.746909 36.394638 
L 372.305455 35.885664 
L 372.864 35.368599 
L 373.422545 34.84424 
L 373.981091 34.313405 
L 374.539636 33.776923 
L 375.098182 33.23564 
L 375.656727 32.690414 
L 376.215273 32.14211 
L 376.773818 31.591604 
L 377.332364 31.039773 
L 377.890909 30.4875 
L 378.449455 29.935669 
L 379.008 29.385162 
L 379.566545 28.836858 
L 380.125091 28.291632 
L 380.683636 27.75035 
L 381.242182 27.213868 
L 381.800727 26.683032 
L 382.359273 26.158674 
L 382.917818 25.641609 
L 383.476364 25.132634 
L 384.034909 24.632528 
L 384.593455 24.142044 
L 385.152 23.661915 
L 385.710545 23.192844 
L 386.269091 22.735507 
L 386.827636 22.290549 
L 387.386182 21.858581 
L 387.944727 21.440182 
L 388.503273 21.03589 
L 389.061818 20.646206 
L 389.620364 20.27159 
L 390.178909 19.912458 
L 390.737455 19.569179 
L 391.296 19.242077 
L 391.854545 18.931423 
L 392.413091 18.63744 
L 392.971636 18.360292 
L 393.530182 18.100092 
L 394.088727 17.85689 
L 394.647273 17.630679 
L 395.205818 17.421388 
L 395.764364 17.228881 
L 396.322909 17.052956 
L 396.881455 16.893342 
L 397.44 16.749696 
L 397.998545 16.621602 
L 398.557091 16.508571 
L 399.115636 16.410033 
L 399.674182 16.325342 
L 400.232727 16.253768 
L 400.791273 16.194497 
L 401.349818 16.14663 
L 401.908364 16.109182 
L 402.466909 16.081074 
L 403.025455 16.061137 
L 403.584 16.048107 
L 404.142545 16.040624 
L 404.701091 16.03723 
L 405.259636 16.036364 
L 405.818182 16.036364 
" clip-path="url(#p77b11774bd)" style="fill: none; stroke: #d62728; stroke-width: 2; stroke-linecap: square"/>
   </g>
   <g id="line2d_9">
    <path d="M 349.963636 119.127273 
L 353.873455 119.017006 
L 356.107636 118.753603 
L 358.341818 118.270294 
L 360.576 117.532957 
L 362.810182 116.526197 
L 365.044364 115.251179 
L 367.278545 113.723455 
L 370.071273 111.501721 
L 373.422545 108.480604 
L 379.008 103.021526 
L 383.476364 98.768998 
L 386.269091 96.371871 
L 389.061818 94.28257 
L 391.296 92.87844 
L 393.530182 91.736455 
L 395.764364 90.865245 
L 397.998545 90.257966 
L 400.232727 89.890131 
L 403.025455 89.6975 
L 413.079273 89.380108 
L 415.872 88.980215 
L 418.664727 88.372189 
L 421.457455 87.555114 
L 424.808727 86.323156 
L 428.718545 84.611572 
L 435.421091 81.345702 
L 440.448 78.998295 
L 443.799273 77.647364 
L 447.150545 76.548311 
L 449.943273 75.855718 
L 452.736 75.373944 
L 456.087273 75.054157 
L 459.997091 74.947585 
L 475.636364 74.945455 
L 475.636364 74.945455 
" clip-path="url(#p77b11774bd)" style="fill: none; stroke: #1f77b4; stroke-width: 2; stroke-linecap: square"/>
   </g>
   <g id="line2d_10">
    <path d="M 349.963636 119.127273 
L 353.873455 119.017006 
L 356.107636 118.753603 
L 358.341818 118.270294 
L 360.576 117.532957 
L 362.810182 116.526197 
L 365.044364 115.251179 
L 367.278545 113.723455 
L 370.071273 111.501721 
L 373.422545 108.480604 
L 379.008 103.021526 
L 383.476364 98.768998 
L 386.269091 96.371871 
L 389.061818 94.28257 
L 391.296 92.87844 
L 393.530182 91.736455 
L 395.764364 90.865245 
L 397.998545 90.257966 
L 400.232727 89.890131 
L 403.025455 89.6975 
L 408.610909 89.672727 
L 475.636364 89.672727 
L 475.636364 89.672727 
" clip-path="url(#p77b11774bd)" style="fill: none; stroke: #000000; stroke-linecap: square"/>
   </g>
   <g id="line2d_11">
    <path d="M 349.963636 192.763636 
L 410.845091 192.654934 
L 414.196364 192.335147 
L 416.989091 191.853373 
L 419.781818 191.16078 
L 422.574545 190.263873 
L 425.925818 188.950861 
L 429.835636 187.174884 
L 442.123636 181.385936 
L 445.474909 180.153977 
L 448.267636 179.336902 
L 451.060364 178.728876 
L 453.853091 178.328983 
L 457.204364 178.091497 
L 461.672727 178.036364 
L 475.636364 178.036364 
L 475.636364 178.036364 
" clip-path="url(#p77b11774bd)" style="fill: none; stroke: #2ca02c; stroke-width: 2; stroke-linecap: square"/>
   </g>
   <g id="line2d_12">
    <path d="M 349.963636 201.6 
L 349.963636 7.2 
" clip-path="url(#p77b11774bd)" style="fill: none; stroke-dasharray: 2.5,1; stroke-dashoffset: 0; stroke: #0000ff; stroke-opacity: 0.5; stroke-width: 0.5"/>
   </g>
   <g id="line2d_13">
    <path d="M 405.818182 201.6 
L 405.818182 7.2 
" clip-path="url(#p77b11774bd)" style="fill: none; stroke-dasharray: 2.5,1; stroke-dashoffset: 0; stroke: #ff0000; stroke-opacity: 0.5; stroke-width: 0.5"/>
   </g>
   <g id="line2d_14">
    <path d="M 475.636364 201.6 
L 475.636364 7.2 
" clip-path="url(#p77b11774bd)" style="fill: none; stroke-dasharray: 2.5,1; stroke-dashoffset: 0; stroke: #008000; stroke-width: 0.5"/>
   </g>
  </g>
  <g id="axes_3">
   <g id="line2d_15">
    <path d="M 21.163636 45.490909 
L 21.722182 45.490043 
L 22.280727 45.486648 
L 22.839273 45.479165 
L 23.397818 45.466136 
L 23.956364 45.446199 
L 24.514909 45.418091 
L 25.073455 45.380642 
L 25.632 45.332776 
L 26.190545 45.273505 
L 26.749091 45.20193 
L 27.307636 45.117239 
L 27.866182 45.018702 
L 28.424727 44.90567 
L 28.983273 44.777577 
L 29.541818 44.633931 
L 30.100364 44.474316 
L 30.658909 44.298391 
L 31.217455 44.105884 
L 31.776 43.896593 
L 32.334545 43.670382 
L 32.893091 43.427181 
L 33.451636 43.16698 
L 34.010182 42.889833 
L 34.568727 42.595849 
L 35.127273 42.285196 
L 35.685818 41.958093 
L 36.244364 41.614815 
L 36.802909 41.255682 
L 37.361455 40.881066 
L 37.92 40.491383 
L 38.478545 40.087091 
L 39.037091 39.668691 
L 39.595636 39.236724 
L 40.154182 38.791765 
L 40.712727 38.334428 
L 41.271273 37.865357 
L 41.829818 37.385228 
L 42.388364 36.894745 
L 42.946909 36.394638 
L 43.505455 35.885664 
L 44.064 35.368599 
L 44.622545 34.84424 
L 45.181091 34.313405 
L 45.739636 33.776923 
L 46.298182 33.23564 
L 46.856727 32.690414 
L 47.415273 32.14211 
L 47.973818 31.591604 
L 48.532364 31.039773 
L 49.090909 30.4875 
L 49.649455 29.935669 
L 50.208 29.385162 
L 50.766545 28.836858 
L 51.325091 28.291632 
L 51.883636 27.75035 
L 52.442182 27.213868 
L 53.000727 26.683032 
L 53.559273 26.158674 
L 54.117818 25.641609 
L 54.676364 25.132634 
L 55.234909 24.632528 
L 55.793455 24.142044 
L 56.352 23.661915 
L 56.910545 23.192844 
L 57.469091 22.735507 
L 58.027636 22.290549 
L 58.586182 21.858581 
L 59.144727 21.440182 
L 59.703273 21.03589 
L 60.261818 20.646206 
L 60.820364 20.27159 
L 61.378909 19.912458 
L 61.937455 19.569179 
L 62.496 19.242077 
L 63.054545 18.931423 
L 63.613091 18.63744 
L 64.171636 18.360292 
L 64.730182 18.100092 
L 65.288727 17.85689 
L 65.847273 17.630679 
L 66.405818 17.421388 
L 66.964364 17.228881 
L 67.522909 17.052956 
L 68.081455 16.893342 
L 68.64 16.749696 
L 69.198545 16.621602 
L 69.757091 16.508571 
L 70.315636 16.410033 
L 70.874182 16.325342 
L 71.432727 16.253768 
L 71.991273 16.194497 
L 72.549818 16.14663 
L 73.108364 16.109182 
L 73.666909 16.081074 
L 74.225455 16.061137 
L 74.784 16.048107 
L 75.342545 16.040624 
L 75.901091 16.03723 
L 76.459636 16.036364 
L 77.018182 16.036364 
" clip-path="url(#p0b2713bd0c)" style="fill: none; stroke: #d62728; stroke-width: 2; stroke-linecap: square"/>
   </g>
   <g id="line2d_16">
    <path d="M 21.163636 119.127273 
L 21.722182 119.126407 
L 22.280727 119.123012 
L 22.839273 119.115529 
L 23.397818 119.1025 
L 23.956364 119.082562 
L 24.514909 119.054454 
L 25.073455 119.017006 
L 25.632 118.96914 
L 26.190545 118.909869 
L 26.749091 118.838294 
L 27.307636 118.753603 
L 27.866182 118.655065 
L 28.424727 118.542034 
L 28.983273 118.413941 
L 29.541818 118.270294 
L 30.100364 118.11068 
L 30.658909 117.934755 
L 31.217455 117.742248 
L 31.776 117.532957 
L 32.334545 117.306746 
L 32.893091 117.063545 
L 33.451636 116.803344 
L 34.010182 116.526197 
L 34.568727 116.232213 
L 35.127273 115.92156 
L 35.685818 115.594457 
L 36.244364 115.251179 
L 36.802909 114.892046 
L 37.361455 114.51743 
L 37.92 114.127747 
L 38.478545 113.723455 
L 39.037091 113.305055 
L 39.595636 112.873087 
L 40.154182 112.428129 
L 40.712727 111.970792 
L 41.271273 111.501721 
L 41.829818 111.021592 
L 42.388364 110.531109 
L 42.946909 110.031002 
L 43.505455 109.522028 
L 44.064 109.004962 
L 44.622545 108.480604 
L 45.181091 107.949768 
L 45.739636 107.413287 
L 46.298182 106.872004 
L 46.856727 106.326778 
L 47.415273 105.778474 
L 47.973818 105.227967 
L 48.532364 104.676136 
L 49.090909 104.123864 
L 49.649455 103.572033 
L 50.208 103.021526 
L 50.766545 102.473222 
L 51.325091 101.927996 
L 51.883636 101.386713 
L 52.442182 100.850232 
L 53.000727 100.319396 
L 53.559273 99.795038 
L 54.117818 99.277972 
L 54.676364 98.768998 
L 55.234909 98.268891 
L 55.793455 97.778408 
L 56.352 97.298279 
L 56.910545 96.829208 
L 57.469091 96.371871 
L 58.027636 95.926913 
L 58.586182 95.494945 
L 59.144727 95.076545 
L 59.703273 94.672253 
L 60.261818 94.28257 
L 60.820364 93.901838 
L 61.378909 93.519898 
L 61.937455 93.128903 
L 62.496 92.723139 
L 63.054545 92.298849 
L 63.613091 91.854058 
L 64.171636 91.388394 
L 64.730182 90.902914 
L 65.288727 90.399923 
L 65.847273 89.882803 
L 66.405818 89.355832 
L 66.964364 88.824009 
L 67.522909 88.292876 
L 68.081455 87.768346 
L 68.64 87.256518 
L 69.198545 86.763508 
L 69.757091 86.295269 
L 70.315636 85.857415 
L 70.874182 85.455044 
L 71.432727 85.09256 
L 71.991273 84.7735 
L 72.549818 84.500354 
L 73.108364 84.274389 
L 73.666909 84.095474 
L 74.225455 83.9619 
L 74.784 83.870209 
L 75.342545 83.81501 
L 75.901091 83.788808 
L 76.459636 83.781826 
L 77.018182 83.781826 
" clip-path="url(#p0b2713bd0c)" style="fill: none; stroke: #1f77b4; stroke-width: 2; stroke-linecap: square"/>
   </g>
   <g id="line2d_17">
    <path d="M 21.163636 192.763636 
L 21.722182 192.763636 
L 22.280727 192.763636 
L 22.839273 192.763636 
L 23.397818 192.763636 
L 23.956364 192.763636 
L 24.514909 192.763636 
L 25.073455 192.763636 
L 25.632 192.763636 
L 26.190545 192.763636 
L 26.749091 192.763636 
L 27.307636 192.763636 
L 27.866182 192.763636 
L 28.424727 192.763636 
L 28.983273 192.763636 
L 29.541818 192.763636 
L 30.100364 192.763636 
L 30.658909 192.763636 
L 31.217455 192.763636 
L 31.776 192.763636 
L 32.334545 192.763636 
L 32.893091 192.763636 
L 33.451636 192.763636 
L 34.010182 192.763636 
L 34.568727 192.763636 
L 35.127273 192.763636 
L 35.685818 192.763636 
L 36.244364 192.763636 
L 36.802909 192.763636 
L 37.361455 192.763636 
L 37.92 192.763636 
L 38.478545 192.763636 
L 39.037091 192.763636 
L 39.595636 192.763636 
L 40.154182 192.763636 
L 40.712727 192.763636 
L 41.271273 192.763636 
L 41.829818 192.763636 
L 42.388364 192.763636 
L 42.946909 192.763636 
L 43.505455 192.763636 
L 44.064 192.763636 
L 44.622545 192.763636 
L 45.181091 192.763636 
L 45.739636 192.763636 
L 46.298182 192.763636 
L 46.856727 192.763636 
L 47.415273 192.763636 
L 47.973818 192.763636 
L 48.532364 192.763636 
L 49.090909 192.763636 
L 49.649455 192.763636 
L 50.208 192.763636 
L 50.766545 192.763636 
L 51.325091 192.763636 
L 51.883636 192.763636 
L 52.442182 192.763636 
L 53.000727 192.763636 
L 53.559273 192.763636 
L 54.117818 192.763636 
L 54.676364 192.763636 
L 55.234909 192.763636 
L 55.793455 192.763636 
L 56.352 192.763636 
L 56.910545 192.763636 
L 57.469091 192.763636 
L 58.027636 192.763636 
L 58.586182 192.763636 
L 59.144727 192.763636 
L 59.703273 192.763636 
L 60.261818 192.763636 
L 60.820364 192.75752 
L 61.378909 192.734713 
L 61.937455 192.686996 
L 62.496 192.608335 
L 63.054545 192.494698 
L 63.613091 192.343891 
L 64.171636 192.155375 
L 64.730182 191.930095 
L 65.288727 191.670305 
L 65.847273 191.379396 
L 66.405818 191.061716 
L 66.964364 190.7224 
L 67.522909 190.367193 
L 68.081455 190.002276 
L 68.64 189.634095 
L 69.198545 189.269178 
L 69.757091 188.913971 
L 70.315636 188.574655 
L 70.874182 188.256975 
L 71.432727 187.966065 
L 71.991273 187.706276 
L 72.549818 187.480996 
L 73.108364 187.29248 
L 73.666909 187.141673 
L 74.225455 187.028036 
L 74.784 186.949375 
L 75.342545 186.901658 
L 75.901091 186.878851 
L 76.459636 186.872735 
L 77.018182 186.872735 
" clip-path="url(#p0b2713bd0c)" style="fill: none; stroke: #2ca02c; stroke-width: 2; stroke-linecap: square"/>
   </g>
   <g id="line2d_18">
    <path d="M 21.163636 201.6 
L 21.163636 7.2 
" clip-path="url(#p0b2713bd0c)" style="fill: none; stroke-dasharray: 2.5,1; stroke-dashoffset: 0; stroke: #0000ff; stroke-opacity: 0.5; stroke-width: 0.5"/>
   </g>
   <g id="line2d_19">
    <path d="M 77.018182 201.6 
L 77.018182 7.2 
" clip-path="url(#p0b2713bd0c)" style="fill: none; stroke-dasharray: 2.5,1; stroke-dashoffset: 0; stroke: #ff0000; stroke-width: 0.5"/>
   </g>
  </g>
 </g>
 <defs>
  <clipPath id="p429f820193">
   <rect x="171.6" y="7.2" width="153.6" height="194.4"/>
  </clipPath>
  <clipPath id="p77b11774bd">
   <rect x="336" y="7.2" width="153.6" height="194.4"/>
  </clipPath>
  <clipPath id="p0b2713bd0c">
   <rect x="7.2" y="7.2" width="153.6" height="194.4"/>
  </clipPath>
 </defs>
</svg>
