<?xml version="1.0" encoding="utf-8" standalone="no"?>
<!DOCTYPE svg PUBLIC "-//W3C//DTD SVG 1.1//EN"
  "http://www.w3.org/Graphics/SVG/1.1/DTD/svg11.dtd">
<svg xmlns:xlink="http://www.w3.org/1999/xlink" width="280.8pt" height="100.8pt" viewBox="0 0 280.8 100.8" xmlns="http://www.w3.org/2000/svg" version="1.1">
 <metadata>
  <rdf:RDF xmlns:dc="http://purl.org/dc/elements/1.1/" xmlns:cc="http://creativecommons.org/ns#" xmlns:rdf="http://www.w3.org/1999/02/22-rdf-syntax-ns#">
   <cc:Work>
    <dc:type rdf:resource="http://purl.org/dc/dcmitype/StillImage"/>
    <dc:date>2024-01-22T12:57:48.765753</dc:date>
    <dc:format>image/svg+xml</dc:format>
    <dc:creator>
     <cc:Agent>
      <dc:title>Matplotlib v3.8.2, https://matplotlib.org/</dc:title>
     </cc:Agent>
    </dc:creator>
   </cc:Work>
  </rdf:RDF>
 </metadata>
 <defs>
  <style type="text/css">*{stroke-linejoin: round; stroke-linecap: butt}</style>
 </defs>
 <g id="figure_1">
  <g id="patch_1">
   <path d="M 0 100.8 
L 280.8 100.8 
L 280.8 0 
L 0 0 
z
" style="fill: #ffffff"/>
  </g>
  <g id="axes_1">
   <g id="line2d_1">
    <path d="M 18.818182 38.618182 
L 19.282909 38.571992 
L 19.747636 38.437138 
L 20.212364 38.219103 
L 20.677091 37.923262 
L 21.141818 37.554873 
L 21.606545 37.119082 
L 22.071273 36.620923 
L 22.536 36.065316 
L 23.000727 35.457068 
L 23.465455 34.800873 
L 23.930182 34.101311 
L 24.394909 33.36285 
L 24.859636 32.589845 
L 25.324364 31.786537 
L 25.789091 30.957055 
L 26.253818 30.105413 
L 26.718545 29.235514 
L 27.183273 28.351147 
L 27.648 27.455988 
L 28.112727 26.5536 
L 28.577455 25.647432 
L 29.042182 24.740821 
L 29.506909 23.836991 
L 29.971636 22.939051 
L 30.436364 22.05 
L 30.901091 21.172721 
L 31.365818 20.309986 
L 31.830545 19.464452 
L 32.295273 18.638664 
L 32.76 17.835055 
L 33.224727 17.055942 
L 33.689455 16.303531 
L 34.154182 15.579916 
L 34.618909 14.887074 
L 35.083636 14.226873 
L 35.548364 13.601065 
L 36.013091 13.011291 
L 36.477818 12.459077 
L 36.942545 11.945837 
L 37.407273 11.472873 
L 37.872 11.041371 
L 38.336727 10.652406 
L 38.801455 10.306939 
L 39.266182 10.00582 
L 39.730909 9.749782 
L 40.195636 9.539448 
L 40.660364 9.375327 
L 41.125091 9.257816 
L 41.589818 9.187195 
L 42.054545 9.163636 
L 42.519273 9.187195 
L 42.984 9.257816 
L 43.448727 9.375327 
L 43.913455 9.539448 
L 44.378182 9.749782 
L 44.842909 10.00582 
L 45.307636 10.306939 
L 45.772364 10.652406 
L 46.237091 11.041371 
L 46.701818 11.472873 
L 47.166545 11.945837 
L 47.631273 12.459077 
L 48.096 13.011291 
L 48.560727 13.601065 
L 49.025455 14.226873 
L 49.490182 14.887074 
L 49.954909 15.579916 
L 50.419636 16.303531 
L 50.884364 17.055942 
L 51.349091 17.835055 
L 51.813818 18.638664 
L 52.278545 19.464452 
L 52.743273 20.309986 
L 53.208 21.172721 
L 53.672727 22.05 
L 54.137455 22.939051 
L 54.602182 23.836991 
L 55.066909 24.740821 
L 55.531636 25.647432 
L 55.996364 26.5536 
L 56.461091 27.455988 
L 56.925818 28.351147 
L 57.390545 29.235514 
L 57.855273 30.105413 
L 58.32 30.957055 
L 58.784727 31.786537 
L 59.249455 32.589845 
L 59.714182 33.36285 
L 60.178909 34.101311 
L 60.643636 34.800873 
L 61.108364 35.457068 
L 61.573091 36.065316 
L 62.037818 36.620923 
L 62.502545 37.119082 
L 62.967273 37.554873 
L 63.432 37.923262 
L 63.896727 38.219103 
L 64.361455 38.437138 
L 64.826182 38.571992 
L 65.290909 38.618182 
" clip-path="url(#p08418183b6)" style="fill: none; stroke: #d62728; stroke-linecap: square"/>
   </g>
   <g id="line2d_2">
    <path d="M 18.818182 77.890909 
L 19.747636 77.709865 
L 20.677091 77.195989 
L 21.606545 76.391809 
L 22.536 75.338044 
L 23.930182 73.374038 
L 25.789091 70.229782 
L 28.577455 64.920159 
L 31.830545 58.737179 
L 33.689455 55.576259 
L 35.548364 52.873792 
L 36.942545 51.218565 
L 38.336727 49.925133 
L 39.730909 49.022509 
L 40.660364 48.648055 
L 41.589818 48.459923 
L 42.519273 48.459923 
L 43.448727 48.648055 
L 44.378182 49.022509 
L 45.307636 49.579667 
L 46.701818 50.7456 
L 48.096 52.284018 
L 49.490182 54.159801 
L 51.349091 57.107782 
L 53.672727 61.322727 
L 59.249455 71.862572 
L 60.643636 74.0736 
L 62.037818 75.893651 
L 62.967273 76.8276 
L 63.896727 77.491831 
L 64.826182 77.84472 
L 66.220364 77.890909 
L 77.838545 77.800387 
L 79.232727 77.359255 
L 80.626909 76.614476 
L 82.021091 75.632474 
L 83.88 74.060345 
L 87.133091 70.952229 
L 90.386182 67.90115 
L 92.709818 66.025355 
L 94.568727 64.811357 
L 96.427636 63.908021 
L 97.821818 63.456709 
L 99.216 63.210726 
L 100.610182 63.175416 
L 102.004364 63.351542 
L 103.398545 63.735288 
L 104.792727 64.318255 
L 106.651636 65.382351 
L 108.510545 66.733584 
L 110.834182 68.736811 
L 115.481455 73.199575 
L 117.805091 75.263243 
L 119.664 76.614476 
L 121.058182 77.359255 
L 122.452364 77.800387 
L 123.381818 77.890909 
L 123.381818 77.890909 
" clip-path="url(#p08418183b6)" style="fill: none; stroke: #1f77b4; stroke-linecap: square"/>
   </g>
   <g id="line2d_3">
    <path d="M 18.818182 93.6 
L 18.818182 7.2 
" clip-path="url(#p08418183b6)" style="fill: none; stroke-dasharray: 2.5,1; stroke-dashoffset: 0; stroke: #000000; stroke-opacity: 0.5; stroke-width: 0.5"/>
   </g>
   <g id="line2d_4">
    <path d="M 65.290909 46.472727 
L 65.290909 30.763636 
" clip-path="url(#p08418183b6)" style="fill: none; stroke-dasharray: 2.5,1; stroke-dashoffset: 0; stroke: #000000; stroke-width: 0.5"/>
   </g>
   <g id="line2d_5">
    <path d="M 18.818182 3.272727 
L 65.290909 3.272727 
" clip-path="url(#p08418183b6)" style="fill: none; stroke-dasharray: 2.5,1; stroke-dashoffset: 0; stroke: #000000; stroke-width: 0.5"/>
   </g>
  </g>
  <g id="axes_2">
   <g id="line2d_6">
    <path d="M 157.418182 38.618182 
L 157.882909 38.571992 
L 158.347636 38.437138 
L 158.812364 38.219103 
L 159.277091 37.923262 
L 159.741818 37.554873 
L 160.206545 37.119082 
L 160.671273 36.620923 
L 161.136 36.065316 
L 161.600727 35.457068 
L 162.065455 34.800873 
L 162.530182 34.101311 
L 162.994909 33.36285 
L 163.459636 32.589845 
L 163.924364 31.786537 
L 164.389091 30.957055 
L 164.853818 30.105413 
L 165.318545 29.235514 
L 165.783273 28.351147 
L 166.248 27.455988 
L 166.712727 26.5536 
L 167.177455 25.647432 
L 167.642182 24.740821 
L 168.106909 23.836991 
L 168.571636 22.939051 
L 169.036364 22.05 
L 169.501091 21.172721 
L 169.965818 20.309986 
L 170.430545 19.464452 
L 170.895273 18.638664 
L 171.36 17.835055 
L 171.824727 17.055942 
L 172.289455 16.303531 
L 172.754182 15.579916 
L 173.218909 14.887074 
L 173.683636 14.226873 
L 174.148364 13.601065 
L 174.613091 13.011291 
L 175.077818 12.459077 
L 175.542545 11.945837 
L 176.007273 11.472873 
L 176.472 11.041371 
L 176.936727 10.652406 
L 177.401455 10.306939 
L 177.866182 10.00582 
L 178.330909 9.749782 
L 178.795636 9.539448 
L 179.260364 9.375327 
L 179.725091 9.257816 
L 180.189818 9.187195 
L 180.654545 9.163636 
L 181.119273 9.187195 
L 181.584 9.257816 
L 182.048727 9.375327 
L 182.513455 9.539448 
L 182.978182 9.749782 
L 183.442909 10.00582 
L 183.907636 10.306939 
L 184.372364 10.652406 
L 184.837091 11.041371 
L 185.301818 11.472873 
L 185.766545 11.945837 
L 186.231273 12.459077 
L 186.696 13.011291 
L 187.160727 13.601065 
L 187.625455 14.226873 
L 188.090182 14.887074 
L 188.554909 15.579916 
L 189.019636 16.303531 
L 189.484364 17.055942 
L 189.949091 17.835055 
L 190.413818 18.638664 
L 190.878545 19.464452 
L 191.343273 20.309986 
L 191.808 21.172721 
L 192.272727 22.05 
L 192.737455 22.939051 
L 193.202182 23.836991 
L 193.666909 24.740821 
L 194.131636 25.647432 
L 194.596364 26.5536 
L 195.061091 27.455988 
L 195.525818 28.351147 
L 195.990545 29.235514 
L 196.455273 30.105413 
L 196.92 30.957055 
L 197.384727 31.786537 
L 197.849455 32.589845 
L 198.314182 33.36285 
L 198.778909 34.101311 
L 199.243636 34.800873 
L 199.708364 35.457068 
L 200.173091 36.065316 
L 200.637818 36.620923 
L 201.102545 37.119082 
L 201.567273 37.554873 
L 202.032 37.923262 
L 202.496727 38.219103 
L 202.961455 38.437138 
L 203.426182 38.571992 
L 203.890909 38.618182 
" clip-path="url(#pc071045dbe)" style="fill: none; stroke: #d62728; stroke-opacity: 0.6; stroke-linecap: square"/>
   </g>
   <g id="line2d_7">
    <path d="M 157.418182 38.618182 
L 158.347636 38.437138 
L 159.277091 37.923262 
L 160.206545 37.119082 
L 161.136 36.065316 
L 162.530182 34.101311 
L 164.389091 30.957055 
L 167.177455 25.647432 
L 170.430545 19.464452 
L 172.289455 16.303531 
L 174.148364 13.601065 
L 175.542545 11.945837 
L 176.936727 10.652406 
L 178.330909 9.749782 
L 179.260364 9.375327 
L 180.189818 9.187195 
L 181.119273 9.187195 
L 182.048727 9.375327 
L 182.978182 9.749782 
L 183.907636 10.306939 
L 185.301818 11.472873 
L 186.696 13.011291 
L 188.090182 14.887074 
L 189.949091 17.835055 
L 192.272727 22.05 
L 197.849455 32.589845 
L 199.243636 34.800873 
L 200.637818 36.620923 
L 201.567273 37.554873 
L 202.496727 38.219103 
L 203.426182 38.571992 
L 204.820364 38.618182 
L 261.981818 38.618182 
L 261.981818 38.618182 
" clip-path="url(#pc071045dbe)" style="fill: none; stroke-dasharray: 4,4; stroke-dashoffset: 0; stroke: #000000; stroke-width: 2"/>
   </g>
   <g id="line2d_8">
    <path d="M 157.418182 77.890909 
L 158.347636 77.709865 
L 159.277091 77.195989 
L 160.206545 76.391809 
L 161.136 75.338044 
L 162.530182 73.374038 
L 164.389091 70.229782 
L 167.177455 64.920159 
L 170.430545 58.737179 
L 172.289455 55.576259 
L 174.148364 52.873792 
L 175.542545 51.218565 
L 176.936727 49.925133 
L 178.330909 49.022509 
L 179.260364 48.648055 
L 180.189818 48.459923 
L 181.119273 48.459923 
L 182.048727 48.648055 
L 182.978182 49.022509 
L 183.907636 49.579667 
L 185.301818 50.7456 
L 186.696 52.284018 
L 188.090182 54.159801 
L 189.949091 57.107782 
L 192.272727 61.322727 
L 197.849455 71.862572 
L 199.243636 74.0736 
L 200.637818 75.893651 
L 201.567273 76.8276 
L 202.496727 77.491831 
L 203.426182 77.84472 
L 204.820364 77.890909 
L 216.438545 77.800387 
L 217.832727 77.359255 
L 219.226909 76.614476 
L 220.621091 75.632474 
L 222.48 74.060345 
L 225.733091 70.952229 
L 228.986182 67.90115 
L 231.309818 66.025355 
L 233.168727 64.811357 
L 235.027636 63.908021 
L 236.421818 63.456709 
L 237.816 63.210726 
L 239.210182 63.175416 
L 240.604364 63.351542 
L 241.998545 63.735288 
L 243.392727 64.318255 
L 245.251636 65.382351 
L 247.110545 66.733584 
L 249.434182 68.736811 
L 254.081455 73.199575 
L 256.405091 75.263243 
L 258.264 76.614476 
L 259.658182 77.359255 
L 261.052364 77.800387 
L 261.981818 77.890909 
L 261.981818 77.890909 
" clip-path="url(#pc071045dbe)" style="fill: none; stroke: #1f77b4; stroke-opacity: 0.6; stroke-linecap: square"/>
   </g>
   <g id="line2d_9">
    <path d="M 157.418182 77.890909 
L 216.438545 77.800387 
L 217.832727 77.359255 
L 219.226909 76.614476 
L 220.621091 75.632474 
L 222.48 74.060345 
L 225.733091 70.952229 
L 228.986182 67.90115 
L 231.309818 66.025355 
L 233.168727 64.811357 
L 235.027636 63.908021 
L 236.421818 63.456709 
L 237.816 63.210726 
L 239.210182 63.175416 
L 240.604364 63.351542 
L 241.998545 63.735288 
L 243.392727 64.318255 
L 245.251636 65.382351 
L 247.110545 66.733584 
L 249.434182 68.736811 
L 254.081455 73.199575 
L 256.405091 75.263243 
L 258.264 76.614476 
L 259.658182 77.359255 
L 261.052364 77.800387 
L 261.981818 77.890909 
L 261.981818 77.890909 
" clip-path="url(#pc071045dbe)" style="fill: none; stroke-dasharray: 4,4; stroke-dashoffset: 0; stroke: #9467bd; stroke-width: 2"/>
   </g>
   <g id="line2d_10">
    <path d="M 157.418182 93.6 
L 157.418182 7.2 
" clip-path="url(#pc071045dbe)" style="fill: none; stroke-dasharray: 2.5,1; stroke-dashoffset: 0; stroke: #000000; stroke-opacity: 0.5; stroke-width: 0.5"/>
   </g>
   <g id="line2d_11">
    <path d="M 203.890909 46.472727 
L 203.890909 30.763636 
" clip-path="url(#pc071045dbe)" style="fill: none; stroke-dasharray: 2.5,1; stroke-dashoffset: 0; stroke: #000000; stroke-width: 0.5"/>
   </g>
   <g id="line2d_12">
    <path d="M 261.981818 93.6 
L 261.981818 7.2 
" clip-path="url(#pc071045dbe)" style="fill: none; stroke-dasharray: 2.5,1; stroke-dashoffset: 0; stroke: #000000; stroke-width: 0.5"/>
   </g>
  </g>
 </g>
 <defs>
  <clipPath id="p08418183b6">
   <rect x="7.2" y="7.2" width="127.8" height="86.4"/>
  </clipPath>
  <clipPath id="pc071045dbe">
   <rect x="145.8" y="7.2" width="127.8" height="86.4"/>
  </clipPath>
 </defs>
</svg>
