<?xml version="1.0" encoding="utf-8" standalone="no"?>
<!DOCTYPE svg PUBLIC "-//W3C//DTD SVG 1.1//EN"
  "http://www.w3.org/Graphics/SVG/1.1/DTD/svg11.dtd">
<svg xmlns:xlink="http://www.w3.org/1999/xlink" width="280.8pt" height="424.8pt" viewBox="0 0 280.8 424.8" xmlns="http://www.w3.org/2000/svg" version="1.1">
 <metadata>
  <rdf:RDF xmlns:dc="http://purl.org/dc/elements/1.1/" xmlns:cc="http://creativecommons.org/ns#" xmlns:rdf="http://www.w3.org/1999/02/22-rdf-syntax-ns#">
   <cc:Work>
    <dc:type rdf:resource="http://purl.org/dc/dcmitype/StillImage"/>
    <dc:date>2025-11-28T21:13:34.010964</dc:date>
    <dc:format>image/svg+xml</dc:format>
    <dc:creator>
     <cc:Agent>
      <dc:title>Matplotlib v3.8.2, https://matplotlib.org/</dc:title>
     </cc:Agent>
    </dc:creator>
   </cc:Work>
  </rdf:RDF>
 </metadata>
 <defs>
  <style type="text/css">*{stroke-linejoin: round; stroke-linecap: butt}</style>
 </defs>
 <g id="figure_1">
  <g id="patch_1">
   <path d="M 0 424.8 
L 280.8 424.8 
L 280.8 0 
L 0 0 
z
" style="fill: #ffffff"/>
  </g>
  <g id="axes_1">
   <g id="line2d_1">
    <path d="M 7.2 73.081243 
L 8.358261 73.007184 
L 9.516522 72.790961 
L 10.674783 72.44137 
L 12.991304 71.376359 
L 15.307826 69.878887 
L 17.624348 68.012791 
L 19.94087 65.839002 
L 22.257391 63.415555 
L 25.732174 59.432077 
L 30.365217 53.737188 
L 38.473043 43.726329 
L 41.947826 39.758085 
L 45.422609 36.142251 
L 47.73913 33.972815 
L 50.055652 32.02378 
L 52.372174 30.315458 
L 54.688696 28.865259 
L 57.005217 27.687689 
L 59.321739 26.794357 
L 61.638261 26.193966 
L 63.954783 25.892319 
L 66.271304 25.892319 
L 68.587826 26.193966 
L 70.904348 26.794357 
L 73.22087 27.687689 
L 75.537391 28.865259 
L 77.853913 30.315458 
L 80.170435 32.02378 
L 82.486957 33.972815 
L 84.803478 36.142251 
L 88.278261 39.758085 
L 91.753043 43.726329 
L 96.386087 49.381443 
L 105.652174 60.797579 
L 109.126957 64.654972 
L 111.443478 66.960663 
L 113.76 68.988041 
L 116.076522 70.677623 
L 118.393043 71.967025 
L 119.551304 72.44137 
L 120.709565 72.790961 
L 121.867826 73.007184 
L 124.184348 73.081243 
L 281.8 73.081243 
L 281.8 73.081243 
" clip-path="url(#pf3cfb0243b)" style="fill: none; stroke: #000000; stroke-width: 2; stroke-linecap: square"/>
   </g>
   <g id="line2d_2">
    <path d="M 7.2 78.118757 
L 7.2 68.043728 
" clip-path="url(#pf3cfb0243b)" style="fill: none; stroke: #000000; stroke-linecap: square"/>
   </g>
   <g id="line2d_3">
    <path d="M 123.026087 78.118757 
L 123.026087 68.043728 
" clip-path="url(#pf3cfb0243b)" style="fill: none; stroke: #000000; stroke-linecap: square"/>
   </g>
   <g id="line2d_4">
    <path d="M 7.2 148.643959 
L 8.358261 146.524663 
L 10.674783 144.237804 
L 11.833043 144.257935 
L 12.991304 143.843665 
L 14.149565 143.279127 
L 15.307826 140.84715 
L 16.466087 139.144283 
L 17.624348 138.389679 
L 19.94087 135.823594 
L 21.09913 134.890367 
L 22.257391 133.707118 
L 23.415652 132.878272 
L 24.573913 130.081506 
L 25.732174 128.148818 
L 26.890435 126.43233 
L 28.048696 125.074366 
L 29.206957 123.185532 
L 30.365217 121.983415 
L 31.523478 119.167084 
L 32.681739 118.141307 
L 34.998261 117.581528 
L 36.156522 115.306647 
L 38.473043 111.626181 
L 39.631304 113.37032 
L 40.789565 112.588331 
L 41.947826 111.967752 
L 43.106087 110.865646 
L 45.422609 110.098374 
L 46.58087 108.641879 
L 47.73913 107.858136 
L 48.897391 109.557617 
L 50.055652 109.872377 
L 51.213913 108.783104 
L 52.372174 108.121601 
L 53.530435 107.820302 
L 54.688696 107.291385 
L 55.846957 107.461028 
L 57.005217 108.044282 
L 58.163478 107.870092 
L 59.321739 107.142243 
L 60.48 106.849005 
L 61.638261 106.972922 
L 62.796522 107.315924 
L 63.954783 106.009161 
L 66.271304 104.513471 
L 68.587826 105.41755 
L 69.746087 103.854046 
L 70.904348 103.595917 
L 72.062609 103.983888 
L 73.22087 104.033369 
L 74.37913 103.797761 
L 75.537391 107.072094 
L 80.170435 109.456723 
L 81.328696 108.43332 
L 82.486957 108.341317 
L 83.645217 110.192989 
L 84.803478 111.291751 
L 85.961739 110.902799 
L 87.12 112.405465 
L 88.278261 113.000708 
L 89.436522 115.673671 
L 90.594783 116.397829 
L 91.753043 117.874932 
L 92.911304 118.29271 
L 94.069565 120.306211 
L 95.227826 123.304475 
L 97.544348 126.672106 
L 98.702609 127.958558 
L 99.86087 126.407897 
L 101.01913 127.77229 
L 102.177391 130.741539 
L 104.493913 132.930144 
L 105.652174 134.9694 
L 106.810435 136.544062 
L 107.968696 137.011295 
L 109.126957 137.822935 
L 110.285217 140.916686 
L 111.443478 141.54788 
L 112.601739 142.947239 
L 113.76 143.467637 
L 114.918261 144.905846 
L 116.076522 145.364752 
L 118.393043 146.763686 
L 119.551304 146.594795 
L 120.709565 146.655061 
L 121.867826 146.227645 
L 123.026087 148.643959 
L 281.8 148.643959 
L 281.8 148.643959 
" clip-path="url(#pf3cfb0243b)" style="fill: none; stroke: #1f77b4; stroke-width: 2; stroke-linecap: square"/>
   </g>
   <g id="line2d_5">
    <path d="M 7.2 153.681473 
L 7.2 143.606444 
" clip-path="url(#pf3cfb0243b)" style="fill: none; stroke: #000000; stroke-linecap: square"/>
   </g>
   <g id="line2d_6">
    <path d="M 123.026087 153.681473 
L 123.026087 143.606444 
" clip-path="url(#pf3cfb0243b)" style="fill: none; stroke: #000000; stroke-linecap: square"/>
   </g>
   <g id="line2d_7">
    <path d="M 7.2 148.643959 
L 8.358261 150.689195 
L 10.674783 152.41024 
L 11.833043 151.915764 
L 14.149565 151.60517 
L 15.307826 153.238412 
L 16.466087 154.050432 
L 17.624348 153.829786 
L 18.782609 154.114889 
L 19.94087 154.222083 
L 21.09913 153.971279 
L 22.257391 153.915112 
L 23.415652 153.455953 
L 24.573913 154.922747 
L 25.732174 155.489934 
L 26.890435 155.811647 
L 28.048696 155.75164 
L 29.206957 156.205197 
L 30.365217 155.960447 
L 31.523478 157.32385 
L 32.681739 156.89599 
L 34.998261 154.566855 
L 36.156522 155.416252 
L 37.314783 155.777788 
L 38.473043 156.306823 
L 39.631304 153.206975 
L 40.789565 152.664916 
L 41.947826 151.997008 
L 43.106087 151.849903 
L 44.264348 150.97526 
L 45.422609 150.250551 
L 46.58087 150.59616 
L 47.73913 150.321353 
L 48.897391 147.618467 
L 50.055652 146.358077 
L 51.213913 146.561945 
L 52.372174 146.400532 
L 53.530435 145.943491 
L 54.688696 145.780548 
L 55.846957 144.987248 
L 57.005217 143.850082 
L 58.163478 143.541464 
L 59.321739 143.858788 
L 60.48 143.814782 
L 61.638261 143.427717 
L 62.796522 142.8963 
L 63.954783 144.089832 
L 65.113043 144.760565 
L 66.271304 145.585522 
L 67.429565 145.195426 
L 68.587826 144.98309 
L 69.746087 146.809741 
L 70.904348 147.405115 
L 72.062609 147.427668 
L 73.22087 147.860994 
L 74.37913 148.650516 
L 75.537391 145.999839 
L 77.853913 146.243402 
L 80.170435 146.773731 
L 81.328696 148.742764 
L 82.486957 149.838172 
L 83.645217 149.04505 
L 84.803478 149.057174 
L 85.961739 150.606354 
L 87.12 150.310084 
L 88.278261 150.964052 
L 89.436522 149.579576 
L 90.594783 150.179466 
L 91.753043 150.058071 
L 92.911304 151.023582 
L 94.069565 150.416688 
L 95.227826 148.843908 
L 97.544348 148.36519 
L 98.702609 148.532376 
L 99.86087 151.535965 
L 101.01913 151.618439 
L 102.177391 150.084466 
L 104.493913 150.708607 
L 105.652174 150.034853 
L 106.810435 149.790163 
L 107.968696 150.610934 
L 109.126957 151.038712 
L 110.285217 149.12899 
L 111.443478 149.619458 
L 112.601739 149.272226 
L 113.76 149.727078 
L 114.918261 149.179716 
L 116.076522 149.519546 
L 118.393043 149.410014 
L 119.551304 150.05325 
L 120.709565 150.342574 
L 121.867826 150.986213 
L 123.026087 148.643959 
L 281.8 148.643959 
L 281.8 148.643959 
" clip-path="url(#pf3cfb0243b)" style="fill: none; stroke: #9467bd; stroke-linecap: square"/>
   </g>
   <g id="line2d_8">
    <path d="M 7.2 224.206674 
L 9.516522 224.056834 
L 11.833043 223.626647 
L 14.149565 222.9444 
L 16.466087 222.037426 
L 18.782609 220.932113 
L 22.257391 218.95763 
L 25.732174 216.675712 
L 30.365217 213.287342 
L 37.314783 207.801737 
L 45.422609 201.384289 
L 50.055652 197.956857 
L 54.688696 194.838038 
L 58.163478 192.755788 
L 61.638261 190.929809 
L 65.113043 189.387375 
L 68.587826 188.15095 
L 72.062609 187.238183 
L 74.37913 186.816018 
L 76.695652 186.54612 
L 79.012174 186.430152 
L 81.328696 186.468828 
L 83.645217 186.66191 
L 85.961739 187.008208 
L 89.436522 187.809999 
L 92.911304 188.940262 
L 96.386087 190.382951 
L 99.86087 192.117208 
L 103.335652 194.117362 
L 106.810435 196.352928 
L 111.443478 199.638177 
L 117.234783 204.095047 
L 131.133913 215.021867 
L 134.608696 217.465658 
L 138.083478 219.653892 
L 141.558261 221.50795 
L 143.874783 222.517332 
L 146.191304 223.3153 
L 148.507826 223.874994 
L 150.824348 224.168603 
L 154.29913 224.206674 
L 281.8 224.206674 
L 281.8 224.206674 
" clip-path="url(#pf3cfb0243b)" style="fill: none; stroke: #d62728; stroke-width: 2; stroke-linecap: square"/>
   </g>
   <g id="line2d_9">
    <path d="M 7.2 224.206674 
L 9.516522 224.066233 
L 11.833043 223.672484 
L 14.149565 223.065329 
L 17.624348 221.836946 
L 21.09913 220.333186 
L 26.890435 217.509205 
L 33.84 214.13429 
L 37.314783 212.639987 
L 40.789565 211.362932 
L 44.264348 210.357138 
L 47.73913 209.666744 
L 50.055652 209.399029 
L 52.372174 209.294636 
L 54.688696 209.359326 
L 57.005217 209.596912 
L 59.321739 210.009255 
L 61.638261 210.596263 
L 63.954783 211.355896 
L 66.271304 212.284163 
L 69.746087 213.979219 
L 73.22087 216.011587 
L 76.695652 218.343104 
L 80.170435 220.925734 
L 84.803478 224.658338 
L 97.544348 235.23292 
L 101.01913 237.760372 
L 103.335652 239.252047 
L 105.652174 240.546022 
L 107.968696 241.603192 
L 110.285217 242.3825 
L 112.601739 242.840938 
L 114.918261 242.933547 
L 117.234783 242.613418 
L 118.393043 242.283384 
L 119.551304 241.83169 
L 120.709565 241.251925 
L 121.867826 240.537553 
L 125.342609 237.83409 
L 131.133913 233.391482 
L 134.608696 230.947691 
L 138.083478 228.759457 
L 141.558261 226.905398 
L 143.874783 225.896016 
L 146.191304 225.098048 
L 148.507826 224.538355 
L 150.824348 224.244746 
L 154.29913 224.206674 
L 281.8 224.206674 
L 281.8 224.206674 
" clip-path="url(#pf3cfb0243b)" style="fill: none; stroke: #9467bd; stroke-linecap: square"/>
   </g>
   <g id="line2d_10">
    <path d="M 7.2 229.244189 
L 7.2 219.16916 
" clip-path="url(#pf3cfb0243b)" style="fill: none; stroke: #000000; stroke-linecap: square"/>
   </g>
   <g id="line2d_11">
    <path d="M 151.982609 229.244189 
L 151.982609 219.16916 
" clip-path="url(#pf3cfb0243b)" style="fill: none; stroke: #000000; stroke-linecap: square"/>
   </g>
   <g id="line2d_12">
    <path d="M 7.2 299.76939 
L 8.358261 299.695331 
L 9.516522 299.479108 
L 10.674783 299.129517 
L 12.991304 298.064506 
L 15.307826 296.567035 
L 17.624348 294.700938 
L 19.94087 292.52715 
L 22.257391 290.103702 
L 25.732174 286.120225 
L 30.365217 280.425335 
L 38.473043 270.414476 
L 41.947826 266.446232 
L 45.422609 262.830398 
L 47.73913 260.660962 
L 50.055652 258.711928 
L 52.372174 257.003606 
L 54.688696 255.553406 
L 57.005217 254.375837 
L 59.321739 253.482504 
L 61.638261 252.882113 
L 63.954783 252.580467 
L 66.271304 252.580467 
L 68.587826 252.882113 
L 70.904348 253.482504 
L 73.22087 254.375837 
L 75.537391 255.553406 
L 77.853913 257.003606 
L 80.170435 258.711928 
L 82.486957 260.660962 
L 84.803478 262.830398 
L 88.278261 266.446232 
L 91.753043 270.414476 
L 96.386087 276.06959 
L 105.652174 287.485726 
L 109.126957 291.34312 
L 111.443478 293.64881 
L 113.76 295.676188 
L 116.076522 297.36577 
L 118.393043 298.655173 
L 119.551304 299.129517 
L 120.709565 299.479108 
L 121.867826 299.695331 
L 123.026087 299.76939 
L 124.184348 299.624249 
L 125.342609 299.212281 
L 126.50087 298.56758 
L 127.65913 297.722789 
L 129.975652 295.556255 
L 132.292174 292.944807 
L 140.4 283.107811 
L 142.716522 280.744451 
L 145.033043 278.797956 
L 147.349565 277.34957 
L 148.507826 276.831209 
L 149.666087 276.457325 
L 150.824348 276.231544 
L 151.982609 276.156041 
L 153.14087 276.231544 
L 154.29913 276.457325 
L 155.457391 276.831209 
L 156.615652 277.34957 
L 157.773913 278.007328 
L 160.090435 279.713474 
L 162.406957 281.880008 
L 164.723478 284.414079 
L 168.198261 288.64408 
L 172.831304 294.292544 
L 175.147826 296.7091 
L 176.306087 297.722789 
L 177.464348 298.56758 
L 178.622609 299.212281 
L 179.78087 299.624249 
L 180.93913 299.76939 
L 281.8 299.76939 
L 281.8 299.76939 
" clip-path="url(#pf3cfb0243b)" style="fill: none; stroke: #2ca02c; stroke-width: 2; stroke-linecap: square"/>
   </g>
   <g id="line2d_13">
    <path d="M 7.2 304.806904 
L 7.2 294.731876 
" clip-path="url(#pf3cfb0243b)" style="fill: none; stroke: #000000; stroke-linecap: square"/>
   </g>
   <g id="line2d_14">
    <path d="M 180.93913 304.806904 
L 180.93913 294.731876 
" clip-path="url(#pf3cfb0243b)" style="fill: none; stroke: #000000; stroke-linecap: square"/>
   </g>
   <g id="line2d_15">
    <path d="M 7.2 299.76939 
L 123.026087 299.76939 
L 124.184348 299.914531 
L 125.342609 300.326499 
L 126.50087 300.9712 
L 127.65913 301.815991 
L 129.975652 303.982525 
L 132.292174 306.593973 
L 140.4 316.430969 
L 142.716522 318.794329 
L 145.033043 320.740824 
L 147.349565 322.189211 
L 148.507826 322.707571 
L 149.666087 323.081455 
L 150.824348 323.307237 
L 151.982609 323.382739 
L 153.14087 323.307237 
L 154.29913 323.081455 
L 155.457391 322.707571 
L 156.615652 322.189211 
L 157.773913 321.531452 
L 160.090435 319.825307 
L 162.406957 317.658772 
L 164.723478 315.124701 
L 168.198261 310.8947 
L 172.831304 305.246236 
L 175.147826 302.82968 
L 176.306087 301.815991 
L 177.464348 300.9712 
L 178.622609 300.326499 
L 179.78087 299.914531 
L 180.93913 299.76939 
L 281.8 299.76939 
L 281.8 299.76939 
" clip-path="url(#pf3cfb0243b)" style="fill: none; stroke: #9467bd; stroke-linecap: square"/>
   </g>
   <g id="line2d_16">
    <path d="M 7.2 375.332106 
L 8.358261 375.258047 
L 9.516522 375.041824 
L 10.674783 374.692233 
L 12.991304 373.627222 
L 15.307826 372.12975 
L 17.624348 370.263654 
L 19.94087 368.089865 
L 22.257391 365.666418 
L 25.732174 361.68294 
L 30.365217 355.988051 
L 38.473043 345.977192 
L 41.947826 342.008948 
L 45.422609 338.393114 
L 47.73913 336.223678 
L 50.055652 334.274643 
L 52.372174 332.566321 
L 54.688696 331.116122 
L 57.005217 329.938552 
L 59.321739 329.04522 
L 61.638261 328.444829 
L 63.954783 328.143182 
L 66.271304 328.143182 
L 68.587826 328.444829 
L 70.904348 329.04522 
L 73.22087 329.938552 
L 75.537391 331.116122 
L 77.853913 332.566321 
L 80.170435 334.274643 
L 82.486957 336.223678 
L 84.803478 338.393114 
L 88.278261 342.008948 
L 91.753043 345.977192 
L 96.386087 351.632306 
L 105.652174 363.048442 
L 109.126957 366.905835 
L 111.443478 369.211526 
L 113.76 371.238904 
L 116.076522 372.928486 
L 118.393043 374.217888 
L 119.551304 374.692233 
L 120.709565 375.041824 
L 121.867826 375.258047 
L 124.184348 375.332106 
L 209.895652 375.332106 
L 211.053913 375.186965 
L 212.212174 374.774997 
L 213.370435 374.130296 
L 214.528696 373.285505 
L 216.845217 371.118971 
L 219.161739 368.507523 
L 227.269565 358.670527 
L 229.586087 356.307167 
L 231.902609 354.360672 
L 234.21913 352.912285 
L 235.377391 352.393925 
L 236.535652 352.020041 
L 237.693913 351.794259 
L 238.852174 351.718757 
L 240.010435 351.794259 
L 241.168696 352.020041 
L 242.326957 352.393925 
L 243.485217 352.912285 
L 244.643478 353.570044 
L 246.96 355.276189 
L 249.276522 357.442724 
L 251.593043 359.976795 
L 255.067826 364.206796 
L 259.70087 369.85526 
L 262.017391 372.271816 
L 263.175652 373.285505 
L 264.333913 374.130296 
L 265.492174 374.774997 
L 266.650435 375.186965 
L 267.808696 375.332106 
L 281.8 375.332106 
L 281.8 375.332106 
" clip-path="url(#pf3cfb0243b)" style="fill: none; stroke: #8c564b; stroke-width: 2; stroke-linecap: square"/>
   </g>
   <g id="line2d_17">
    <path d="M 7.2 375.332106 
L 209.895652 375.332106 
L 211.053913 375.477247 
L 212.212174 375.889215 
L 213.370435 376.533916 
L 214.528696 377.378707 
L 216.845217 379.545241 
L 219.161739 382.156689 
L 227.269565 391.993685 
L 229.586087 394.357045 
L 231.902609 396.30354 
L 234.21913 397.751926 
L 235.377391 398.270287 
L 236.535652 398.644171 
L 237.693913 398.869952 
L 238.852174 398.945455 
L 240.010435 398.869952 
L 241.168696 398.644171 
L 242.326957 398.270287 
L 243.485217 397.751926 
L 244.643478 397.094168 
L 246.96 395.388022 
L 249.276522 393.221488 
L 251.593043 390.687417 
L 255.067826 386.457416 
L 259.70087 380.808952 
L 262.017391 378.392396 
L 263.175652 377.378707 
L 264.333913 376.533916 
L 265.492174 375.889215 
L 266.650435 375.477247 
L 267.808696 375.332106 
L 281.8 375.332106 
L 281.8 375.332106 
" clip-path="url(#pf3cfb0243b)" style="fill: none; stroke: #9467bd; stroke-linecap: square"/>
   </g>
   <g id="line2d_18">
    <path d="M 7.2 380.36962 
L 7.2 370.294591 
" clip-path="url(#pf3cfb0243b)" style="fill: none; stroke: #000000; stroke-linecap: square"/>
   </g>
   <g id="line2d_19">
    <path d="M 267.808696 380.36962 
L 267.808696 370.294591 
" clip-path="url(#pf3cfb0243b)" style="fill: none; stroke: #000000; stroke-linecap: square"/>
   </g>
   <g id="line2d_20">
    <path d="M 7.2 380.36962 
L 7.2 73.081243 
" clip-path="url(#pf3cfb0243b)" style="fill: none; stroke-dasharray: 0.5,0.825; stroke-dashoffset: 0; stroke: #808080; stroke-width: 0.5"/>
   </g>
   <g id="line2d_21">
    <path d="M 123.026087 380.36962 
L 123.026087 73.081243 
" clip-path="url(#pf3cfb0243b)" style="fill: none; stroke-dasharray: 0.5,0.825; stroke-dashoffset: 0; stroke: #808080; stroke-width: 0.5"/>
   </g>
   <g id="text_1">
    <!-- $m_1(t)$ -->
    <g transform="translate(177.353043 60.487457)">
     <text>
      <tspan style="font: oblique 16px 'DejaVu Sans'" x="0 29.391406" y="-0.859375">mt</tspan>
      <tspan style="font: 11.2px 'DejaVu Sans'" x="15.585938" y="1.765625">1</tspan>
      <tspan style="font: 16px 'DejaVu Sans'" x="23.149219 35.664844" y="-0.859375">()</tspan>
     </text>
    </g>
   </g>
   <g id="text_2">
    <!-- $m_2(t)$ -->
    <g transform="translate(177.353043 136.050173)">
     <text>
      <tspan style="font: oblique 16px 'DejaVu Sans'" x="0 29.391406" y="-0.859375">mt</tspan>
      <tspan style="font: 11.2px 'DejaVu Sans'" x="15.585938" y="1.765625">2</tspan>
      <tspan style="font: 16px 'DejaVu Sans'" x="23.149219 35.664844" y="-0.859375">()</tspan>
     </text>
    </g>
   </g>
   <g id="text_3">
    <!-- $m_3(t)$ -->
    <g transform="translate(177.353043 211.612888)">
     <text>
      <tspan style="font: oblique 16px 'DejaVu Sans'" x="0 29.391406" y="-0.859375">mt</tspan>
      <tspan style="font: 11.2px 'DejaVu Sans'" x="15.585938" y="1.765625">3</tspan>
      <tspan style="font: 16px 'DejaVu Sans'" x="23.149219 35.664844" y="-0.859375">()</tspan>
     </text>
    </g>
   </g>
   <g id="text_4">
    <!-- $m_4(t)$ -->
    <g transform="translate(177.353043 287.175604)">
     <text>
      <tspan style="font: oblique 16px 'DejaVu Sans'" x="0 29.391406" y="-0.859375">mt</tspan>
      <tspan style="font: 11.2px 'DejaVu Sans'" x="15.585938" y="1.765625">4</tspan>
      <tspan style="font: 16px 'DejaVu Sans'" x="23.149219 35.664844" y="-0.859375">()</tspan>
     </text>
    </g>
   </g>
   <g id="text_5">
    <!-- $m_5(t)$ -->
    <g transform="translate(177.353043 362.73832)">
     <text>
      <tspan style="font: oblique 16px 'DejaVu Sans'" x="0 29.391406" y="-0.859375">mt</tspan>
      <tspan style="font: 11.2px 'DejaVu Sans'" x="15.585938" y="1.765625">5</tspan>
      <tspan style="font: 16px 'DejaVu Sans'" x="23.149219 35.664844" y="-0.859375">()</tspan>
     </text>
    </g>
   </g>
  </g>
 </g>
 <defs>
  <clipPath id="pf3cfb0243b">
   <rect x="7.2" y="7.2" width="266.4" height="410.4"/>
  </clipPath>
 </defs>
</svg>
