<?xml version="1.0" encoding="utf-8" standalone="no"?>
<!DOCTYPE svg PUBLIC "-//W3C//DTD SVG 1.1//EN"
  "http://www.w3.org/Graphics/SVG/1.1/DTD/svg11.dtd">
<svg xmlns:xlink="http://www.w3.org/1999/xlink" width="568.8pt" height="136.8pt" viewBox="0 0 568.8 136.8" xmlns="http://www.w3.org/2000/svg" version="1.1">
 <metadata>
  <rdf:RDF xmlns:dc="http://purl.org/dc/elements/1.1/" xmlns:cc="http://creativecommons.org/ns#" xmlns:rdf="http://www.w3.org/1999/02/22-rdf-syntax-ns#">
   <cc:Work>
    <dc:type rdf:resource="http://purl.org/dc/dcmitype/StillImage"/>
    <dc:date>2024-01-05T18:36:19.480411</dc:date>
    <dc:format>image/svg+xml</dc:format>
    <dc:creator>
     <cc:Agent>
      <dc:title>Matplotlib v3.8.2, https://matplotlib.org/</dc:title>
     </cc:Agent>
    </dc:creator>
   </cc:Work>
  </rdf:RDF>
 </metadata>
 <defs>
  <style type="text/css">*{stroke-linejoin: round; stroke-linecap: butt}</style>
 </defs>
 <g id="figure_1">
  <g id="patch_1">
   <path d="M 0 136.8 
L 568.8 136.8 
L 568.8 0 
L 0 0 
z
" style="fill: #ffffff"/>
  </g>
  <g id="axes_1">
   <g id="line2d_1">
    <path d="M 15.272727 44.4 
L 16.349091 44.185639 
L 17.425455 43.577196 
L 18.501818 42.625024 
L 19.578182 41.377336 
L 21.192727 39.051899 
L 22.807273 36.311143 
L 25.498182 31.183653 
L 30.88 20.743696 
L 33.032727 17.122053 
L 34.647273 14.779039 
L 36.261818 12.819203 
L 37.876364 11.287744 
L 38.952727 10.522168 
L 40.029091 9.969972 
L 41.105455 9.636511 
L 42.181818 9.525 
L 43.258182 9.636511 
L 44.334545 9.969972 
L 45.410909 10.522168 
L 46.487273 11.287744 
L 47.563636 12.2592 
L 49.178182 14.08073 
L 50.792727 16.301709 
L 52.407273 18.869709 
L 54.56 22.722587 
L 57.789091 29.042272 
L 61.556364 36.311143 
L 63.170909 39.051899 
L 64.785455 41.377336 
L 65.861818 42.625024 
L 66.938182 43.577196 
L 68.014545 44.185639 
L 69.090909 44.4 
L 176.727273 44.4 
L 176.727273 44.4 
" clip-path="url(#p2cb8fb4810)" style="fill: none; stroke: #d62728; stroke-linecap: square"/>
   </g>
   <g id="line2d_2">
    <path d="M 15.272727 63 
L 15.272727 7.2 
" clip-path="url(#p2cb8fb4810)" style="fill: none; stroke-dasharray: 2.5,1; stroke-dashoffset: 0; stroke: #000000; stroke-opacity: 0.5; stroke-width: 0.5"/>
   </g>
   <g id="line2d_3">
    <path d="M 69.090909 63 
L 69.090909 7.2 
" clip-path="url(#p2cb8fb4810)" style="fill: none; stroke-dasharray: 2.5,1; stroke-dashoffset: 0; stroke: #000000; stroke-opacity: 0.5; stroke-width: 0.5"/>
   </g>
  </g>
  <g id="axes_2">
   <g id="line2d_4">
    <path d="M 203.672727 44.4 
L 204.210909 43.480721 
L 205.287273 42.140533 
L 206.901818 41.538929 
L 208.516364 39.11848 
L 209.592727 36.829825 
L 210.669091 35.589426 
L 211.207273 34.705363 
L 211.745455 33.168119 
L 212.283636 32.32656 
L 213.898182 27.750906 
L 214.436364 26.748827 
L 214.974545 26.71457 
L 216.589091 24.826212 
L 217.127273 23.032245 
L 218.203636 20.640538 
L 218.741818 20.537873 
L 219.28 19.85167 
L 219.818182 18.770101 
L 220.894545 17.963 
L 221.432727 17.852492 
L 221.970909 16.990771 
L 222.509091 15.856051 
L 223.047273 15.500072 
L 223.585455 14.910867 
L 224.123636 14.620941 
L 225.2 13.644964 
L 225.738182 13.262019 
L 226.276364 12.073357 
L 226.814545 11.522438 
L 227.352727 11.196338 
L 227.890909 10.674399 
L 228.429091 10.917543 
L 228.967273 10.208621 
L 229.505455 10.50967 
L 230.043636 10.568884 
L 231.12 11.270446 
L 231.658182 10.968693 
L 232.196364 11.336893 
L 232.734545 10.630931 
L 233.272727 11.252436 
L 233.810909 12.334364 
L 234.349091 11.855919 
L 234.887273 12.313572 
L 235.425455 12.366118 
L 238.654545 16.17675 
L 239.192727 18.035393 
L 240.807273 20.84974 
L 241.345455 20.422424 
L 241.883636 21.08406 
L 242.421818 22.525336 
L 242.96 24.734299 
L 243.498182 24.982962 
L 244.036364 26.191387 
L 244.574545 26.42246 
L 245.650909 28.347367 
L 246.189091 29.020687 
L 246.727273 29.957471 
L 247.265455 29.99585 
L 248.88 34.289906 
L 249.418182 35.265259 
L 249.956364 35.994728 
L 250.494545 35.736869 
L 251.032727 36.414169 
L 251.570909 38.323235 
L 252.109091 38.440006 
L 252.647273 39.683487 
L 253.185455 40.121863 
L 253.723636 40.29452 
L 254.261818 40.035306 
L 255.876364 42.571196 
L 256.414545 42.453476 
L 257.490909 44.4 
L 365.127273 44.4 
L 365.127273 44.4 
" clip-path="url(#p181776ef43)" style="fill: none; stroke: #d62728; stroke-linecap: square"/>
   </g>
   <g id="line2d_5">
    <path d="M 203.672727 44.4 
L 204.210909 45.26459 
L 205.287273 46.186947 
L 206.363636 45.861988 
L 206.901818 45.486095 
L 208.516364 45.938673 
L 209.054545 46.363211 
L 209.592727 46.622074 
L 210.669091 46.072855 
L 211.207273 46.00578 
L 211.745455 46.560893 
L 212.283636 46.394085 
L 212.821818 46.989848 
L 213.898182 47.832747 
L 214.436364 47.766373 
L 214.974545 46.727702 
L 216.589091 45.409262 
L 217.127273 46.150567 
L 217.665455 46.223645 
L 218.203636 46.482049 
L 218.741818 45.583578 
L 219.28 45.292026 
L 219.818182 45.422099 
L 220.894545 44.415833 
L 221.432727 43.669561 
L 221.970909 43.710938 
L 222.509091 44.063962 
L 223.047273 43.678967 
L 223.585455 43.569862 
L 224.123636 43.205952 
L 225.2 43.014236 
L 225.738182 42.886271 
L 226.276364 43.614387 
L 226.814545 43.756264 
L 227.352727 43.72583 
L 227.890909 43.944613 
L 228.429091 43.452428 
L 228.967273 43.967027 
L 229.505455 43.526841 
L 230.043636 43.38401 
L 230.581818 42.951608 
L 231.12 42.682448 
L 231.658182 43.067818 
L 232.196364 42.838755 
L 232.734545 43.73904 
L 233.272727 43.366576 
L 233.810909 42.587805 
L 234.349091 43.422783 
L 234.887273 43.374172 
L 235.425455 43.782172 
L 236.501818 43.505078 
L 238.654545 43.743262 
L 239.192727 42.666316 
L 240.807273 42.419969 
L 241.345455 43.769776 
L 241.883636 44.059636 
L 242.421818 43.596116 
L 242.96 42.388288 
L 243.498182 43.161128 
L 244.036364 42.991425 
L 244.574545 43.813014 
L 245.650909 44.021452 
L 246.189091 44.421585 
L 246.727273 44.557729 
L 247.265455 45.587803 
L 248.88 44.430739 
L 249.418182 44.463754 
L 249.956364 44.716414 
L 250.494545 45.925412 
L 251.032727 46.163372 
L 251.570909 45.128665 
L 252.109091 45.840194 
L 252.647273 45.373667 
L 253.185455 45.655474 
L 253.723636 46.14067 
L 254.261818 46.989719 
L 255.338182 46.483888 
L 255.876364 45.756284 
L 256.414545 46.132163 
L 256.952727 45.423778 
L 257.490909 44.4 
L 365.127273 44.4 
L 365.127273 44.4 
" clip-path="url(#p181776ef43)" style="fill: none; stroke: #9467bd; stroke-linecap: square"/>
   </g>
   <g id="line2d_6">
    <path d="M 203.672727 63 
L 203.672727 7.2 
" clip-path="url(#p181776ef43)" style="fill: none; stroke-dasharray: 2.5,1; stroke-dashoffset: 0; stroke: #000000; stroke-opacity: 0.5; stroke-width: 0.5"/>
   </g>
   <g id="line2d_7">
    <path d="M 257.490909 63 
L 257.490909 7.2 
" clip-path="url(#p181776ef43)" style="fill: none; stroke-dasharray: 2.5,1; stroke-dashoffset: 0; stroke: #000000; stroke-opacity: 0.5; stroke-width: 0.5"/>
   </g>
  </g>
  <g id="axes_3">
   <g id="line2d_8">
    <path d="M 392.072727 44.4 
L 393.149091 44.289349 
L 394.225455 43.971674 
L 395.301818 43.467861 
L 396.916364 42.407102 
L 398.530909 41.037955 
L 400.683636 38.83869 
L 403.374545 35.678536 
L 413.061818 23.831139 
L 415.214545 21.667419 
L 417.367273 19.826385 
L 418.981818 18.68736 
L 420.596364 17.77431 
L 422.210909 17.100269 
L 423.825455 16.674714 
L 425.44 16.503571 
L 427.054545 16.589209 
L 428.669091 16.930442 
L 430.283636 17.522532 
L 431.898182 18.357185 
L 433.512727 19.422552 
L 435.665455 21.174797 
L 437.818182 23.263067 
L 440.509091 26.257161 
L 443.738182 30.228279 
L 449.658182 37.617392 
L 451.810909 39.984436 
L 453.425455 41.524726 
L 455.04 42.798098 
L 456.654545 43.741756 
L 457.730909 44.155068 
L 458.807273 44.371886 
L 460.96 44.4 
L 553.527273 44.4 
L 553.527273 44.4 
" clip-path="url(#pf44629136e)" style="fill: none; stroke: #d62728; stroke-linecap: square"/>
   </g>
   <g id="line2d_9">
    <path d="M 392.072727 44.4 
L 393.149091 44.296289 
L 394.225455 44.005522 
L 395.84 43.282701 
L 397.454545 42.298331 
L 399.607273 40.726707 
L 405.527273 36.210653 
L 407.68 34.915417 
L 409.294545 34.172679 
L 410.909091 33.662851 
L 412.523636 33.411234 
L 414.138182 33.435836 
L 415.752727 33.747372 
L 417.367273 34.349263 
L 418.981818 35.23764 
L 420.596364 36.401338 
L 422.210909 37.821899 
L 424.363636 40.069991 
L 426.516364 42.646907 
L 429.745455 46.894465 
L 434.050909 52.542435 
L 436.203636 54.976127 
L 437.818182 56.465945 
L 438.894545 57.246623 
L 439.970909 57.82211 
L 441.047273 58.160648 
L 442.123636 58.229036 
L 443.2 57.992633 
L 444.276364 57.415359 
L 445.352727 56.459691 
L 447.505455 53.788667 
L 450.734545 49.96131 
L 452.887273 47.762045 
L 454.501818 46.392898 
L 456.116364 45.332139 
L 457.192727 44.828326 
L 458.269091 44.510651 
L 459.345455 44.4 
L 553.527273 44.4 
L 553.527273 44.4 
" clip-path="url(#pf44629136e)" style="fill: none; stroke: #9467bd; stroke-linecap: square"/>
   </g>
   <g id="line2d_10">
    <path d="M 392.072727 63 
L 392.072727 7.2 
" clip-path="url(#pf44629136e)" style="fill: none; stroke-dasharray: 2.5,1; stroke-dashoffset: 0; stroke: #000000; stroke-opacity: 0.5; stroke-width: 0.5"/>
   </g>
   <g id="line2d_11">
    <path d="M 459.345455 63 
L 459.345455 7.2 
" clip-path="url(#pf44629136e)" style="fill: none; stroke-dasharray: 2.5,1; stroke-dashoffset: 0; stroke: #000000; stroke-opacity: 0.5; stroke-width: 0.5"/>
   </g>
  </g>
  <g id="axes_4">
   <g id="line2d_12">
    <path d="M 15.272727 111 
L 16.349091 110.785639 
L 17.425455 110.177196 
L 18.501818 109.225024 
L 19.578182 107.977336 
L 21.192727 105.651899 
L 22.807273 102.911143 
L 25.498182 97.783653 
L 30.88 87.343696 
L 33.032727 83.722053 
L 34.647273 81.379039 
L 36.261818 79.419203 
L 37.876364 77.887744 
L 38.952727 77.122168 
L 40.029091 76.569972 
L 41.105455 76.236511 
L 42.181818 76.125 
L 43.258182 76.236511 
L 44.334545 76.569972 
L 45.410909 77.122168 
L 46.487273 77.887744 
L 47.563636 78.8592 
L 49.178182 80.68073 
L 50.792727 82.901709 
L 52.407273 85.469709 
L 54.56 89.322587 
L 57.789091 95.642272 
L 61.556364 102.911143 
L 63.170909 105.651899 
L 64.785455 107.977336 
L 65.861818 109.225024 
L 66.938182 110.177196 
L 68.014545 110.785639 
L 69.090909 111 
L 83.621818 110.892819 
L 84.698182 110.588598 
L 86.312727 109.817595 
L 87.927273 108.7401 
L 90.08 106.955571 
L 92.770909 104.391826 
L 98.152727 99.171848 
L 100.305455 97.361026 
L 102.458182 95.840365 
L 104.072727 94.9296 
L 105.687273 94.239351 
L 107.301818 93.784986 
L 108.916364 93.576447 
L 110.530909 93.618255 
L 112.145455 93.909506 
L 113.76 94.443872 
L 115.374545 95.209602 
L 116.989091 96.189519 
L 119.141818 97.789417 
L 121.294545 99.660726 
L 124.523636 102.78441 
L 128.829091 106.955571 
L 130.981818 108.7401 
L 132.596364 109.817595 
L 134.210909 110.588598 
L 135.287273 110.892819 
L 136.363636 111 
L 176.727273 111 
L 176.727273 111 
" clip-path="url(#p6206835ca2)" style="fill: none; stroke: #d62728; stroke-linecap: square"/>
   </g>
   <g id="line2d_13">
    <path d="M 15.272727 111 
L 83.621818 111.107181 
L 84.698182 111.411402 
L 86.312727 112.182405 
L 87.927273 113.2599 
L 90.08 115.044429 
L 92.770909 117.608174 
L 98.152727 122.828152 
L 100.305455 124.638974 
L 102.458182 126.159635 
L 104.072727 127.0704 
L 105.687273 127.760649 
L 107.301818 128.215014 
L 108.916364 128.423553 
L 110.530909 128.381745 
L 112.145455 128.090494 
L 113.76 127.556128 
L 115.374545 126.790398 
L 116.989091 125.810481 
L 119.141818 124.210583 
L 121.294545 122.339274 
L 124.523636 119.21559 
L 128.829091 115.044429 
L 130.981818 113.2599 
L 132.596364 112.182405 
L 134.210909 111.411402 
L 135.287273 111.107181 
L 136.363636 111 
L 176.727273 111 
L 176.727273 111 
" clip-path="url(#p6206835ca2)" style="fill: none; stroke: #9467bd; stroke-linecap: square"/>
   </g>
   <g id="line2d_14">
    <path d="M 15.272727 129.6 
L 15.272727 73.8 
" clip-path="url(#p6206835ca2)" style="fill: none; stroke-dasharray: 2.5,1; stroke-dashoffset: 0; stroke: #000000; stroke-opacity: 0.5; stroke-width: 0.5"/>
   </g>
   <g id="line2d_15">
    <path d="M 136.363636 129.6 
L 136.363636 73.8 
" clip-path="url(#p6206835ca2)" style="fill: none; stroke-dasharray: 2.5,1; stroke-dashoffset: 0; stroke: #000000; stroke-opacity: 0.5; stroke-width: 0.5"/>
   </g>
  </g>
  <g id="axes_5">
   <g id="line2d_16">
    <path d="M 203.672727 111 
L 204.749091 110.785639 
L 205.825455 110.177196 
L 206.901818 109.225024 
L 207.978182 107.977336 
L 209.592727 105.651899 
L 211.207273 102.911143 
L 213.898182 97.783653 
L 219.28 87.343696 
L 221.432727 83.722053 
L 223.047273 81.379039 
L 224.661818 79.419203 
L 226.276364 77.887744 
L 227.352727 77.122168 
L 228.429091 76.569972 
L 229.505455 76.236511 
L 230.581818 76.125 
L 231.658182 76.236511 
L 232.734545 76.569972 
L 233.810909 77.122168 
L 234.887273 77.887744 
L 235.963636 78.8592 
L 237.578182 80.68073 
L 239.192727 82.901709 
L 240.807273 85.469709 
L 242.96 89.322587 
L 246.189091 95.642272 
L 249.956364 102.911143 
L 251.570909 105.651899 
L 253.185455 107.977336 
L 254.261818 109.225024 
L 255.338182 110.177196 
L 256.414545 110.785639 
L 257.490909 111 
L 312.385455 110.892819 
L 313.461818 110.588598 
L 315.076364 109.817595 
L 316.690909 108.7401 
L 318.843636 106.955571 
L 321.534545 104.391826 
L 326.916364 99.171848 
L 329.069091 97.361026 
L 331.221818 95.840365 
L 332.836364 94.9296 
L 334.450909 94.239351 
L 336.065455 93.784986 
L 337.68 93.576447 
L 339.294545 93.618255 
L 340.909091 93.909506 
L 342.523636 94.443872 
L 344.138182 95.209602 
L 345.752727 96.189519 
L 347.905455 97.789417 
L 350.058182 99.660726 
L 353.287273 102.78441 
L 357.592727 106.955571 
L 359.745455 108.7401 
L 361.36 109.817595 
L 362.974545 110.588598 
L 364.050909 110.892819 
L 365.127273 111 
L 365.127273 111 
" clip-path="url(#p28214d3c83)" style="fill: none; stroke: #d62728; stroke-linecap: square"/>
   </g>
   <g id="line2d_17">
    <path d="M 203.672727 111 
L 312.385455 111.107181 
L 313.461818 111.411402 
L 315.076364 112.182405 
L 316.690909 113.2599 
L 318.843636 115.044429 
L 321.534545 117.608174 
L 326.916364 122.828152 
L 329.069091 124.638974 
L 331.221818 126.159635 
L 332.836364 127.0704 
L 334.450909 127.760649 
L 336.065455 128.215014 
L 337.68 128.423553 
L 339.294545 128.381745 
L 340.909091 128.090494 
L 342.523636 127.556128 
L 344.138182 126.790398 
L 345.752727 125.810481 
L 347.905455 124.210583 
L 350.058182 122.339274 
L 353.287273 119.21559 
L 357.592727 115.044429 
L 359.745455 113.2599 
L 361.36 112.182405 
L 362.974545 111.411402 
L 364.050909 111.107181 
L 365.127273 111 
L 365.127273 111 
" clip-path="url(#p28214d3c83)" style="fill: none; stroke: #9467bd; stroke-linecap: square"/>
   </g>
   <g id="line2d_18">
    <path d="M 203.672727 129.6 
L 203.672727 73.8 
" clip-path="url(#p28214d3c83)" style="fill: none; stroke-dasharray: 2.5,1; stroke-dashoffset: 0; stroke: #000000; stroke-opacity: 0.5; stroke-width: 0.5"/>
   </g>
   <g id="line2d_19">
    <path d="M 365.127273 129.6 
L 365.127273 73.8 
" clip-path="url(#p28214d3c83)" style="fill: none; stroke-dasharray: 2.5,1; stroke-dashoffset: 0; stroke: #000000; stroke-opacity: 0.5; stroke-width: 0.5"/>
   </g>
  </g>
 </g>
 <defs>
  <clipPath id="p2cb8fb4810">
   <rect x="7.2" y="7.2" width="177.6" height="55.8"/>
  </clipPath>
  <clipPath id="p181776ef43">
   <rect x="195.6" y="7.2" width="177.6" height="55.8"/>
  </clipPath>
  <clipPath id="pf44629136e">
   <rect x="384" y="7.2" width="177.6" height="55.8"/>
  </clipPath>
  <clipPath id="p6206835ca2">
   <rect x="7.2" y="73.8" width="177.6" height="55.8"/>
  </clipPath>
  <clipPath id="p28214d3c83">
   <rect x="195.6" y="73.8" width="177.6" height="55.8"/>
  </clipPath>
 </defs>
</svg>
